G04 #@! TF.GenerationSoftware,KiCad,Pcbnew,(6.0.0)*
G04 #@! TF.CreationDate,2021-12-31T23:16:07+08:00*
G04 #@! TF.ProjectId,Trackpoint buttons,54726163-6b70-46f6-996e-742062757474,rev?*
G04 #@! TF.SameCoordinates,Original*
G04 #@! TF.FileFunction,Profile,NP*
%FSLAX46Y46*%
G04 Gerber Fmt 4.6, Leading zero omitted, Abs format (unit mm)*
G04 Created by KiCad (PCBNEW (6.0.0)) date 2021-12-31 23:16:07*
%MOMM*%
%LPD*%
G01*
G04 APERTURE LIST*
G04 #@! TA.AperFunction,Profile*
%ADD10C,0.100000*%
G04 #@! TD*
G04 APERTURE END LIST*
D10*
X88389880Y-87542500D02*
X81999880Y-91132500D01*
X61830000Y-52645000D02*
X40390000Y-52645000D01*
X40390000Y-52645000D02*
X40390000Y-66375000D01*
X40390000Y-66375000D02*
X61830000Y-66375000D01*
X61830000Y-66375000D02*
X61830000Y-52645000D01*
X37640000Y-33560000D02*
X37640000Y-33550000D01*
X81999880Y-91132500D02*
X69829880Y-91132500D01*
X59210000Y-86282500D02*
X37640000Y-86282500D01*
X95799880Y-38872500D02*
X95799880Y-84892500D01*
X86660000Y-78290000D02*
X86660000Y-74100000D01*
X61830000Y-37110000D02*
X40390000Y-37110000D01*
X40390000Y-37110000D02*
X40390000Y-50840000D01*
X40390000Y-50840000D02*
X61830000Y-50840000D01*
X61830000Y-50840000D02*
X61830000Y-37110000D01*
X69809880Y-33552500D02*
X69809880Y-28702500D01*
X86230000Y-46530000D02*
X86230000Y-42340000D01*
X95799880Y-84892500D02*
X93149880Y-87542500D01*
X60737380Y-33552500D02*
X37950000Y-33552500D01*
X69910000Y-36420000D02*
X69910000Y-46530000D01*
X80310000Y-36420000D02*
X70050000Y-36420000D01*
X70480000Y-84210000D02*
X80740000Y-84210000D01*
X37640000Y-34698392D02*
X37640000Y-33560000D01*
X60737380Y-33552500D02*
X69809880Y-33552500D01*
X37640000Y-86282500D02*
X37640000Y-86210000D01*
X93149880Y-87542500D02*
X88389880Y-87542500D01*
X37640000Y-34698392D02*
X37640000Y-86210000D01*
X70050000Y-36420000D02*
X69910000Y-36420000D01*
X86660000Y-74100000D02*
X70340000Y-74100000D01*
X75779880Y-28702500D02*
X95799880Y-38872500D01*
X70340000Y-74100000D02*
X70340000Y-84210000D01*
X69809880Y-28702500D02*
X75779880Y-28702500D01*
X37640000Y-33550000D02*
X37950000Y-33550000D01*
X69829880Y-91132500D02*
X69829880Y-86282500D01*
X70340000Y-84210000D02*
X70480000Y-84210000D01*
X69910000Y-46530000D02*
X86230000Y-46530000D01*
X61830000Y-68180000D02*
X40390000Y-68180000D01*
X40390000Y-68180000D02*
X40390000Y-81910000D01*
X40390000Y-81910000D02*
X61830000Y-81910000D01*
X61830000Y-81910000D02*
X61830000Y-68180000D01*
X86230000Y-42340000D02*
X80310000Y-36420000D01*
X62869880Y-86282500D02*
X59210000Y-86282500D01*
X80740000Y-84210000D02*
X86660000Y-78290000D01*
X69829880Y-86282500D02*
X62869880Y-86282500D01*
M02*
