0
SECTION
2
HEADER
9
$INSUNITS
70
4
9
$ACADVER
1
AC1014
9
$HANDSEED
5
FFFF
0
ENDSEC
0
SECTION
2
TABLES
0
TABLE
2
VPORT
5
8
100
AcDbSymbolTable
0
ENDTAB
0
TABLE
2
LTYPE
5
5
100
AcDbSymbolTable
0
LTYPE
5
14
100
AcDbSymbolTableRecord
100
AcDbLinetypeTableRecord
2
BYBLOCK
70
0
0
LTYPE
5
15
100
AcDbSymbolTableRecord
100
AcDbLinetypeTableRecord
2
BYLAYER
70
0
0
ENDTAB
0
TABLE
2
LAYER
5
2
100
AcDbSymbolTable
70
2
0
LAYER
5
50
100
AcDbSymbolTableRecord
100
AcDbLayerTableRecord
2
0
70
0
6
CONTINUOUS
0
ENDTAB
0
TABLE
2
STYLE
5
3
100
AcDbSymbolTable
70
1
0
STYLE
5
11
100
AcDbSymbolTableRecord
100
AcDbTextStyleTableRecord
2
STANDARD
70
0
0
ENDTAB
0
TABLE
2
VIEW
5
6
100
AcDbSymbolTable
70
0
0
ENDTAB
0
TABLE
2
UCS
5
7
100
AcDbSymbolTable
70
0
0
ENDTAB
0
TABLE
2
APPID
5
9
100
AcDbSymbolTable
70
2
0
APPID
5
12
100
AcDbSymbolTableRecord
100
AcDbRegAppTableRecord
2
ACAD
70
0
0
ENDTAB
0
TABLE
2
DIMSTYLE
5
A
100
AcDbSymbolTable
70
1
0
ENDTAB
0
TABLE
2
BLOCK_RECORD
5
1
100
AcDbSymbolTable
70
1
0
BLOCK_RECORD
5
1F
100
AcDbSymbolTableRecord
100
AcDbBlockTableRecord
2
*MODEL_SPACE
0
BLOCK_RECORD
5
1B
100
AcDbSymbolTableRecord
100
AcDbBlockTableRecord
2
*PAPER_SPACE
0
ENDTAB
0
ENDSEC
0
SECTION
2
BLOCKS
0
BLOCK
5
20
100
AcDbEntity
100
AcDbBlockBegin
2
*MODEL_SPACE
0
ENDBLK
5
21
100
AcDbEntity
100
AcDbBlockEnd
0
BLOCK
5
1C
100
AcDbEntity
100
AcDbBlockBegin
2
*PAPER_SPACE
0
ENDBLK
5
1D
100
AcDbEntity
100
AcDbBlockEnd
0
ENDSEC
0
SECTION
2
ENTITIES
0
LWPOLYLINE
5
100
100
AcDbEntity
8
0
100
AcDbPolyline
90
22
70
1
43
0.0
10
86.989788000000004
20
-47.817358299134582
10
86.989788000000004
20
-43.495000000000005
10
86.989788000000004
20
24.991537405478603
10
82.066904542504986
20
24.991537405478603
10
82.075086748759276
20
68.084756177444973
10
86.99286872568041
20
68.083822427133555
10
86.995949451360843
20
78.864999999999966
10
81.545000000000016
20
78.864999999999966
10
16.911840102087616
20
78.864999999999981
10
16.911840102087609
20
77.364999999999981
10
-6.9359125345509289
20
77.364999999999981
10
-6.9359125345509298
20
79.179168527043544
10
-80.563748000469786
20
53.122464961217268
42
0.32201427583003317
10
-86.925003746471788
20
44.242925862885727
10
-86.995384424950416
20
-24.477797755845458
10
-84.701753559978812
20
-39.668573847535676
42
0.32691139267108604
10
-77.506437555245284
20
-47.764757032181748
10
-48.106338070921943
20
-54.694999999999993
10
-33.091782623469264
20
-54.695
10
-30.156782623469258
20
-51.695
10
5.240417350808535
20
-51.695
10
54.67151820384202
20
-80.10716437861052
0
CIRCLE
5
101
100
AcDbEntity
8
0
100
AcDbCircle
10
8.8350000000000115
20
68.605000000000004
30
0
40
2.5000000000000004
210
0
220
0
230
1
0
CIRCLE
5
102
100
AcDbEntity
8
0
100
AcDbCircle
10
-10.834999999999992
20
68.605000000000004
30
0
40
2.5
210
0
220
0
230
1
0
CIRCLE
5
103
100
AcDbEntity
8
0
100
AcDbCircle
10
-75.365000000000038
20
-39.094999999999992
30
0
40
2.5000000000000018
210
0
220
0
230
1
0
CIRCLE
5
104
100
AcDbEntity
8
0
100
AcDbCircle
10
-77.944999999999979
20
44.475000000000016
30
0
40
2.5000000000000018
210
0
220
0
230
1
0
CIRCLE
5
105
100
AcDbEntity
8
0
100
AcDbCircle
10
79.515000000000015
20
71.555000000000021
30
0
40
2.000000000000004
210
0
220
0
230
1
0
CIRCLE
5
106
100
AcDbEntity
8
0
100
AcDbCircle
10
75.97499999999998
20
-38.835000000000008
30
0
40
2.5000000000000018
210
0
220
0
230
1
0
CIRCLE
5
107
100
AcDbEntity
8
0
100
AcDbCircle
10
37.464999999999996
20
-61.105000000000011
30
0
40
1.4499999999999988
210
0
220
0
230
1
0
CIRCLE
5
108
100
AcDbEntity
8
0
100
AcDbCircle
10
50.64500000000001
20
-48.245000000000019
30
0
40
1.4500000000000033
210
0
220
0
230
1
0
CIRCLE
5
109
100
AcDbEntity
8
0
100
AcDbCircle
10
-85.000001266598701
20
40.000000596046455
30
0
40
1.4999999999999958
210
0
220
0
230
1
0
CIRCLE
5
110
100
AcDbEntity
8
0
100
AcDbCircle
10
-10.000000149011603
20
76.000001132488251
30
0
40
1.4999999999999993
210
0
220
0
230
1
0
CIRCLE
5
111
100
AcDbEntity
8
0
100
AcDbCircle
10
20.000000298023231
20
77.000001147389412
30
0
40
1.5000000000000016
210
0
220
0
230
1
0
CIRCLE
5
112
100
AcDbEntity
8
0
100
AcDbCircle
10
85.000001266598701
20
71.000001057982431
30
0
40
1.4999999999999993
210
0
220
0
230
1
0
CIRCLE
5
113
100
AcDbEntity
8
0
100
AcDbCircle
10
84.500001259148135
20
77.000001147389398
30
0
40
1.499999999999996
210
0
220
0
230
1
0
CIRCLE
5
114
100
AcDbEntity
8
0
100
AcDbCircle
10
84.989788000000004
20
22.037947467798062
30
0
40
1.4999999999999991
210
0
220
0
230
1
0
CIRCLE
5
115
100
AcDbEntity
8
0
100
AcDbCircle
10
85.000001266598701
20
-30.000000447034843
30
0
40
1.5000000000000033
210
0
220
0
230
1
0
CIRCLE
5
116
100
AcDbEntity
8
0
100
AcDbCircle
10
72.000001072883592
20
-60.000000894069679
30
0
40
1.4999999999999989
210
0
220
0
230
1
0
CIRCLE
5
117
100
AcDbEntity
8
0
100
AcDbCircle
10
-12.76563652726608
20
-49.781779307175142
30
0
40
1.5000000000000011
210
0
220
0
230
1
0
CIRCLE
5
118
100
AcDbEntity
8
0
100
AcDbCircle
10
-63.000000938773162
20
-49.000000730156891
30
0
40
1.4999999999999993
210
0
220
0
230
1
0
CIRCLE
5
119
100
AcDbEntity
8
0
100
AcDbCircle
10
-85.000001266598701
20
-24.000000357627862
30
0
40
1.4999999999999991
210
0
220
0
230
1
0
ENDSEC
0
SECTION
2
OBJECTS
0
DICTIONARY
5
C
100
AcDbDictionary
3
ACAD_GROUP
350
D
3
ACAD_MLINESTYLE
350
17
0
DICTIONARY
5
D
100
AcDbDictionary
0
DICTIONARY
5
1A
330
C
100
AcDbDictionary
0
DICTIONARY
5
17
100
AcDbDictionary
0
ENDSEC
0
EOF
