0
SECTION
2
HEADER
9
$INSUNITS
70
4
9
$ACADVER
1
AC1014
9
$HANDSEED
5
FFFF
0
ENDSEC
0
SECTION
2
TABLES
0
TABLE
2
VPORT
5
8
100
AcDbSymbolTable
0
ENDTAB
0
TABLE
2
LTYPE
5
5
100
AcDbSymbolTable
0
LTYPE
5
14
100
AcDbSymbolTableRecord
100
AcDbLinetypeTableRecord
2
BYBLOCK
70
0
0
LTYPE
5
15
100
AcDbSymbolTableRecord
100
AcDbLinetypeTableRecord
2
BYLAYER
70
0
0
ENDTAB
0
TABLE
2
LAYER
5
2
100
AcDbSymbolTable
70
2
0
LAYER
5
50
100
AcDbSymbolTableRecord
100
AcDbLayerTableRecord
2
0
70
0
6
CONTINUOUS
0
ENDTAB
0
TABLE
2
STYLE
5
3
100
AcDbSymbolTable
70
1
0
STYLE
5
11
100
AcDbSymbolTableRecord
100
AcDbTextStyleTableRecord
2
STANDARD
70
0
0
ENDTAB
0
TABLE
2
VIEW
5
6
100
AcDbSymbolTable
70
0
0
ENDTAB
0
TABLE
2
UCS
5
7
100
AcDbSymbolTable
70
0
0
ENDTAB
0
TABLE
2
APPID
5
9
100
AcDbSymbolTable
70
2
0
APPID
5
12
100
AcDbSymbolTableRecord
100
AcDbRegAppTableRecord
2
ACAD
70
0
0
ENDTAB
0
TABLE
2
DIMSTYLE
5
A
100
AcDbSymbolTable
70
1
0
ENDTAB
0
TABLE
2
BLOCK_RECORD
5
1
100
AcDbSymbolTable
70
1
0
BLOCK_RECORD
5
1F
100
AcDbSymbolTableRecord
100
AcDbBlockTableRecord
2
*MODEL_SPACE
0
BLOCK_RECORD
5
1B
100
AcDbSymbolTableRecord
100
AcDbBlockTableRecord
2
*PAPER_SPACE
0
ENDTAB
0
ENDSEC
0
SECTION
2
BLOCKS
0
BLOCK
5
20
100
AcDbEntity
100
AcDbBlockBegin
2
*MODEL_SPACE
0
ENDBLK
5
21
100
AcDbEntity
100
AcDbBlockEnd
0
BLOCK
5
1C
100
AcDbEntity
100
AcDbBlockBegin
2
*PAPER_SPACE
0
ENDBLK
5
1D
100
AcDbEntity
100
AcDbBlockEnd
0
ENDSEC
0
SECTION
2
ENTITIES
0
LWPOLYLINE
5
100
100
AcDbEntity
8
0
100
AcDbPolyline
90
9
70
1
43
0.0
10
184.25240503526896
20
-59.416724847878122
10
148.94240503526891
20
-59.416724847878122
10
148.6564050352689
20
-59.406724847878117
10
148.6564050352689
20
-64.416724847878129
10
184.25240503526896
20
-64.416724847878129
10
215.67240503526904
20
-64.416724847878129
10
215.98740503526901
20
-64.416724847878129
10
215.98740503526901
20
-59.416724847878122
10
215.67240503526904
20
-59.416724847878122
0
LINE
5
101
100
AcDbEntity
8
0
100
AcDbLine
10
276.92240503526909
20
-28.671785198344516
30
0
11
276.99240503526914
21
39.678214801655514
31
0
0
LINE
5
102
100
AcDbEntity
8
0
100
AcDbLine
10
108.01240503526884
20
-26.966724847878112
30
0
11
108.01240503526884
21
-32.679221847878111
31
0
0
LINE
5
103
100
AcDbEntity
8
0
100
AcDbLine
10
136.15240503526891
20
89.440775152121887
30
0
11
108.00761703526882
21
61.320775152121897
31
0
0
LINE
5
104
100
AcDbEntity
8
0
100
AcDbLine
10
276.92240503526909
20
-38.661724847878112
30
0
11
276.92240503526909
21
-28.671785198344516
31
0
0
LINE
5
105
100
AcDbEntity
8
0
100
AcDbLine
10
108.00761703526882
20
61.320775152121897
30
0
11
108.00761703526882
21
59.070775152121882
31
0
0
LINE
5
106
100
AcDbEntity
8
0
100
AcDbLine
10
135.3259052865769
20
95.682957969628376
30
0
11
103.00761703526882
21
63.39313345125646
31
0
0
LINE
5
107
100
AcDbEntity
8
0
100
AcDbLine
10
238.01722091407811
20
70.2707751521219
30
0
11
225.19240503526902
21
70.2707751521219
31
0
0
LINE
5
108
100
AcDbEntity
8
0
100
AcDbLine
10
252.13959650350841
20
-64.416724847878129
30
0
11
273.91658963196647
21
-55.664211242053881
31
0
0
CIRCLE
5
109
100
AcDbEntity
8
0
100
AcDbCircle
10
100.87555322058759
20
27.79082839995198
30
0
40
1.1000000000000019
210
0
220
-0
230
1
0
LINE
5
110
100
AcDbEntity
8
0
100
AcDbLine
10
271.92240503526909
20
-38.661724847878112
30
0
11
271.92240503526909
21
-28.669224847878112
31
0
0
LINE
5
111
100
AcDbEntity
8
0
100
AcDbLine
10
225.19240503526902
20
65.2707751521219
30
0
11
178.50240503526894
21
65.2707751521219
31
0
0
LINE
5
112
100
AcDbEntity
8
0
100
AcDbLine
10
108.00761703526882
20
26.170775152121895
30
0
11
108.00761703526882
21
25.760775152121891
31
0
0
LINE
5
113
100
AcDbEntity
8
0
100
AcDbLine
10
276.99240503526909
20
62.480261122675827
30
0
11
238.01722091407811
21
70.2707751521219
31
0
0
LINE
5
114
100
AcDbEntity
8
0
100
AcDbLine
10
225.19240503526902
20
70.2707751521219
30
0
11
179.53700530627688
21
70.2707751521219
31
0
0
LINE
5
115
100
AcDbEntity
8
0
100
AcDbLine
10
108.00761703526882
20
59.070775152121882
30
0
11
108.00761703526882
21
28.270775152121889
31
0
0
LINE
5
116
100
AcDbEntity
8
0
100
AcDbLine
10
98.934905035268827
20
-26.966724847878112
30
0
11
98.934905035268827
21
-31.966724847878112
31
0
0
LINE
5
117
100
AcDbEntity
8
0
100
AcDbLine
10
251.17240503526904
20
-59.416724847878122
30
0
11
271.7924050352691
21
-51.129224847878106
31
0
0
LWPOLYLINE
5
118
100
AcDbEntity
8
0
100
AcDbPolyline
90
9
70
1
43
0.0
10
108.2040688088189
20
-64.416724847878129
10
103.01240503526884
20
-64.503252577437081
10
103.01240503526884
20
-51.036192179112874
10
108.01240503526884
20
-51.036192179112874
10
108.01240503526884
20
-59.419224847878112
10
108.16240503526885
20
-59.416724847878122
10
112.70240503526885
20
-59.416724847878122
10
121.22220938371028
20
-59.416724847878122
10
121.22220938371028
20
-64.416724847878129
0
LINE
5
119
100
AcDbEntity
8
0
100
AcDbLine
10
271.99240503526909
20
52.258275152121897
30
0
11
271.99240503526909
21
53.840775152121893
31
0
0
LINE
5
120
100
AcDbEntity
8
0
100
AcDbLine
10
107.57240503526884
20
-26.966724847878112
30
0
11
108.01240503526884
21
-26.966724847878112
31
0
0
LINE
5
121
100
AcDbEntity
8
0
100
AcDbLine
10
276.99240503526909
20
53.840775152121893
30
0
11
276.99240503526909
21
62.480261122675827
31
0
0
LINE
5
122
100
AcDbEntity
8
0
100
AcDbLine
10
98.934905035268827
20
-31.966724847878112
30
0
11
103.01240503526884
21
-31.966724847878112
31
0
0
LINE
5
123
100
AcDbEntity
8
0
100
AcDbLine
10
276.99240503526914
20
39.678214801655514
30
0
11
276.99240503526909
21
52.258275152121918
31
0
0
LINE
5
124
100
AcDbEntity
8
0
100
AcDbLine
10
276.92240503527012
20
-54.045695255660107
30
0
11
276.92240503526909
21
-50.949224847876508
31
0
0
LINE
5
125
100
AcDbEntity
8
0
100
AcDbLine
10
271.92240503526915
20
-51.05922484787812
30
0
11
271.92240503526909
21
-50.949224847878121
31
0
0
LINE
5
126
100
AcDbEntity
8
0
100
AcDbLine
10
98.934905035268827
20
-26.966724847878112
30
0
11
107.57240503526884
21
-26.966724847878112
31
0
0
LINE
5
127
100
AcDbEntity
8
0
100
AcDbLine
10
178.34240503526894
20
65.2707751521219
30
0
11
178.20240503526895
21
65.2707751521219
31
0
0
LINE
5
128
100
AcDbEntity
8
0
100
AcDbLine
10
271.99240503526909
20
53.840775152121893
30
0
11
271.99240503526909
21
58.380775152121899
31
0
0
LINE
5
129
100
AcDbEntity
8
0
100
AcDbLine
10
271.92240503526909
20
-50.949224847878121
30
0
11
271.92240503526909
21
-38.661724847878112
31
0
0
LINE
5
130
100
AcDbEntity
8
0
100
AcDbLine
10
178.50240503526894
20
65.2707751521219
30
0
11
178.34240503526894
21
65.2707751521219
31
0
0
LINE
5
131
100
AcDbEntity
8
0
100
AcDbLine
10
276.92240503526909
20
-50.949224847876508
30
0
11
276.92240503526909
21
-38.661724847878112
31
0
0
LINE
5
132
100
AcDbEntity
8
0
100
AcDbLine
10
178.20240503526895
20
65.2707751521219
30
0
11
136.15240503526891
21
89.440775152121887
31
0
0
LINE
5
133
100
AcDbEntity
8
0
100
AcDbLine
10
179.53700530627688
20
70.2707751521219
30
0
11
135.3259052865769
21
95.682957969628376
31
0
0
LINE
5
134
100
AcDbEntity
8
0
100
AcDbLine
10
273.91658963196647
20
-55.664211242053881
30
0
11
276.92240503527012
21
-54.045695255660107
31
0
0
LINE
5
135
100
AcDbEntity
8
0
100
AcDbLine
10
103.00761703526882
20
30.760775152121891
30
0
11
98.961337223403348
21
30.760775152121891
31
0
0
LINE
5
136
100
AcDbEntity
8
0
100
AcDbLine
10
108.00761703526882
20
28.270775152121889
30
0
11
108.00761703526882
21
26.170775152121895
31
0
0
CIRCLE
5
137
100
AcDbEntity
8
0
100
AcDbCircle
10
256.00000381469721
20
64.000000953674302
30
0
40
1.1000000000000019
210
0
220
-0
230
1
0
LINE
5
138
100
AcDbEntity
8
0
100
AcDbLine
10
271.92240503526909
20
-28.669224847878112
30
0
11
271.99240503526914
21
39.680775152121896
31
0
0
LINE
5
139
100
AcDbEntity
8
0
100
AcDbLine
10
271.99240503526914
20
39.680775152121896
30
0
11
271.99240503526909
21
52.258275152121897
31
0
0
LINE
5
140
100
AcDbEntity
8
0
100
AcDbLine
10
103.01240503526884
20
-31.966724847878112
30
0
11
103.01240503526884
21
-32.679221847878111
31
0
0
LINE
5
141
100
AcDbEntity
8
0
100
AcDbLine
10
108.00761703526882
20
25.760775152121891
30
0
11
101.03240503526882
21
25.760775152121891
31
0
0
LINE
5
142
100
AcDbEntity
8
0
100
AcDbLine
10
103.00761703526882
20
59.070775152121882
30
0
11
103.00761703526882
21
30.760775152121891
31
0
0
LINE
5
143
100
AcDbEntity
8
0
100
AcDbLine
10
98.934905035268841
20
23.663275152121894
30
0
11
98.961337223403348
21
30.760775152121891
31
0
0
LINE
5
144
100
AcDbEntity
8
0
100
AcDbLine
10
237.52240503526906
20
65.2707751521219
30
0
11
225.19240503526902
21
65.2707751521219
31
0
0
LINE
5
145
100
AcDbEntity
8
0
100
AcDbLine
10
271.99240503526909
20
58.380775152121899
30
0
11
237.52240503526906
21
65.2707751521219
31
0
0
LINE
5
146
100
AcDbEntity
8
0
100
AcDbLine
10
103.00761703526882
20
63.39313345125646
30
0
11
103.00761703526882
21
59.070775152121882
31
0
0
CIRCLE
5
147
100
AcDbEntity
8
0
100
AcDbCircle
10
274.5560692320563
20
5.2434752713530077
30
0
40
1.1000000000000019
210
0
220
-0
230
1
0
LINE
5
148
100
AcDbEntity
8
0
100
AcDbLine
10
228.04740503526901
20
-59.416724847878122
30
0
11
251.17240503526904
21
-59.416724847878122
31
0
0
LINE
5
149
100
AcDbEntity
8
0
100
AcDbLine
10
101.03240503526882
20
25.760775152121891
30
0
11
98.934905035268841
21
23.663275152121894
31
0
0
LINE
5
150
100
AcDbEntity
8
0
100
AcDbLine
10
271.7924050352691
20
-51.129224847878106
30
0
11
271.92240503526915
21
-51.05922484787812
31
0
0
CIRCLE
5
151
100
AcDbEntity
8
0
100
AcDbCircle
10
105.50000157207251
20
-62.000000923871994
30
0
40
1.1000000000000019
210
0
220
-0
230
1
0
LINE
5
152
100
AcDbEntity
8
0
100
AcDbLine
10
276.99240503526909
20
52.258275152121918
30
0
11
276.99240503526909
21
53.840775152121893
31
0
0
CIRCLE
5
153
100
AcDbEntity
8
0
100
AcDbCircle
10
119.88876659822247
20
76.577348992618525
30
0
40
1.1000000000000019
210
0
220
-0
230
1
0
CIRCLE
5
154
100
AcDbEntity
8
0
100
AcDbCircle
10
207.49945334601276
20
67.595293132654206
30
0
40
1.1000000000000019
210
0
220
-0
230
1
0
CIRCLE
5
155
100
AcDbEntity
8
0
100
AcDbCircle
10
105.48075829728427
20
44.223022678270176
30
0
40
1.1000000000000019
210
0
220
-0
230
1
0
CIRCLE
5
156
100
AcDbEntity
8
0
100
AcDbCircle
10
160.27393140624767
20
78.561155197514466
30
0
40
1.1000000000000019
210
0
220
-0
230
1
0
CIRCLE
5
157
100
AcDbEntity
8
0
100
AcDbCircle
10
101.53394716669382
20
-29.632775785646892
30
0
40
1.1000000000000019
210
0
220
-0
230
1
0
CIRCLE
5
158
100
AcDbEntity
8
0
100
AcDbCircle
10
263.37702650846433
20
-57.371246711103581
30
0
40
1.1000000000000019
210
0
220
-0
230
1
0
CIRCLE
5
159
100
AcDbEntity
8
0
100
AcDbCircle
10
231.96443128952708
20
-62.05139984415041
30
0
40
1.1000000000000019
210
0
220
-0
230
1
0
CIRCLE
5
160
100
AcDbEntity
8
0
100
AcDbCircle
10
212.46443128952708
20
-62.05139984415041
30
0
40
1.1000000000000019
210
0
220
-0
230
1
0
LINE
5
161
100
AcDbEntity
8
0
100
AcDbLine
10
228.04740503526901
20
-59.416724847878122
30
0
11
228.04740503526901
21
-64.416724847878129
31
0
0
LINE
5
162
100
AcDbEntity
8
0
100
AcDbLine
10
228.04740503526901
20
-64.416724847878129
30
0
11
252.13959650350841
21
-64.416724847878129
31
0
0
CIRCLE
5
163
100
AcDbEntity
8
0
100
AcDbCircle
10
119.0000013113023
20
-62.000000923872093
30
0
40
1.1000000000000019
210
0
220
-0
230
1
0
CIRCLE
5
164
100
AcDbEntity
8
0
100
AcDbCircle
10
152.00000156462198
20
-62.000000923872037
30
0
40
1.1000000000000019
210
0
220
-0
230
1
0
LINE
5
165
100
AcDbEntity
8
0
100
AcDbLine
10
103.01240503526884
20
-39.054582953863715
30
1.4919933569224508e-47
11
108.01240503526884
21
-39.054582953863715
31
1.4919933569224508e-47
0
LINE
5
166
100
AcDbEntity
8
0
100
AcDbLine
10
103.01240503526884
20
-32.679221847878111
30
0
11
103.01240503526884
21
-39.054582953863715
31
1.4919933569224508e-47
0
LINE
5
167
100
AcDbEntity
8
0
100
AcDbLine
10
108.01240503526884
20
-32.679221847878111
30
0
11
108.01240503526884
21
-39.054582953863715
31
1.4919933569224508e-47
0
CIRCLE
5
168
100
AcDbEntity
8
0
100
AcDbCircle
10
105.53394716669382
20
-36.632775785646892
30
0
40
1.1000000000000019
210
0
220
-0
230
1
0
CIRCLE
5
169
100
AcDbEntity
8
0
100
AcDbCircle
10
105.53394716669382
20
-53.632775785646899
30
0
40
1.1000000000000019
210
0
220
-0
230
1
0
ENDSEC
0
SECTION
2
OBJECTS
0
DICTIONARY
5
C
100
AcDbDictionary
3
ACAD_GROUP
350
D
3
ACAD_MLINESTYLE
350
17
0
DICTIONARY
5
D
100
AcDbDictionary
0
DICTIONARY
5
1A
330
C
100
AcDbDictionary
0
DICTIONARY
5
17
100
AcDbDictionary
0
ENDSEC
0
EOF
