0
SECTION
2
HEADER
9
$INSUNITS
70
4
9
$ACADVER
1
AC1014
9
$HANDSEED
5
FFFF
0
ENDSEC
0
SECTION
2
TABLES
0
TABLE
2
VPORT
5
8
100
AcDbSymbolTable
0
ENDTAB
0
TABLE
2
LTYPE
5
5
100
AcDbSymbolTable
0
LTYPE
5
14
100
AcDbSymbolTableRecord
100
AcDbLinetypeTableRecord
2
BYBLOCK
70
0
0
LTYPE
5
15
100
AcDbSymbolTableRecord
100
AcDbLinetypeTableRecord
2
BYLAYER
70
0
0
ENDTAB
0
TABLE
2
LAYER
5
2
100
AcDbSymbolTable
70
2
0
LAYER
5
50
100
AcDbSymbolTableRecord
100
AcDbLayerTableRecord
2
0
70
0
6
CONTINUOUS
0
ENDTAB
0
TABLE
2
STYLE
5
3
100
AcDbSymbolTable
70
1
0
STYLE
5
11
100
AcDbSymbolTableRecord
100
AcDbTextStyleTableRecord
2
STANDARD
70
0
0
ENDTAB
0
TABLE
2
VIEW
5
6
100
AcDbSymbolTable
70
0
0
ENDTAB
0
TABLE
2
UCS
5
7
100
AcDbSymbolTable
70
0
0
ENDTAB
0
TABLE
2
APPID
5
9
100
AcDbSymbolTable
70
2
0
APPID
5
12
100
AcDbSymbolTableRecord
100
AcDbRegAppTableRecord
2
ACAD
70
0
0
ENDTAB
0
TABLE
2
DIMSTYLE
5
A
100
AcDbSymbolTable
70
1
0
ENDTAB
0
TABLE
2
BLOCK_RECORD
5
1
100
AcDbSymbolTable
70
1
0
BLOCK_RECORD
5
1F
100
AcDbSymbolTableRecord
100
AcDbBlockTableRecord
2
*MODEL_SPACE
0
BLOCK_RECORD
5
1B
100
AcDbSymbolTableRecord
100
AcDbBlockTableRecord
2
*PAPER_SPACE
0
ENDTAB
0
ENDSEC
0
SECTION
2
BLOCKS
0
BLOCK
5
20
100
AcDbEntity
100
AcDbBlockBegin
2
*MODEL_SPACE
0
ENDBLK
5
21
100
AcDbEntity
100
AcDbBlockEnd
0
BLOCK
5
1C
100
AcDbEntity
100
AcDbBlockBegin
2
*PAPER_SPACE
0
ENDBLK
5
1D
100
AcDbEntity
100
AcDbBlockEnd
0
ENDSEC
0
SECTION
2
ENTITIES
0
LINE
5
100
100
AcDbEntity
8
0
100
AcDbLine
10
35.195
20
49.695
30
0
11
32.259999999999998
21
46.695
31
0
0
LINE
5
101
100
AcDbEntity
8
0
100
AcDbLine
10
-81.989788000000004
20
45.744999999999997
30
0
11
-81.989788000000004
21
43.494999999999997
31
0
0
LINE
5
102
100
AcDbEntity
8
0
100
AcDbLine
10
-81.989788000000004
20
-46.414964000000005
30
0
11
-81.995000000000005
21
-73.864999999999995
31
0
0
LINE
5
103
100
AcDbEntity
8
0
100
AcDbLine
10
-81.995000000000005
20
-73.864999999999995
30
0
11
-81.545000000000002
21
-73.864999999999995
31
0
0
LINE
5
104
100
AcDbEntity
8
0
100
AcDbLine
10
-5.0950000000000006
20
-73.864999999999995
30
0
11
-5.0949999999999998
21
-72.364999999999995
31
0
0
LINE
5
105
100
AcDbEntity
8
0
100
AcDbLine
10
-5.0949999999999998
20
-72.364999999999995
30
0
11
6.9649999999999999
21
-72.364999999999995
31
0
0
LINE
5
106
100
AcDbEntity
8
0
100
AcDbLine
10
6.9649999999999999
20
-72.364999999999995
30
0
11
6.9649999999999999
21
-73.864999999999995
31
0
0
ARC
5
107
100
AcDbEntity
8
0
100
AcDbCircle
10
77.56546400000002
20
-44.256155
30
0
40
4.3595490957552734
210
-0
220
0
230
1
100
AcDbArc
50
-71.690717923557131
51
0.14660577919662099
0
CIRCLE
5
108
100
AcDbEntity
8
0
100
AcDbCircle
10
75.365000000000009
20
39.094999999999999
30
0
40
1.6000000000000003
210
0
220
0
230
1
0
CIRCLE
5
109
100
AcDbEntity
8
0
100
AcDbCircle
10
-37.465000000000003
20
61.105000000000004
30
0
40
1.1000000000000001
210
0
220
0
230
1
0
CIRCLE
5
110
100
AcDbEntity
8
0
100
AcDbCircle
10
-50.64500000000001
20
48.245000000000005
30
0
40
1.1000000000000001
210
0
220
0
230
1
0
CIRCLE
5
111
100
AcDbEntity
8
0
100
AcDbCircle
10
-75.974999999999994
20
38.835000000000001
30
0
40
1.6000000000000003
210
0
220
0
230
1
0
CIRCLE
5
112
100
AcDbEntity
8
0
100
AcDbCircle
10
77.944999999999993
20
-44.475000000000009
30
0
40
1.6000000000000003
210
0
220
0
230
1
0
CIRCLE
5
113
100
AcDbEntity
8
0
100
AcDbCircle
10
10.835000000000001
20
-68.605000000000004
30
0
40
1.6000000000000003
210
0
220
0
230
1
0
CIRCLE
5
114
100
AcDbEntity
8
0
100
AcDbCircle
10
-80.935000000000002
20
-28.895
30
0
40
0.59999999999999998
210
0
220
0
230
1
0
CIRCLE
5
115
100
AcDbEntity
8
0
100
AcDbCircle
10
-80.935000000000002
20
-30.645000000000003
30
0
40
0.59999999999999998
210
0
220
0
230
1
0
CIRCLE
5
116
100
AcDbEntity
8
0
100
AcDbCircle
10
-8.8350000000000009
20
-68.605000000000004
30
0
40
1.6000000000000003
210
0
220
0
230
1
0
LWPOLYLINE
5
117
100
AcDbEntity
8
0
100
AcDbPolyline
90
19
70
1
43
0.0
10
86.995384424950402
20
24.477797755845465
10
86.925003746471759
20
-44.242925862885727
42
-0.32201427583003239
10
80.563748000469801
20
-53.122464961217247
10
6.9359125345509387
20
-79.179168527043544
10
6.9359125345509396
20
-77.364999999999995
10
-5.0577381903094301
20
-77.364999999999995
10
-5.0577381903094398
20
-78.864999999999995
10
-81.545000000000002
20
-78.864999999999995
10
-86.995949451360843
20
-78.864999999999995
10
-86.989788000000004
20
-46.41448931936975
10
-86.989788000000004
20
43.494999999999997
10
-86.989788000000004
20
47.817358299134568
10
-54.671518203842027
20
80.10716437861052
10
-5.2404173508085439
20
51.695
10
30.156782623469255
20
51.695
10
33.091782623469257
20
54.695
10
48.106338070921922
20
54.695
10
77.50643755524527
20
47.764757032181762
42
-0.32691139267108643
10
84.701753559978783
20
39.668573847535676
0
CIRCLE
5
118
100
AcDbEntity
8
0
100
AcDbCircle
10
-79.515000000000001
20
-71.555000000000007
30
0
40
2.0000000000000036
210
0
220
0
230
1
0
CIRCLE
5
119
100
AcDbEntity
8
0
100
AcDbCircle
10
-8.8350000000000009
20
-68.605000000000004
30
0
40
2.5000000000000004
210
0
220
0
230
1
0
CIRCLE
5
120
100
AcDbEntity
8
0
100
AcDbCircle
10
10.835000000000001
20
-68.605000000000004
30
0
40
2.4999999999999996
210
0
220
0
230
1
0
CIRCLE
5
121
100
AcDbEntity
8
0
100
AcDbCircle
10
77.944999999999993
20
-44.475000000000009
30
0
40
2.5000000000000018
210
0
220
0
230
1
0
CIRCLE
5
122
100
AcDbEntity
8
0
100
AcDbCircle
10
75.365000000000009
20
39.094999999999999
30
0
40
2.5000000000000018
210
0
220
0
230
1
0
CIRCLE
5
123
100
AcDbEntity
8
0
100
AcDbCircle
10
-75.974999999999994
20
38.835000000000001
30
0
40
2.5000000000000018
210
0
220
0
230
1
0
CIRCLE
5
124
100
AcDbEntity
8
0
100
AcDbCircle
10
-50.64500000000001
20
48.245000000000005
30
0
40
1.4500000000000033
210
0
220
0
230
1
0
CIRCLE
5
125
100
AcDbEntity
8
0
100
AcDbCircle
10
-37.465000000000003
20
61.105000000000004
30
0
40
1.4499999999999988
210
0
220
0
230
1
0
ENDSEC
0
SECTION
2
OBJECTS
0
DICTIONARY
5
C
100
AcDbDictionary
3
ACAD_GROUP
350
D
3
ACAD_MLINESTYLE
350
17
0
DICTIONARY
5
D
100
AcDbDictionary
0
DICTIONARY
5
1A
330
C
100
AcDbDictionary
0
DICTIONARY
5
17
100
AcDbDictionary
0
ENDSEC
0
EOF
