%TF.GenerationSoftware,KiCad,Pcbnew,(6.0.0)*%
%TF.CreationDate,2021-12-27T00:33:36+08:00*%
%TF.ProjectId,TOP PLATE final,544f5020-504c-4415-9445-2066696e616c,rev?*%
%TF.SameCoordinates,Original*%
%TF.FileFunction,Legend,Top*%
%TF.FilePolarity,Positive*%
%FSLAX46Y46*%
G04 Gerber Fmt 4.6, Leading zero omitted, Abs format (unit mm)*
G04 Created by KiCad (PCBNEW (6.0.0)) date 2021-12-27 00:33:36*
%MOMM*%
%LPD*%
G01*
G04 APERTURE LIST*
%ADD10C,0.150000*%
G04 APERTURE END LIST*
D10*
%TO.C,DRILL12*%
X137098095Y-86472380D02*
X137098095Y-85472380D01*
X137336190Y-85472380D01*
X137479047Y-85520000D01*
X137574285Y-85615238D01*
X137621904Y-85710476D01*
X137669523Y-85900952D01*
X137669523Y-86043809D01*
X137621904Y-86234285D01*
X137574285Y-86329523D01*
X137479047Y-86424761D01*
X137336190Y-86472380D01*
X137098095Y-86472380D01*
X138669523Y-86472380D02*
X138336190Y-85996190D01*
X138098095Y-86472380D02*
X138098095Y-85472380D01*
X138479047Y-85472380D01*
X138574285Y-85520000D01*
X138621904Y-85567619D01*
X138669523Y-85662857D01*
X138669523Y-85805714D01*
X138621904Y-85900952D01*
X138574285Y-85948571D01*
X138479047Y-85996190D01*
X138098095Y-85996190D01*
X139098095Y-86472380D02*
X139098095Y-85472380D01*
X140050476Y-86472380D02*
X139574285Y-86472380D01*
X139574285Y-85472380D01*
X140860000Y-86472380D02*
X140383809Y-86472380D01*
X140383809Y-85472380D01*
X141717142Y-86472380D02*
X141145714Y-86472380D01*
X141431428Y-86472380D02*
X141431428Y-85472380D01*
X141336190Y-85615238D01*
X141240952Y-85710476D01*
X141145714Y-85758095D01*
X142098095Y-85567619D02*
X142145714Y-85520000D01*
X142240952Y-85472380D01*
X142479047Y-85472380D01*
X142574285Y-85520000D01*
X142621904Y-85567619D01*
X142669523Y-85662857D01*
X142669523Y-85758095D01*
X142621904Y-85900952D01*
X142050476Y-86472380D01*
X142669523Y-86472380D01*
%TD*%
M02*
