M48
; DRILL file {KiCad (6.0.0)} date Mon Dec 27 00:33:38 2021
; FORMAT={-:-/ absolute / metric / decimal}
; #@! TF.CreationDate,2021-12-27T00:33:38+08:00
; #@! TF.GenerationSoftware,Kicad,Pcbnew,(6.0.0)
; #@! TF.FileFunction,MixedPlating,1,2
FMAT,2
METRIC
; #@! TA.AperFunction,Plated,PTH,ComponentDrill
T1C0.500
; #@! TA.AperFunction,Plated,PTH,ComponentDrill
T2C2.200
; #@! TA.AperFunction,Plated,PTH,ComponentDrill
T3C3.200
; #@! TA.AperFunction,NonPlated,NPTH,ComponentDrill
T4C1.000
%
G90
G05
T1
X65.995Y-144.94
X66.12Y-41.47
X66.698Y-143.243
X66.698Y-146.637
X66.823Y-39.773
X66.823Y-43.167
X68.395Y-142.54
X68.395Y-147.34
X68.52Y-39.07
X68.52Y-43.87
X70.093Y-143.243
X70.093Y-146.637
X70.217Y-39.773
X70.217Y-43.167
X70.795Y-144.94
X70.92Y-41.47
X102.175Y-35.773
X102.878Y-34.075
X102.878Y-37.47
X104.575Y-33.372
X104.575Y-38.172
X106.272Y-34.075
X106.272Y-37.47
X106.975Y-35.773
X121.845Y-35.773
X122.548Y-34.075
X122.548Y-37.47
X124.245Y-33.372
X124.245Y-38.172
X125.942Y-34.075
X125.942Y-37.47
X126.645Y-35.773
X220.07Y-144.34
X220.773Y-142.643
X220.773Y-146.037
X222.47Y-141.94
X222.47Y-146.74
X224.167Y-142.643
X224.167Y-146.037
X224.87Y-144.34
T2
X139.86Y-88.92
X168.75Y-32.86
X168.75Y-56.12
X183.96Y-166.61
X197.14Y-153.75
X202.03Y-32.86
X202.03Y-56.14
X205.96Y-69.41
X206.72Y-113.837
X225.56Y-118.237
X225.79Y-60.758
X226.15Y-32.91
T3
X68.395Y-144.94
X68.52Y-41.47
X104.575Y-35.773
X124.245Y-35.773
X222.47Y-144.34
T4
X86.237Y-45.188
X86.237Y-46.788
X86.237Y-48.389
X86.237Y-49.988
X86.237Y-51.588
X87.623Y-44.389
X87.623Y-45.988
X87.623Y-47.588
X87.623Y-49.188
X87.623Y-50.788
X87.623Y-52.389
X89.009Y-43.588
X89.009Y-45.188
X89.009Y-46.788
X89.009Y-48.389
X89.009Y-49.988
X89.009Y-51.588
X89.009Y-53.188
X90.394Y-42.788
X90.394Y-44.389
X90.394Y-45.988
X90.394Y-47.588
X90.394Y-49.188
X90.394Y-50.788
X90.394Y-52.389
X90.394Y-53.988
X91.78Y-41.988
X91.78Y-43.588
X91.78Y-45.188
X91.78Y-46.788
X91.78Y-48.389
X91.78Y-49.988
X91.78Y-51.588
X91.78Y-53.188
X91.78Y-54.788
X93.166Y-42.788
X93.166Y-44.389
X93.166Y-45.988
X93.166Y-47.588
X93.166Y-49.188
X93.166Y-50.788
X93.166Y-52.389
X93.166Y-53.988
X94.551Y-43.588
X94.551Y-45.188
X94.551Y-46.788
X94.551Y-48.389
X94.551Y-49.988
X94.551Y-51.588
X94.551Y-53.188
X95.937Y-44.389
X95.937Y-45.988
X95.937Y-47.588
X95.937Y-49.188
X95.937Y-50.788
X95.937Y-52.389
X97.323Y-45.188
X97.323Y-46.788
X97.323Y-48.389
X97.323Y-49.988
X97.323Y-51.588
T0
M30
