%TF.GenerationSoftware,KiCad,Pcbnew,(6.0.0)*%
%TF.CreationDate,2021-12-27T00:33:36+08:00*%
%TF.ProjectId,TOP PLATE final,544f5020-504c-4415-9445-2066696e616c,rev?*%
%TF.SameCoordinates,Original*%
%TF.FileFunction,Soldermask,Top*%
%TF.FilePolarity,Negative*%
%FSLAX46Y46*%
G04 Gerber Fmt 4.6, Leading zero omitted, Abs format (unit mm)*
G04 Created by KiCad (PCBNEW (6.0.0)) date 2021-12-27 00:33:36*
%MOMM*%
%LPD*%
G01*
G04 APERTURE LIST*
G04 Aperture macros list*
%AMRoundRect*
0 Rectangle with rounded corners*
0 $1 Rounding radius*
0 $2 $3 $4 $5 $6 $7 $8 $9 X,Y pos of 4 corners*
0 Add a 4 corners polygon primitive as box body*
4,1,4,$2,$3,$4,$5,$6,$7,$8,$9,$2,$3,0*
0 Add four circle primitives for the rounded corners*
1,1,$1+$1,$2,$3*
1,1,$1+$1,$4,$5*
1,1,$1+$1,$6,$7*
1,1,$1+$1,$8,$9*
0 Add four rect primitives between the rounded corners*
20,1,$1+$1,$2,$3,$4,$5,0*
20,1,$1+$1,$4,$5,$6,$7,0*
20,1,$1+$1,$6,$7,$8,$9,0*
20,1,$1+$1,$8,$9,$2,$3,0*%
G04 Aperture macros list end*
%ADD10RoundRect,0.995400X-7.704600X-6.904600X7.704600X-6.904600X7.704600X6.904600X-7.704600X6.904600X0*%
%ADD11C,3.800000*%
%ADD12C,0.800000*%
%ADD13C,6.400000*%
%ADD14RoundRect,0.995400X-10.330264X0.565685X0.565685X-10.330264X10.330264X-0.565685X-0.565685X10.330264X0*%
%ADD15RoundRect,0.995400X-10.124679X-2.127259X3.220079X-9.831859X10.124679X2.127259X-3.220079X9.831859X0*%
%ADD16RoundRect,0.995400X-9.229114X-4.675234X5.655030X-8.663429X9.229114X4.675234X-5.655030X8.663429X0*%
%ADD17C,1.000000*%
G04 APERTURE END LIST*
D10*
%TO.C,SW32*%
X77487499Y-75792000D03*
%TD*%
%TO.C,SW10*%
X172737500Y-125798250D03*
%TD*%
D11*
%TO.C,DRILL11*%
X225560000Y-118237500D03*
%TD*%
D10*
%TO.C,SW18*%
X134637500Y-80554500D03*
%TD*%
D12*
%TO.C,DRILL4*%
X106272056Y-37469556D03*
X102175000Y-35772500D03*
X106272056Y-34075444D03*
X102877944Y-37469556D03*
X104575000Y-33372500D03*
X106975000Y-35772500D03*
X104575000Y-38172500D03*
D13*
X104575000Y-35772500D03*
D12*
X102877944Y-34075444D03*
%TD*%
D11*
%TO.C,DRILL10*%
X225790000Y-60757500D03*
%TD*%
D10*
%TO.C,SW9*%
X172737500Y-106748250D03*
%TD*%
D12*
%TO.C,DRILL7*%
X220772944Y-146037056D03*
X224167056Y-142642944D03*
X224167056Y-146037056D03*
X224870000Y-144340000D03*
X220070000Y-144340000D03*
D13*
X222470000Y-144340000D03*
D12*
X222470000Y-146740000D03*
X220772944Y-142642944D03*
X222470000Y-141940000D03*
%TD*%
D10*
%TO.C,SW26*%
X144290000Y-141928250D03*
%TD*%
%TO.C,SW12*%
X153687500Y-66267000D03*
%TD*%
D11*
%TO.C,DRILL16*%
X168750000Y-56120000D03*
%TD*%
D14*
%TO.C,SW6*%
X200401353Y-165761895D03*
%TD*%
D11*
%TO.C,DRILL13*%
X205960000Y-69410000D03*
%TD*%
D10*
%TO.C,SW22*%
X115587500Y-66267000D03*
%TD*%
%TO.C,SW25*%
X115587500Y-123417000D03*
%TD*%
%TO.C,SW29*%
X96537500Y-113892000D03*
%TD*%
%TO.C,SW1*%
X191787499Y-68648250D03*
%TD*%
D11*
%TO.C,DRILL14*%
X202030000Y-32860000D03*
%TD*%
D10*
%TO.C,SW20*%
X134637500Y-118654500D03*
%TD*%
%TO.C,SW24*%
X115587500Y-104367000D03*
%TD*%
%TO.C,SW13*%
X153687500Y-85317000D03*
%TD*%
%TO.C,SW3*%
X191787499Y-106748250D03*
%TD*%
%TO.C,SW17*%
X134637500Y-61504500D03*
%TD*%
D15*
%TO.C,SW11*%
X193454374Y-136624717D03*
%TD*%
D16*
%TO.C,SW21*%
X164747348Y-145177047D03*
%TD*%
D10*
%TO.C,SW14*%
X153687500Y-104367000D03*
%TD*%
%TO.C,SW35*%
X77487499Y-132942000D03*
%TD*%
%TO.C,SW8*%
X172737500Y-87698250D03*
%TD*%
D11*
%TO.C,DRILL17*%
X202030000Y-56140000D03*
%TD*%
D10*
%TO.C,SW28*%
X96537500Y-94842000D03*
%TD*%
D12*
%TO.C,DRILL5*%
X125942056Y-34075444D03*
X124245000Y-38172500D03*
X124245000Y-33372500D03*
X122547944Y-34075444D03*
D13*
X124245000Y-35772500D03*
D12*
X125942056Y-37469556D03*
X121845000Y-35772500D03*
X122547944Y-37469556D03*
X126645000Y-35772500D03*
%TD*%
D14*
%TO.C,SW4*%
X213871737Y-152291512D03*
%TD*%
D10*
%TO.C,SW23*%
X115587500Y-85317000D03*
%TD*%
%TO.C,SW34*%
X77487499Y-113891999D03*
%TD*%
D12*
%TO.C,DRILL3*%
X70920000Y-41470000D03*
X66120000Y-41470000D03*
X66822944Y-39772944D03*
D13*
X68520000Y-41470000D03*
D12*
X68520000Y-43870000D03*
X68520000Y-39070000D03*
X70217056Y-43167056D03*
X70217056Y-39772944D03*
X66822944Y-43167056D03*
%TD*%
D17*
%TO.C,BZ1*%
X91780000Y-53188500D03*
X93165641Y-53988500D03*
X89008719Y-49988500D03*
X89008719Y-46788500D03*
X86237439Y-51588500D03*
X91780000Y-46788500D03*
X86237439Y-49988500D03*
X91780000Y-48388500D03*
X93165641Y-44388500D03*
X90394360Y-53988500D03*
X86237439Y-46788500D03*
X94551281Y-46788500D03*
X91780000Y-41988500D03*
X94551281Y-53188500D03*
X89008719Y-45188500D03*
X90394360Y-45988500D03*
X87623079Y-47588500D03*
X89008719Y-53188500D03*
X91780000Y-51588500D03*
X89008719Y-43588500D03*
X87623079Y-52388500D03*
X91780000Y-43588500D03*
X90394360Y-42788500D03*
X93165641Y-50788500D03*
X87623079Y-44388500D03*
X95936922Y-47588500D03*
X95936922Y-52388500D03*
X94551281Y-49988500D03*
X97322562Y-49988500D03*
X89008719Y-48388500D03*
X87623079Y-45988500D03*
X91780000Y-49988500D03*
X94551281Y-43588500D03*
X95936922Y-45988500D03*
X93165641Y-49188500D03*
X93165641Y-47588500D03*
X90394360Y-49188500D03*
X95936922Y-44388500D03*
X93165641Y-45988500D03*
X87623079Y-50788500D03*
X97322562Y-45188500D03*
X87623079Y-49188500D03*
X90394360Y-50788500D03*
X91780000Y-54788500D03*
X95936922Y-49188500D03*
X90394360Y-52388500D03*
X91780000Y-45188500D03*
X94551281Y-48388500D03*
X94551281Y-45188500D03*
X90394360Y-47588500D03*
X97322562Y-46788500D03*
X95936922Y-50788500D03*
X90394360Y-44388500D03*
X93165641Y-52388500D03*
X89008719Y-51588500D03*
X86237439Y-45188500D03*
X93165641Y-42788500D03*
X86237439Y-48388500D03*
X94551281Y-51588500D03*
X97322562Y-48388500D03*
X97322562Y-51588500D03*
%TD*%
D10*
%TO.C,SW15*%
X153687500Y-123417000D03*
%TD*%
D11*
%TO.C,DRILL12*%
X139860000Y-88920000D03*
%TD*%
%TO.C,DRILL6*%
X226150000Y-32910000D03*
%TD*%
D10*
%TO.C,SW2*%
X191787499Y-87698250D03*
%TD*%
%TO.C,SW31*%
X125112500Y-142467000D03*
%TD*%
%TO.C,SW19*%
X134637500Y-99604500D03*
%TD*%
D11*
%TO.C,DRILL15*%
X168750000Y-32860000D03*
%TD*%
D10*
%TO.C,SW30*%
X96537500Y-132942000D03*
%TD*%
D12*
%TO.C,DRILL1*%
X65995500Y-144940000D03*
D13*
X68395500Y-144940000D03*
D12*
X66698444Y-143242944D03*
X68395500Y-147340000D03*
X68395500Y-142540000D03*
X70795500Y-144940000D03*
X70092556Y-146637056D03*
X70092556Y-143242944D03*
X66698444Y-146637056D03*
%TD*%
D15*
%TO.C,SW16*%
X183929374Y-153122500D03*
%TD*%
D10*
%TO.C,SW33*%
X77487499Y-94841999D03*
%TD*%
%TO.C,SW7*%
X172737500Y-68648250D03*
%TD*%
%TO.C,SW27*%
X96537500Y-75792000D03*
%TD*%
D11*
%TO.C,DRILL2*%
X206720000Y-113837500D03*
%TD*%
%TO.C,DRILL9*%
X183960000Y-166610000D03*
%TD*%
%TO.C,DRILL8*%
X197140000Y-153750000D03*
%TD*%
M02*
