G04 #@! TF.GenerationSoftware,KiCad,Pcbnew,(5.1.6)-1*
G04 #@! TF.CreationDate,2020-12-03T15:36:38+08:00*
G04 #@! TF.ProjectId,Alvaro,416c7661-726f-42e6-9b69-6361645f7063,rev?*
G04 #@! TF.SameCoordinates,Original*
G04 #@! TF.FileFunction,Legend,Top*
G04 #@! TF.FilePolarity,Positive*
%FSLAX46Y46*%
G04 Gerber Fmt 4.6, Leading zero omitted, Abs format (unit mm)*
G04 Created by KiCad (PCBNEW (5.1.6)-1) date 2020-12-03 15:36:38*
%MOMM*%
%LPD*%
G01*
G04 APERTURE LIST*
%ADD10C,0.080000*%
%ADD11C,0.120000*%
G04 APERTURE END LIST*
D10*
X27720000Y-31100000D02*
X28253333Y-31100000D01*
X27986666Y-31366666D02*
X27986666Y-30833333D01*
X28586666Y-31366666D02*
X28586666Y-30666666D01*
X28753333Y-30666666D01*
X28853333Y-30700000D01*
X28920000Y-30766666D01*
X28953333Y-30833333D01*
X28986666Y-30966666D01*
X28986666Y-31066666D01*
X28953333Y-31200000D01*
X28920000Y-31266666D01*
X28853333Y-31333333D01*
X28753333Y-31366666D01*
X28586666Y-31366666D01*
X29286666Y-31100000D02*
X29820000Y-31100000D01*
X23287297Y-54261991D02*
X23381578Y-54214851D01*
X23428719Y-54214851D01*
X23499429Y-54238421D01*
X23570140Y-54309132D01*
X23593710Y-54379842D01*
X23593710Y-54426983D01*
X23570140Y-54497693D01*
X23381578Y-54686255D01*
X22886603Y-54191280D01*
X23051595Y-54026289D01*
X23122306Y-54002719D01*
X23169446Y-54002719D01*
X23240157Y-54026289D01*
X23287297Y-54073429D01*
X23310867Y-54144140D01*
X23310867Y-54191280D01*
X23287297Y-54261991D01*
X23122306Y-54426983D01*
X23617280Y-53460603D02*
X23381578Y-53696306D01*
X23593710Y-53955578D01*
X23593710Y-53908438D01*
X23617280Y-53837727D01*
X23735132Y-53719876D01*
X23805842Y-53696306D01*
X23852983Y-53696306D01*
X23923693Y-53719876D01*
X24041544Y-53837727D01*
X24065115Y-53908438D01*
X24065115Y-53955578D01*
X24041544Y-54026289D01*
X23923693Y-54144140D01*
X23852983Y-54167710D01*
X23805842Y-54167710D01*
X23827000Y-52416666D02*
X23793666Y-52516666D01*
X23760333Y-52550000D01*
X23693666Y-52583333D01*
X23593666Y-52583333D01*
X23527000Y-52550000D01*
X23493666Y-52516666D01*
X23460333Y-52450000D01*
X23460333Y-52183333D01*
X24160333Y-52183333D01*
X24160333Y-52416666D01*
X24127000Y-52483333D01*
X24093666Y-52516666D01*
X24027000Y-52550000D01*
X23960333Y-52550000D01*
X23893666Y-52516666D01*
X23860333Y-52483333D01*
X23827000Y-52416666D01*
X23827000Y-52183333D01*
X23927000Y-53183333D02*
X23460333Y-53183333D01*
X24193666Y-53016666D02*
X23693666Y-52850000D01*
X23693666Y-53283333D01*
X23827000Y-49676666D02*
X23827000Y-49910000D01*
X23460333Y-50010000D02*
X23460333Y-49676666D01*
X24160333Y-49676666D01*
X24160333Y-50010000D01*
X24160333Y-50610000D02*
X24160333Y-50476666D01*
X24127000Y-50410000D01*
X24093666Y-50376666D01*
X23993666Y-50310000D01*
X23860333Y-50276666D01*
X23593666Y-50276666D01*
X23527000Y-50310000D01*
X23493666Y-50343333D01*
X23460333Y-50410000D01*
X23460333Y-50543333D01*
X23493666Y-50610000D01*
X23527000Y-50643333D01*
X23593666Y-50676666D01*
X23760333Y-50676666D01*
X23827000Y-50643333D01*
X23860333Y-50610000D01*
X23893666Y-50543333D01*
X23893666Y-50410000D01*
X23860333Y-50343333D01*
X23827000Y-50310000D01*
X23760333Y-50276666D01*
X23460333Y-47357333D02*
X24160333Y-47357333D01*
X24160333Y-47524000D01*
X24127000Y-47624000D01*
X24060333Y-47690666D01*
X23993666Y-47724000D01*
X23860333Y-47757333D01*
X23760333Y-47757333D01*
X23627000Y-47724000D01*
X23560333Y-47690666D01*
X23493666Y-47624000D01*
X23460333Y-47524000D01*
X23460333Y-47357333D01*
X24160333Y-47990666D02*
X24160333Y-48457333D01*
X23460333Y-48157333D01*
X23527000Y-44963333D02*
X23493666Y-44930000D01*
X23460333Y-44830000D01*
X23460333Y-44763333D01*
X23493666Y-44663333D01*
X23560333Y-44596666D01*
X23627000Y-44563333D01*
X23760333Y-44530000D01*
X23860333Y-44530000D01*
X23993666Y-44563333D01*
X24060333Y-44596666D01*
X24127000Y-44663333D01*
X24160333Y-44763333D01*
X24160333Y-44830000D01*
X24127000Y-44930000D01*
X24093666Y-44963333D01*
X24160333Y-45563333D02*
X24160333Y-45430000D01*
X24127000Y-45363333D01*
X24093666Y-45330000D01*
X23993666Y-45263333D01*
X23860333Y-45230000D01*
X23593666Y-45230000D01*
X23527000Y-45263333D01*
X23493666Y-45296666D01*
X23460333Y-45363333D01*
X23460333Y-45496666D01*
X23493666Y-45563333D01*
X23527000Y-45596666D01*
X23593666Y-45630000D01*
X23760333Y-45630000D01*
X23827000Y-45596666D01*
X23860333Y-45563333D01*
X23893666Y-45496666D01*
X23893666Y-45363333D01*
X23860333Y-45296666D01*
X23827000Y-45263333D01*
X23760333Y-45230000D01*
X23460333Y-42023333D02*
X24160333Y-42023333D01*
X24160333Y-42190000D01*
X24127000Y-42290000D01*
X24060333Y-42356666D01*
X23993666Y-42390000D01*
X23860333Y-42423333D01*
X23760333Y-42423333D01*
X23627000Y-42390000D01*
X23560333Y-42356666D01*
X23493666Y-42290000D01*
X23460333Y-42190000D01*
X23460333Y-42023333D01*
X23927000Y-43023333D02*
X23460333Y-43023333D01*
X24193666Y-42856666D02*
X23693666Y-42690000D01*
X23693666Y-43123333D01*
X23460333Y-39483333D02*
X24160333Y-39483333D01*
X24160333Y-39650000D01*
X24127000Y-39750000D01*
X24060333Y-39816666D01*
X23993666Y-39850000D01*
X23860333Y-39883333D01*
X23760333Y-39883333D01*
X23627000Y-39850000D01*
X23560333Y-39816666D01*
X23493666Y-39750000D01*
X23460333Y-39650000D01*
X23460333Y-39483333D01*
X24160333Y-40316666D02*
X24160333Y-40383333D01*
X24127000Y-40450000D01*
X24093666Y-40483333D01*
X24027000Y-40516666D01*
X23893666Y-40550000D01*
X23727000Y-40550000D01*
X23593666Y-40516666D01*
X23527000Y-40483333D01*
X23493666Y-40450000D01*
X23460333Y-40383333D01*
X23460333Y-40316666D01*
X23493666Y-40250000D01*
X23527000Y-40216666D01*
X23593666Y-40183333D01*
X23727000Y-40150000D01*
X23893666Y-40150000D01*
X24027000Y-40183333D01*
X24093666Y-40216666D01*
X24127000Y-40250000D01*
X24160333Y-40316666D01*
X23460333Y-36943333D02*
X24160333Y-36943333D01*
X24160333Y-37110000D01*
X24127000Y-37210000D01*
X24060333Y-37276666D01*
X23993666Y-37310000D01*
X23860333Y-37343333D01*
X23760333Y-37343333D01*
X23627000Y-37310000D01*
X23560333Y-37276666D01*
X23493666Y-37210000D01*
X23460333Y-37110000D01*
X23460333Y-36943333D01*
X23460333Y-38010000D02*
X23460333Y-37610000D01*
X23460333Y-37810000D02*
X24160333Y-37810000D01*
X24060333Y-37743333D01*
X23993666Y-37676666D01*
X23960333Y-37610000D01*
X24127000Y-34386666D02*
X24160333Y-34320000D01*
X24160333Y-34220000D01*
X24127000Y-34120000D01*
X24060333Y-34053333D01*
X23993666Y-34020000D01*
X23860333Y-33986666D01*
X23760333Y-33986666D01*
X23627000Y-34020000D01*
X23560333Y-34053333D01*
X23493666Y-34120000D01*
X23460333Y-34220000D01*
X23460333Y-34286666D01*
X23493666Y-34386666D01*
X23527000Y-34420000D01*
X23760333Y-34420000D01*
X23760333Y-34286666D01*
X23460333Y-34720000D02*
X24160333Y-34720000D01*
X23460333Y-35120000D01*
X24160333Y-35120000D01*
X23460333Y-35453333D02*
X24160333Y-35453333D01*
X24160333Y-35620000D01*
X24127000Y-35720000D01*
X24060333Y-35786666D01*
X23993666Y-35820000D01*
X23860333Y-35853333D01*
X23760333Y-35853333D01*
X23627000Y-35820000D01*
X23560333Y-35786666D01*
X23493666Y-35720000D01*
X23460333Y-35620000D01*
X23460333Y-35453333D01*
X24127000Y-31846666D02*
X24160333Y-31780000D01*
X24160333Y-31680000D01*
X24127000Y-31580000D01*
X24060333Y-31513333D01*
X23993666Y-31480000D01*
X23860333Y-31446666D01*
X23760333Y-31446666D01*
X23627000Y-31480000D01*
X23560333Y-31513333D01*
X23493666Y-31580000D01*
X23460333Y-31680000D01*
X23460333Y-31746666D01*
X23493666Y-31846666D01*
X23527000Y-31880000D01*
X23760333Y-31880000D01*
X23760333Y-31746666D01*
X23460333Y-32180000D02*
X24160333Y-32180000D01*
X23460333Y-32580000D01*
X24160333Y-32580000D01*
X23460333Y-32913333D02*
X24160333Y-32913333D01*
X24160333Y-33080000D01*
X24127000Y-33180000D01*
X24060333Y-33246666D01*
X23993666Y-33280000D01*
X23860333Y-33313333D01*
X23760333Y-33313333D01*
X23627000Y-33280000D01*
X23560333Y-33246666D01*
X23493666Y-33180000D01*
X23460333Y-33080000D01*
X23460333Y-32913333D01*
X23460333Y-29831333D02*
X24160333Y-29831333D01*
X24160333Y-29998000D01*
X24127000Y-30098000D01*
X24060333Y-30164666D01*
X23993666Y-30198000D01*
X23860333Y-30231333D01*
X23760333Y-30231333D01*
X23627000Y-30198000D01*
X23560333Y-30164666D01*
X23493666Y-30098000D01*
X23460333Y-29998000D01*
X23460333Y-29831333D01*
X24093666Y-30498000D02*
X24127000Y-30531333D01*
X24160333Y-30598000D01*
X24160333Y-30764666D01*
X24127000Y-30831333D01*
X24093666Y-30864666D01*
X24027000Y-30898000D01*
X23960333Y-30898000D01*
X23860333Y-30864666D01*
X23460333Y-30464666D01*
X23460333Y-30898000D01*
X23508333Y-27466666D02*
X23508333Y-26766666D01*
X23675000Y-26766666D01*
X23775000Y-26800000D01*
X23841666Y-26866666D01*
X23875000Y-26933333D01*
X23908333Y-27066666D01*
X23908333Y-27166666D01*
X23875000Y-27300000D01*
X23841666Y-27366666D01*
X23775000Y-27433333D01*
X23675000Y-27466666D01*
X23508333Y-27466666D01*
X24141666Y-26766666D02*
X24575000Y-26766666D01*
X24341666Y-27033333D01*
X24441666Y-27033333D01*
X24508333Y-27066666D01*
X24541666Y-27100000D01*
X24575000Y-27166666D01*
X24575000Y-27333333D01*
X24541666Y-27400000D01*
X24508333Y-27433333D01*
X24441666Y-27466666D01*
X24241666Y-27466666D01*
X24175000Y-27433333D01*
X24141666Y-27400000D01*
X35136667Y-27469666D02*
X34903334Y-27136333D01*
X34736667Y-27469666D02*
X34736667Y-26769666D01*
X35003334Y-26769666D01*
X35070001Y-26803000D01*
X35103334Y-26836333D01*
X35136667Y-26903000D01*
X35136667Y-27003000D01*
X35103334Y-27069666D01*
X35070001Y-27103000D01*
X35003334Y-27136333D01*
X34736667Y-27136333D01*
X35403334Y-27269666D02*
X35736667Y-27269666D01*
X35336667Y-27469666D02*
X35570001Y-26769666D01*
X35803334Y-27469666D01*
X35970001Y-26769666D02*
X36136667Y-27469666D01*
X36270001Y-26969666D01*
X36403334Y-27469666D01*
X36570001Y-26769666D01*
X35036666Y-29800000D02*
X34970000Y-29766666D01*
X34870000Y-29766666D01*
X34770000Y-29800000D01*
X34703333Y-29866666D01*
X34670000Y-29933333D01*
X34636666Y-30066666D01*
X34636666Y-30166666D01*
X34670000Y-30300000D01*
X34703333Y-30366666D01*
X34770000Y-30433333D01*
X34870000Y-30466666D01*
X34936666Y-30466666D01*
X35036666Y-30433333D01*
X35070000Y-30400000D01*
X35070000Y-30166666D01*
X34936666Y-30166666D01*
X35370000Y-30466666D02*
X35370000Y-29766666D01*
X35770000Y-30466666D01*
X35770000Y-29766666D01*
X36103333Y-30466666D02*
X36103333Y-29766666D01*
X36270000Y-29766666D01*
X36370000Y-29800000D01*
X36436666Y-29866666D01*
X36470000Y-29933333D01*
X36503333Y-30066666D01*
X36503333Y-30166666D01*
X36470000Y-30300000D01*
X36436666Y-30366666D01*
X36370000Y-30433333D01*
X36270000Y-30466666D01*
X36103333Y-30466666D01*
X36539666Y-32763333D02*
X36206333Y-32996666D01*
X36539666Y-33163333D02*
X35839666Y-33163333D01*
X35839666Y-32896666D01*
X35873000Y-32830000D01*
X35906333Y-32796666D01*
X35973000Y-32763333D01*
X36073000Y-32763333D01*
X36139666Y-32796666D01*
X36173000Y-32830000D01*
X36206333Y-32896666D01*
X36206333Y-33163333D01*
X36506333Y-32496666D02*
X36539666Y-32396666D01*
X36539666Y-32230000D01*
X36506333Y-32163333D01*
X36473000Y-32130000D01*
X36406333Y-32096666D01*
X36339666Y-32096666D01*
X36273000Y-32130000D01*
X36239666Y-32163333D01*
X36206333Y-32230000D01*
X36173000Y-32363333D01*
X36139666Y-32430000D01*
X36106333Y-32463333D01*
X36039666Y-32496666D01*
X35973000Y-32496666D01*
X35906333Y-32463333D01*
X35873000Y-32430000D01*
X35839666Y-32363333D01*
X35839666Y-32196666D01*
X35873000Y-32096666D01*
X35839666Y-31896666D02*
X35839666Y-31496666D01*
X36539666Y-31696666D02*
X35839666Y-31696666D01*
X35839666Y-35853333D02*
X36539666Y-35620000D01*
X35839666Y-35386666D01*
X36473000Y-34753333D02*
X36506333Y-34786666D01*
X36539666Y-34886666D01*
X36539666Y-34953333D01*
X36506333Y-35053333D01*
X36439666Y-35120000D01*
X36373000Y-35153333D01*
X36239666Y-35186666D01*
X36139666Y-35186666D01*
X36006333Y-35153333D01*
X35939666Y-35120000D01*
X35873000Y-35053333D01*
X35839666Y-34953333D01*
X35839666Y-34886666D01*
X35873000Y-34786666D01*
X35906333Y-34753333D01*
X36473000Y-34053333D02*
X36506333Y-34086666D01*
X36539666Y-34186666D01*
X36539666Y-34253333D01*
X36506333Y-34353333D01*
X36439666Y-34420000D01*
X36373000Y-34453333D01*
X36239666Y-34486666D01*
X36139666Y-34486666D01*
X36006333Y-34453333D01*
X35939666Y-34420000D01*
X35873000Y-34353333D01*
X35839666Y-34253333D01*
X35839666Y-34186666D01*
X35873000Y-34086666D01*
X35906333Y-34053333D01*
X36173000Y-37820333D02*
X36173000Y-38053666D01*
X36539666Y-38053666D02*
X35839666Y-38053666D01*
X35839666Y-37720333D01*
X36073000Y-37153666D02*
X36539666Y-37153666D01*
X35806333Y-37320333D02*
X36306333Y-37487000D01*
X36306333Y-37053666D01*
X36173000Y-40233333D02*
X36173000Y-40466666D01*
X36539666Y-40466666D02*
X35839666Y-40466666D01*
X35839666Y-40133333D01*
X35839666Y-39533333D02*
X35839666Y-39866666D01*
X36173000Y-39900000D01*
X36139666Y-39866666D01*
X36106333Y-39800000D01*
X36106333Y-39633333D01*
X36139666Y-39566666D01*
X36173000Y-39533333D01*
X36239666Y-39500000D01*
X36406333Y-39500000D01*
X36473000Y-39533333D01*
X36506333Y-39566666D01*
X36539666Y-39633333D01*
X36539666Y-39800000D01*
X36506333Y-39866666D01*
X36473000Y-39900000D01*
X36173000Y-42773333D02*
X36173000Y-43006666D01*
X36539666Y-43006666D02*
X35839666Y-43006666D01*
X35839666Y-42673333D01*
X35839666Y-42106666D02*
X35839666Y-42240000D01*
X35873000Y-42306666D01*
X35906333Y-42340000D01*
X36006333Y-42406666D01*
X36139666Y-42440000D01*
X36406333Y-42440000D01*
X36473000Y-42406666D01*
X36506333Y-42373333D01*
X36539666Y-42306666D01*
X36539666Y-42173333D01*
X36506333Y-42106666D01*
X36473000Y-42073333D01*
X36406333Y-42040000D01*
X36239666Y-42040000D01*
X36173000Y-42073333D01*
X36139666Y-42106666D01*
X36106333Y-42173333D01*
X36106333Y-42306666D01*
X36139666Y-42373333D01*
X36173000Y-42406666D01*
X36239666Y-42440000D01*
X36173000Y-45313333D02*
X36173000Y-45546666D01*
X36539666Y-45546666D02*
X35839666Y-45546666D01*
X35839666Y-45213333D01*
X35839666Y-45013333D02*
X35839666Y-44546666D01*
X36539666Y-44846666D01*
X36173000Y-47903333D02*
X36206333Y-47803333D01*
X36239666Y-47770000D01*
X36306333Y-47736666D01*
X36406333Y-47736666D01*
X36473000Y-47770000D01*
X36506333Y-47803333D01*
X36539666Y-47870000D01*
X36539666Y-48136666D01*
X35839666Y-48136666D01*
X35839666Y-47903333D01*
X35873000Y-47836666D01*
X35906333Y-47803333D01*
X35973000Y-47770000D01*
X36039666Y-47770000D01*
X36106333Y-47803333D01*
X36139666Y-47836666D01*
X36173000Y-47903333D01*
X36173000Y-48136666D01*
X36539666Y-47070000D02*
X36539666Y-47470000D01*
X36539666Y-47270000D02*
X35839666Y-47270000D01*
X35939666Y-47336666D01*
X36006333Y-47403333D01*
X36039666Y-47470000D01*
X36173000Y-50443333D02*
X36206333Y-50343333D01*
X36239666Y-50310000D01*
X36306333Y-50276666D01*
X36406333Y-50276666D01*
X36473000Y-50310000D01*
X36506333Y-50343333D01*
X36539666Y-50410000D01*
X36539666Y-50676666D01*
X35839666Y-50676666D01*
X35839666Y-50443333D01*
X35873000Y-50376666D01*
X35906333Y-50343333D01*
X35973000Y-50310000D01*
X36039666Y-50310000D01*
X36106333Y-50343333D01*
X36139666Y-50376666D01*
X36173000Y-50443333D01*
X36173000Y-50676666D01*
X35839666Y-50043333D02*
X35839666Y-49610000D01*
X36106333Y-49843333D01*
X36106333Y-49743333D01*
X36139666Y-49676666D01*
X36173000Y-49643333D01*
X36239666Y-49610000D01*
X36406333Y-49610000D01*
X36473000Y-49643333D01*
X36506333Y-49676666D01*
X36539666Y-49743333D01*
X36539666Y-49943333D01*
X36506333Y-50010000D01*
X36473000Y-50043333D01*
X36173000Y-52983333D02*
X36206333Y-52883333D01*
X36239666Y-52850000D01*
X36306333Y-52816666D01*
X36406333Y-52816666D01*
X36473000Y-52850000D01*
X36506333Y-52883333D01*
X36539666Y-52950000D01*
X36539666Y-53216666D01*
X35839666Y-53216666D01*
X35839666Y-52983333D01*
X35873000Y-52916666D01*
X35906333Y-52883333D01*
X35973000Y-52850000D01*
X36039666Y-52850000D01*
X36106333Y-52883333D01*
X36139666Y-52916666D01*
X36173000Y-52983333D01*
X36173000Y-53216666D01*
X35906333Y-52550000D02*
X35873000Y-52516666D01*
X35839666Y-52450000D01*
X35839666Y-52283333D01*
X35873000Y-52216666D01*
X35906333Y-52183333D01*
X35973000Y-52150000D01*
X36039666Y-52150000D01*
X36139666Y-52183333D01*
X36539666Y-52583333D01*
X36539666Y-52150000D01*
X36185008Y-53861297D02*
X36232148Y-53955578D01*
X36232148Y-54002719D01*
X36208578Y-54073429D01*
X36137867Y-54144140D01*
X36067157Y-54167710D01*
X36020016Y-54167710D01*
X35949306Y-54144140D01*
X35760744Y-53955578D01*
X36255719Y-53460603D01*
X36420710Y-53625595D01*
X36444280Y-53696306D01*
X36444280Y-53743446D01*
X36420710Y-53814157D01*
X36373570Y-53861297D01*
X36302859Y-53884867D01*
X36255719Y-53884867D01*
X36185008Y-53861297D01*
X36020016Y-53696306D01*
X36962825Y-54167710D02*
X36868544Y-54073429D01*
X36797834Y-54049859D01*
X36750693Y-54049859D01*
X36632842Y-54073429D01*
X36514991Y-54144140D01*
X36326429Y-54332702D01*
X36302859Y-54403412D01*
X36302859Y-54450553D01*
X36326429Y-54521264D01*
X36420710Y-54615544D01*
X36491421Y-54639115D01*
X36538561Y-54639115D01*
X36609272Y-54615544D01*
X36727123Y-54497693D01*
X36750693Y-54426983D01*
X36750693Y-54379842D01*
X36727123Y-54309132D01*
X36632842Y-54214851D01*
X36562132Y-54191280D01*
X36514991Y-54191280D01*
X36444280Y-54214851D01*
X34846666Y-53793000D02*
X34613333Y-53793000D01*
X34613333Y-54159666D02*
X34613333Y-53459666D01*
X34946666Y-53459666D01*
X35346666Y-53459666D02*
X35413333Y-53459666D01*
X35480000Y-53493000D01*
X35513333Y-53526333D01*
X35546666Y-53593000D01*
X35580000Y-53726333D01*
X35580000Y-53893000D01*
X35546666Y-54026333D01*
X35513333Y-54093000D01*
X35480000Y-54126333D01*
X35413333Y-54159666D01*
X35346666Y-54159666D01*
X35280000Y-54126333D01*
X35246666Y-54093000D01*
X35213333Y-54026333D01*
X35180000Y-53893000D01*
X35180000Y-53726333D01*
X35213333Y-53593000D01*
X35246666Y-53526333D01*
X35280000Y-53493000D01*
X35346666Y-53459666D01*
X32306666Y-53793000D02*
X32073333Y-53793000D01*
X32073333Y-54159666D02*
X32073333Y-53459666D01*
X32406666Y-53459666D01*
X33040000Y-54159666D02*
X32640000Y-54159666D01*
X32840000Y-54159666D02*
X32840000Y-53459666D01*
X32773333Y-53559666D01*
X32706666Y-53626333D01*
X32640000Y-53659666D01*
X29883333Y-54093000D02*
X29850000Y-54126333D01*
X29750000Y-54159666D01*
X29683333Y-54159666D01*
X29583333Y-54126333D01*
X29516666Y-54059666D01*
X29483333Y-53993000D01*
X29450000Y-53859666D01*
X29450000Y-53759666D01*
X29483333Y-53626333D01*
X29516666Y-53559666D01*
X29583333Y-53493000D01*
X29683333Y-53459666D01*
X29750000Y-53459666D01*
X29850000Y-53493000D01*
X29883333Y-53526333D01*
X30116666Y-53459666D02*
X30583333Y-53459666D01*
X30283333Y-54159666D01*
X26943333Y-54159666D02*
X26943333Y-53459666D01*
X27110000Y-53459666D01*
X27210000Y-53493000D01*
X27276666Y-53559666D01*
X27310000Y-53626333D01*
X27343333Y-53759666D01*
X27343333Y-53859666D01*
X27310000Y-53993000D01*
X27276666Y-54059666D01*
X27210000Y-54126333D01*
X27110000Y-54159666D01*
X26943333Y-54159666D01*
X27976666Y-53459666D02*
X27643333Y-53459666D01*
X27610000Y-53793000D01*
X27643333Y-53759666D01*
X27710000Y-53726333D01*
X27876666Y-53726333D01*
X27943333Y-53759666D01*
X27976666Y-53793000D01*
X28010000Y-53859666D01*
X28010000Y-54026333D01*
X27976666Y-54093000D01*
X27943333Y-54126333D01*
X27876666Y-54159666D01*
X27710000Y-54159666D01*
X27643333Y-54126333D01*
X27610000Y-54093000D01*
X24636666Y-53793000D02*
X24736666Y-53826333D01*
X24770000Y-53859666D01*
X24803333Y-53926333D01*
X24803333Y-54026333D01*
X24770000Y-54093000D01*
X24736666Y-54126333D01*
X24670000Y-54159666D01*
X24403333Y-54159666D01*
X24403333Y-53459666D01*
X24636666Y-53459666D01*
X24703333Y-53493000D01*
X24736666Y-53526333D01*
X24770000Y-53593000D01*
X24770000Y-53659666D01*
X24736666Y-53726333D01*
X24703333Y-53759666D01*
X24636666Y-53793000D01*
X24403333Y-53793000D01*
X25036666Y-53459666D02*
X25503333Y-53459666D01*
X25203333Y-54159666D01*
D11*
X27650000Y-53049000D02*
X27650000Y-49049000D01*
X24450000Y-53049000D02*
X27650000Y-53049000D01*
D10*
X30700000Y-38680547D02*
X31173762Y-39154308D01*
X25580547Y-43800000D02*
X26054308Y-43326238D01*
X25580547Y-43800000D02*
X26054308Y-44273762D01*
X35819453Y-43800000D02*
X35345692Y-43326238D01*
X35819453Y-43800000D02*
X35345692Y-44273762D01*
X30700000Y-48919453D02*
X30226238Y-48445692D01*
X30700000Y-48919453D02*
X31173762Y-48445692D01*
D11*
X28465000Y-34165000D02*
X28465000Y-36450000D01*
X29935000Y-34165000D02*
X28465000Y-34165000D01*
X29935000Y-36450000D02*
X29935000Y-34165000D01*
D10*
X25612779Y-37260000D02*
X25287221Y-37260000D01*
X25612779Y-36240000D02*
X25287221Y-36240000D01*
X35710000Y-35512779D02*
X35710000Y-35187221D01*
X34690000Y-35512779D02*
X34690000Y-35187221D01*
D11*
X26180000Y-32802064D02*
X26180000Y-31597936D01*
X24360000Y-32802064D02*
X24360000Y-31597936D01*
X23900000Y-42100000D02*
X23900000Y-38200000D01*
X25900000Y-42100000D02*
X25900000Y-38200000D01*
X23900000Y-42100000D02*
X25900000Y-42100000D01*
D10*
X27190000Y-35162779D02*
X27190000Y-34837221D01*
X28210000Y-35162779D02*
X28210000Y-34837221D01*
X32710000Y-35712779D02*
X32710000Y-35387221D01*
X31690000Y-35712779D02*
X31690000Y-35387221D01*
X31210000Y-35062779D02*
X31210000Y-34737221D01*
X30190000Y-35062779D02*
X30190000Y-34737221D01*
X35710000Y-32187221D02*
X35710000Y-32512779D01*
X34690000Y-32187221D02*
X34690000Y-32512779D01*
X34210000Y-31812779D02*
X34210000Y-31487221D01*
X33190000Y-31812779D02*
X33190000Y-31487221D01*
X32710000Y-32712779D02*
X32710000Y-32387221D01*
X31690000Y-32712779D02*
X31690000Y-32387221D01*
X27895522Y-39175727D02*
X28125727Y-38945522D01*
X27174273Y-38454478D02*
X27404478Y-38224273D01*
X25837221Y-48560000D02*
X26162779Y-48560000D01*
X25837221Y-47540000D02*
X26162779Y-47540000D01*
X28340000Y-51962779D02*
X28340000Y-51637221D01*
X29360000Y-51962779D02*
X29360000Y-51637221D01*
X25612779Y-34740000D02*
X25287221Y-34740000D01*
X25612779Y-35760000D02*
X25287221Y-35760000D01*
X34210000Y-34812779D02*
X34210000Y-34487221D01*
X33190000Y-34812779D02*
X33190000Y-34487221D01*
X35460000Y-39424721D02*
X35460000Y-39750279D01*
X34440000Y-39424721D02*
X34440000Y-39750279D01*
X32435000Y-50537221D02*
X32435000Y-50862779D01*
X31415000Y-50537221D02*
X31415000Y-50862779D01*
X25512779Y-47060000D02*
X25187221Y-47060000D01*
X25512779Y-46040000D02*
X25187221Y-46040000D01*
X36916666Y-23716666D02*
X36916666Y-24216666D01*
X36883333Y-24316666D01*
X36816666Y-24383333D01*
X36716666Y-24416666D01*
X36650000Y-24416666D01*
X37250000Y-24416666D02*
X37250000Y-23716666D01*
X37516666Y-23716666D01*
X37583333Y-23750000D01*
X37616666Y-23783333D01*
X37650000Y-23850000D01*
X37650000Y-23950000D01*
X37616666Y-24016666D01*
X37583333Y-24050000D01*
X37516666Y-24083333D01*
X37250000Y-24083333D01*
X38316666Y-24416666D02*
X37916666Y-24416666D01*
X38116666Y-24416666D02*
X38116666Y-23716666D01*
X38050000Y-23816666D01*
X37983333Y-23883333D01*
X37916666Y-23916666D01*
X27833333Y-49215666D02*
X28300000Y-49915666D01*
X28300000Y-49215666D02*
X27833333Y-49915666D01*
X28933333Y-49915666D02*
X28533333Y-49915666D01*
X28733333Y-49915666D02*
X28733333Y-49215666D01*
X28666666Y-49315666D01*
X28600000Y-49382333D01*
X28533333Y-49415666D01*
X24291666Y-43416666D02*
X24291666Y-43983333D01*
X24325000Y-44050000D01*
X24358333Y-44083333D01*
X24425000Y-44116666D01*
X24558333Y-44116666D01*
X24625000Y-44083333D01*
X24658333Y-44050000D01*
X24691666Y-43983333D01*
X24691666Y-43416666D01*
X25391666Y-44116666D02*
X24991666Y-44116666D01*
X25191666Y-44116666D02*
X25191666Y-43416666D01*
X25125000Y-43516666D01*
X25058333Y-43583333D01*
X24991666Y-43616666D01*
X28933333Y-37866666D02*
X28933333Y-37166666D01*
X29100000Y-37166666D01*
X29200000Y-37200000D01*
X29266666Y-37266666D01*
X29300000Y-37333333D01*
X29333333Y-37466666D01*
X29333333Y-37566666D01*
X29300000Y-37700000D01*
X29266666Y-37766666D01*
X29200000Y-37833333D01*
X29100000Y-37866666D01*
X28933333Y-37866666D01*
X29600000Y-37233333D02*
X29633333Y-37200000D01*
X29700000Y-37166666D01*
X29866666Y-37166666D01*
X29933333Y-37200000D01*
X29966666Y-37233333D01*
X30000000Y-37300000D01*
X30000000Y-37366666D01*
X29966666Y-37466666D01*
X29566666Y-37866666D01*
X30000000Y-37866666D01*
X26583333Y-38250000D02*
X26550000Y-38283333D01*
X26450000Y-38316666D01*
X26383333Y-38316666D01*
X26283333Y-38283333D01*
X26216666Y-38216666D01*
X26183333Y-38150000D01*
X26150000Y-38016666D01*
X26150000Y-37916666D01*
X26183333Y-37783333D01*
X26216666Y-37716666D01*
X26283333Y-37650000D01*
X26383333Y-37616666D01*
X26450000Y-37616666D01*
X26550000Y-37650000D01*
X26583333Y-37683333D01*
X27216666Y-37616666D02*
X26883333Y-37616666D01*
X26850000Y-37950000D01*
X26883333Y-37916666D01*
X26950000Y-37883333D01*
X27116666Y-37883333D01*
X27183333Y-37916666D01*
X27216666Y-37950000D01*
X27250000Y-38016666D01*
X27250000Y-38183333D01*
X27216666Y-38250000D01*
X27183333Y-38283333D01*
X27116666Y-38316666D01*
X26950000Y-38316666D01*
X26883333Y-38283333D01*
X26850000Y-38250000D01*
X34300000Y-37550000D02*
X34266666Y-37583333D01*
X34166666Y-37616666D01*
X34100000Y-37616666D01*
X34000000Y-37583333D01*
X33933333Y-37516666D01*
X33900000Y-37450000D01*
X33866666Y-37316666D01*
X33866666Y-37216666D01*
X33900000Y-37083333D01*
X33933333Y-37016666D01*
X34000000Y-36950000D01*
X34100000Y-36916666D01*
X34166666Y-36916666D01*
X34266666Y-36950000D01*
X34300000Y-36983333D01*
X34966666Y-37616666D02*
X34566666Y-37616666D01*
X34766666Y-37616666D02*
X34766666Y-36916666D01*
X34700000Y-37016666D01*
X34633333Y-37083333D01*
X34566666Y-37116666D01*
X35400000Y-36916666D02*
X35466666Y-36916666D01*
X35533333Y-36950000D01*
X35566666Y-36983333D01*
X35600000Y-37050000D01*
X35633333Y-37183333D01*
X35633333Y-37350000D01*
X35600000Y-37483333D01*
X35566666Y-37550000D01*
X35533333Y-37583333D01*
X35466666Y-37616666D01*
X35400000Y-37616666D01*
X35333333Y-37583333D01*
X35300000Y-37550000D01*
X35266666Y-37483333D01*
X35233333Y-37350000D01*
X35233333Y-37183333D01*
X35266666Y-37050000D01*
X35300000Y-36983333D01*
X35333333Y-36950000D01*
X35400000Y-36916666D01*
X26666666Y-30800000D02*
X26433333Y-30800000D01*
X26433333Y-31166666D02*
X26433333Y-30466666D01*
X26766666Y-30466666D01*
X27400000Y-31166666D02*
X27000000Y-31166666D01*
X27200000Y-31166666D02*
X27200000Y-30466666D01*
X27133333Y-30566666D01*
X27066666Y-30633333D01*
X27000000Y-30666666D01*
X26083333Y-40966666D02*
X26083333Y-40266666D01*
X26250000Y-40266666D01*
X26350000Y-40300000D01*
X26416666Y-40366666D01*
X26450000Y-40433333D01*
X26483333Y-40566666D01*
X26483333Y-40666666D01*
X26450000Y-40800000D01*
X26416666Y-40866666D01*
X26350000Y-40933333D01*
X26250000Y-40966666D01*
X26083333Y-40966666D01*
X27150000Y-40966666D02*
X26750000Y-40966666D01*
X26950000Y-40966666D02*
X26950000Y-40266666D01*
X26883333Y-40366666D01*
X26816666Y-40433333D01*
X26750000Y-40466666D01*
X27583333Y-37266666D02*
X27350000Y-36933333D01*
X27183333Y-37266666D02*
X27183333Y-36566666D01*
X27450000Y-36566666D01*
X27516666Y-36600000D01*
X27550000Y-36633333D01*
X27583333Y-36700000D01*
X27583333Y-36800000D01*
X27550000Y-36866666D01*
X27516666Y-36900000D01*
X27450000Y-36933333D01*
X27183333Y-36933333D01*
X28183333Y-36566666D02*
X28050000Y-36566666D01*
X27983333Y-36600000D01*
X27950000Y-36633333D01*
X27883333Y-36733333D01*
X27850000Y-36866666D01*
X27850000Y-37133333D01*
X27883333Y-37200000D01*
X27916666Y-37233333D01*
X27983333Y-37266666D01*
X28116666Y-37266666D01*
X28183333Y-37233333D01*
X28216666Y-37200000D01*
X28250000Y-37133333D01*
X28250000Y-36966666D01*
X28216666Y-36900000D01*
X28183333Y-36866666D01*
X28116666Y-36833333D01*
X27983333Y-36833333D01*
X27916666Y-36866666D01*
X27883333Y-36900000D01*
X27850000Y-36966666D01*
X32083333Y-37766666D02*
X31850000Y-37433333D01*
X31683333Y-37766666D02*
X31683333Y-37066666D01*
X31950000Y-37066666D01*
X32016666Y-37100000D01*
X32050000Y-37133333D01*
X32083333Y-37200000D01*
X32083333Y-37300000D01*
X32050000Y-37366666D01*
X32016666Y-37400000D01*
X31950000Y-37433333D01*
X31683333Y-37433333D01*
X32716666Y-37066666D02*
X32383333Y-37066666D01*
X32350000Y-37400000D01*
X32383333Y-37366666D01*
X32450000Y-37333333D01*
X32616666Y-37333333D01*
X32683333Y-37366666D01*
X32716666Y-37400000D01*
X32750000Y-37466666D01*
X32750000Y-37633333D01*
X32716666Y-37700000D01*
X32683333Y-37733333D01*
X32616666Y-37766666D01*
X32450000Y-37766666D01*
X32383333Y-37733333D01*
X32350000Y-37700000D01*
X30583333Y-37116666D02*
X30350000Y-36783333D01*
X30183333Y-37116666D02*
X30183333Y-36416666D01*
X30450000Y-36416666D01*
X30516666Y-36450000D01*
X30550000Y-36483333D01*
X30583333Y-36550000D01*
X30583333Y-36650000D01*
X30550000Y-36716666D01*
X30516666Y-36750000D01*
X30450000Y-36783333D01*
X30183333Y-36783333D01*
X31183333Y-36650000D02*
X31183333Y-37116666D01*
X31016666Y-36383333D02*
X30850000Y-36883333D01*
X31283333Y-36883333D01*
X36383333Y-31466666D02*
X36150000Y-31133333D01*
X35983333Y-31466666D02*
X35983333Y-30766666D01*
X36250000Y-30766666D01*
X36316666Y-30800000D01*
X36350000Y-30833333D01*
X36383333Y-30900000D01*
X36383333Y-31000000D01*
X36350000Y-31066666D01*
X36316666Y-31100000D01*
X36250000Y-31133333D01*
X35983333Y-31133333D01*
X36616666Y-30766666D02*
X37050000Y-30766666D01*
X36816666Y-31033333D01*
X36916666Y-31033333D01*
X36983333Y-31066666D01*
X37016666Y-31100000D01*
X37050000Y-31166666D01*
X37050000Y-31333333D01*
X37016666Y-31400000D01*
X36983333Y-31433333D01*
X36916666Y-31466666D01*
X36716666Y-31466666D01*
X36650000Y-31433333D01*
X36616666Y-31400000D01*
X32183333Y-30916666D02*
X31950000Y-30583333D01*
X31783333Y-30916666D02*
X31783333Y-30216666D01*
X32050000Y-30216666D01*
X32116666Y-30250000D01*
X32150000Y-30283333D01*
X32183333Y-30350000D01*
X32183333Y-30450000D01*
X32150000Y-30516666D01*
X32116666Y-30550000D01*
X32050000Y-30583333D01*
X31783333Y-30583333D01*
X32450000Y-30283333D02*
X32483333Y-30250000D01*
X32550000Y-30216666D01*
X32716666Y-30216666D01*
X32783333Y-30250000D01*
X32816666Y-30283333D01*
X32850000Y-30350000D01*
X32850000Y-30416666D01*
X32816666Y-30516666D01*
X32416666Y-30916666D01*
X32850000Y-30916666D01*
X30733333Y-31266666D02*
X30500000Y-30933333D01*
X30333333Y-31266666D02*
X30333333Y-30566666D01*
X30600000Y-30566666D01*
X30666666Y-30600000D01*
X30700000Y-30633333D01*
X30733333Y-30700000D01*
X30733333Y-30800000D01*
X30700000Y-30866666D01*
X30666666Y-30900000D01*
X30600000Y-30933333D01*
X30333333Y-30933333D01*
X31400000Y-31266666D02*
X31000000Y-31266666D01*
X31200000Y-31266666D02*
X31200000Y-30566666D01*
X31133333Y-30666666D01*
X31066666Y-30733333D01*
X31000000Y-30766666D01*
X28544280Y-39759272D02*
X28544280Y-39806412D01*
X28497140Y-39900693D01*
X28450000Y-39947834D01*
X28355719Y-39994974D01*
X28261438Y-39994974D01*
X28190727Y-39971404D01*
X28072876Y-39900693D01*
X28002165Y-39829983D01*
X27931455Y-39712132D01*
X27907884Y-39641421D01*
X27907884Y-39547140D01*
X27955025Y-39452859D01*
X28002165Y-39405719D01*
X28096446Y-39358578D01*
X28143587Y-39358578D01*
X28827123Y-39570710D02*
X28921404Y-39476429D01*
X28944974Y-39405719D01*
X28944974Y-39358578D01*
X28921404Y-39240727D01*
X28850693Y-39122876D01*
X28662132Y-38934314D01*
X28591421Y-38910744D01*
X28544280Y-38910744D01*
X28473570Y-38934314D01*
X28379289Y-39028595D01*
X28355719Y-39099306D01*
X28355719Y-39146446D01*
X28379289Y-39217157D01*
X28497140Y-39335008D01*
X28567851Y-39358578D01*
X28614991Y-39358578D01*
X28685702Y-39335008D01*
X28779983Y-39240727D01*
X28803553Y-39170016D01*
X28803553Y-39122876D01*
X28779983Y-39052165D01*
X27933333Y-48300000D02*
X27900000Y-48333333D01*
X27800000Y-48366666D01*
X27733333Y-48366666D01*
X27633333Y-48333333D01*
X27566666Y-48266666D01*
X27533333Y-48200000D01*
X27500000Y-48066666D01*
X27500000Y-47966666D01*
X27533333Y-47833333D01*
X27566666Y-47766666D01*
X27633333Y-47700000D01*
X27733333Y-47666666D01*
X27800000Y-47666666D01*
X27900000Y-47700000D01*
X27933333Y-47733333D01*
X28333333Y-47966666D02*
X28266666Y-47933333D01*
X28233333Y-47900000D01*
X28200000Y-47833333D01*
X28200000Y-47800000D01*
X28233333Y-47733333D01*
X28266666Y-47700000D01*
X28333333Y-47666666D01*
X28466666Y-47666666D01*
X28533333Y-47700000D01*
X28566666Y-47733333D01*
X28600000Y-47800000D01*
X28600000Y-47833333D01*
X28566666Y-47900000D01*
X28533333Y-47933333D01*
X28466666Y-47966666D01*
X28333333Y-47966666D01*
X28266666Y-48000000D01*
X28233333Y-48033333D01*
X28200000Y-48100000D01*
X28200000Y-48233333D01*
X28233333Y-48300000D01*
X28266666Y-48333333D01*
X28333333Y-48366666D01*
X28466666Y-48366666D01*
X28533333Y-48333333D01*
X28566666Y-48300000D01*
X28600000Y-48233333D01*
X28600000Y-48100000D01*
X28566666Y-48033333D01*
X28533333Y-48000000D01*
X28466666Y-47966666D01*
X29983333Y-52050000D02*
X29950000Y-52083333D01*
X29850000Y-52116666D01*
X29783333Y-52116666D01*
X29683333Y-52083333D01*
X29616666Y-52016666D01*
X29583333Y-51950000D01*
X29550000Y-51816666D01*
X29550000Y-51716666D01*
X29583333Y-51583333D01*
X29616666Y-51516666D01*
X29683333Y-51450000D01*
X29783333Y-51416666D01*
X29850000Y-51416666D01*
X29950000Y-51450000D01*
X29983333Y-51483333D01*
X30216666Y-51416666D02*
X30683333Y-51416666D01*
X30383333Y-52116666D01*
X26950000Y-34066666D02*
X26983333Y-34100000D01*
X27016666Y-34200000D01*
X27016666Y-34266666D01*
X26983333Y-34366666D01*
X26916666Y-34433333D01*
X26850000Y-34466666D01*
X26716666Y-34500000D01*
X26616666Y-34500000D01*
X26483333Y-34466666D01*
X26416666Y-34433333D01*
X26350000Y-34366666D01*
X26316666Y-34266666D01*
X26316666Y-34200000D01*
X26350000Y-34100000D01*
X26383333Y-34066666D01*
X26316666Y-33466666D02*
X26316666Y-33600000D01*
X26350000Y-33666666D01*
X26383333Y-33700000D01*
X26483333Y-33766666D01*
X26616666Y-33800000D01*
X26883333Y-33800000D01*
X26950000Y-33766666D01*
X26983333Y-33733333D01*
X27016666Y-33666666D01*
X27016666Y-33533333D01*
X26983333Y-33466666D01*
X26950000Y-33433333D01*
X26883333Y-33400000D01*
X26716666Y-33400000D01*
X26650000Y-33433333D01*
X26616666Y-33466666D01*
X26583333Y-33533333D01*
X26583333Y-33666666D01*
X26616666Y-33733333D01*
X26650000Y-33766666D01*
X26716666Y-33800000D01*
X33433333Y-36800000D02*
X33400000Y-36833333D01*
X33300000Y-36866666D01*
X33233333Y-36866666D01*
X33133333Y-36833333D01*
X33066666Y-36766666D01*
X33033333Y-36700000D01*
X33000000Y-36566666D01*
X33000000Y-36466666D01*
X33033333Y-36333333D01*
X33066666Y-36266666D01*
X33133333Y-36200000D01*
X33233333Y-36166666D01*
X33300000Y-36166666D01*
X33400000Y-36200000D01*
X33433333Y-36233333D01*
X34033333Y-36400000D02*
X34033333Y-36866666D01*
X33866666Y-36133333D02*
X33700000Y-36633333D01*
X34133333Y-36633333D01*
X33533333Y-39837500D02*
X33500000Y-39870833D01*
X33400000Y-39904166D01*
X33333333Y-39904166D01*
X33233333Y-39870833D01*
X33166666Y-39804166D01*
X33133333Y-39737500D01*
X33100000Y-39604166D01*
X33100000Y-39504166D01*
X33133333Y-39370833D01*
X33166666Y-39304166D01*
X33233333Y-39237500D01*
X33333333Y-39204166D01*
X33400000Y-39204166D01*
X33500000Y-39237500D01*
X33533333Y-39270833D01*
X33766666Y-39204166D02*
X34200000Y-39204166D01*
X33966666Y-39470833D01*
X34066666Y-39470833D01*
X34133333Y-39504166D01*
X34166666Y-39537500D01*
X34200000Y-39604166D01*
X34200000Y-39770833D01*
X34166666Y-39837500D01*
X34133333Y-39870833D01*
X34066666Y-39904166D01*
X33866666Y-39904166D01*
X33800000Y-39870833D01*
X33766666Y-39837500D01*
X33033333Y-50950000D02*
X33000000Y-50983333D01*
X32900000Y-51016666D01*
X32833333Y-51016666D01*
X32733333Y-50983333D01*
X32666666Y-50916666D01*
X32633333Y-50850000D01*
X32600000Y-50716666D01*
X32600000Y-50616666D01*
X32633333Y-50483333D01*
X32666666Y-50416666D01*
X32733333Y-50350000D01*
X32833333Y-50316666D01*
X32900000Y-50316666D01*
X33000000Y-50350000D01*
X33033333Y-50383333D01*
X33300000Y-50383333D02*
X33333333Y-50350000D01*
X33400000Y-50316666D01*
X33566666Y-50316666D01*
X33633333Y-50350000D01*
X33666666Y-50383333D01*
X33700000Y-50450000D01*
X33700000Y-50516666D01*
X33666666Y-50616666D01*
X33266666Y-51016666D01*
X33700000Y-51016666D01*
X25233333Y-45675000D02*
X25200000Y-45708333D01*
X25100000Y-45741666D01*
X25033333Y-45741666D01*
X24933333Y-45708333D01*
X24866666Y-45641666D01*
X24833333Y-45575000D01*
X24800000Y-45441666D01*
X24800000Y-45341666D01*
X24833333Y-45208333D01*
X24866666Y-45141666D01*
X24933333Y-45075000D01*
X25033333Y-45041666D01*
X25100000Y-45041666D01*
X25200000Y-45075000D01*
X25233333Y-45108333D01*
X25900000Y-45741666D02*
X25500000Y-45741666D01*
X25700000Y-45741666D02*
X25700000Y-45041666D01*
X25633333Y-45141666D01*
X25566666Y-45208333D01*
X25500000Y-45241666D01*
M02*
