M48
; DRILL file {KiCad (5.1.6)-1} date 12/03/20 15:36:39
; FORMAT={-:-/ absolute / inch / decimal}
; #@! TF.CreationDate,2020-12-03T15:36:39+08:00
; #@! TF.GenerationSoftware,Kicad,Pcbnew,(5.1.6)-1
; #@! TF.FileFunction,Plated,1,2,PTH
FMAT,2
INCH
T1C0.0118
T2C0.0197
T3C0.0236
T4C0.0394
%
G90
G05
T1
X0.9232Y-1.8307
X0.9449Y-1.9409
X0.9449Y-1.9862
X0.9449Y-2.0295
X0.9449Y-2.0728
X0.9616Y-1.0315
X0.9616Y-1.0719
X0.9616Y-1.2687
X0.9705Y-1.4173
X0.9965Y-1.7268
X1.002Y-1.6693
X1.0059Y-1.5431
X1.0073Y-1.6004
X1.0148Y-1.2687
X1.0157Y-1.7461
X1.0224Y-1.7075
X1.028Y-1.6241
X1.0295Y-1.65
X1.0453Y-1.3386
X1.0524Y-1.6152
X1.0797Y-1.1939
X1.1122Y-1.2018
X1.1181Y-1.9653
X1.1377Y-1.2224
X1.1436Y-1.9706
X1.1744Y-2.0027
X1.187Y-2.0551
X1.1909Y-1.2224
X1.1937Y-2.0217
X1.2024Y-1.5292
X1.203Y-1.922
X1.2063Y-1.5035
X1.2224Y-1.4626
X1.2382Y-1.2854
X1.2577Y-1.202
X1.2655Y-1.5254
X1.2657Y-2.0709
X1.2898Y-1.2013
X1.2953Y-1.9656
X1.3012Y-1.8783
X1.3012Y-1.9043
X1.3268Y-1.3602
X1.3476Y-2.0445
X1.3563Y-1.1781
X1.3702Y-1.803
X1.3731Y-1.6368
X1.3878Y-1.7244
X1.4006Y-1.0305
X1.4006Y-1.0719
X1.4016Y-1.6772
X1.4134Y-2.0984
X1.4151Y-1.7244
X1.4173Y-1.935
X1.4252Y-1.8701
X1.4331Y-1.0492
X1.4385Y-1.4259
X1.4488Y-1.7264
X1.4665Y-1.4252
T2
X0.9941Y-1.9665
X0.9941Y-2.0531
X1.0571Y-1.9665
X1.0571Y-2.0531
T4
X1.4811Y-1.0748
X1.4811Y-1.1748
X1.4811Y-1.2748
X1.4811Y-1.3748
X1.4811Y-1.4748
X1.4811Y-1.5748
X1.4811Y-1.6748
X1.4811Y-1.7748
X1.4811Y-1.8748
X1.4811Y-1.9748
X1.4811Y-2.0748
X1.4811Y-2.1748
X1.2087Y-1.7244
X0.8811Y-1.0748
X0.8811Y-1.1748
X0.8811Y-1.2748
X0.8811Y-1.3748
X0.8811Y-1.4748
X0.8811Y-1.5748
X0.8811Y-1.6748
X0.8811Y-1.7748
X0.8811Y-1.8748
X0.8811Y-1.9748
X0.8811Y-2.0748
X0.8811Y-2.1748
X0.9811Y-2.1748
X1.0811Y-2.1748
X1.1811Y-2.1748
X1.2811Y-2.1748
X1.3811Y-2.1748
X1.0811Y-1.2748
X1.1811Y-1.2748
T3
G00X0.9616Y-0.9449
M15
G01X0.9616Y-0.9921
M16
G05
G00X0.9616Y-1.1102
M15
G01X0.9616Y-1.1417
M16
G05
G00X1.4006Y-0.9449
M15
G01X1.4006Y-0.9921
M16
G05
G00X1.4006Y-1.1102
M15
G01X1.4006Y-1.1417
M16
G05
T0
M30
