G04 #@! TF.GenerationSoftware,KiCad,Pcbnew,(5.1.6)-1*
G04 #@! TF.CreationDate,2020-12-03T15:36:38+08:00*
G04 #@! TF.ProjectId,Alvaro,416c7661-726f-42e6-9b69-6361645f7063,rev?*
G04 #@! TF.SameCoordinates,Original*
G04 #@! TF.FileFunction,Soldermask,Top*
G04 #@! TF.FilePolarity,Negative*
%FSLAX46Y46*%
G04 Gerber Fmt 4.6, Leading zero omitted, Abs format (unit mm)*
G04 Created by KiCad (PCBNEW (5.1.6)-1) date 2020-12-03 15:36:38*
%MOMM*%
%LPD*%
G01*
G04 APERTURE LIST*
%ADD10R,1.100000X1.400000*%
%ADD11R,1.600000X1.800000*%
%ADD12R,0.700000X1.200000*%
%ADD13R,1.000000X1.200000*%
%ADD14O,1.400000X2.200000*%
%ADD15O,1.400000X2.600000*%
%ADD16C,0.100000*%
%ADD17C,2.100000*%
%ADD18R,1.600000X1.300000*%
G04 APERTURE END LIST*
D10*
X37000000Y-25250000D03*
X38000000Y-25250000D03*
D11*
X25250000Y-52149000D03*
X25250000Y-49949000D03*
X26850000Y-49949000D03*
X26850000Y-52149000D03*
D12*
X28250000Y-29500000D03*
X28750000Y-29500000D03*
X31750000Y-29500000D03*
X31250000Y-29500000D03*
X30250000Y-29500000D03*
X29750000Y-29500000D03*
X30750000Y-29500000D03*
X29250000Y-29500000D03*
D13*
X27600000Y-29500000D03*
X32400000Y-29500000D03*
X33200000Y-29500000D03*
X26800000Y-29500000D03*
D14*
X24425000Y-28600000D03*
X35575000Y-28600000D03*
D15*
X24425000Y-24600000D03*
X35575000Y-24600000D03*
D16*
G36*
X26740202Y-43800000D02*
G01*
X30700000Y-39840202D01*
X34659798Y-43800000D01*
X30700000Y-47759798D01*
X26740202Y-43800000D01*
G37*
G36*
G01*
X30770711Y-40193755D02*
X30770711Y-40193755D01*
G75*
G02*
X30770711Y-39698781I247487J247487D01*
G01*
X31336397Y-39133095D01*
G75*
G02*
X31831371Y-39133095I247487J-247487D01*
G01*
X31831371Y-39133095D01*
G75*
G02*
X31831371Y-39628069I-247487J-247487D01*
G01*
X31265685Y-40193755D01*
G75*
G02*
X30770711Y-40193755I-247487J247487D01*
G01*
G37*
G36*
G01*
X31124264Y-40547309D02*
X31124264Y-40547309D01*
G75*
G02*
X31124264Y-40052335I247487J247487D01*
G01*
X31689950Y-39486649D01*
G75*
G02*
X32184924Y-39486649I247487J-247487D01*
G01*
X32184924Y-39486649D01*
G75*
G02*
X32184924Y-39981623I-247487J-247487D01*
G01*
X31619238Y-40547309D01*
G75*
G02*
X31124264Y-40547309I-247487J247487D01*
G01*
G37*
G36*
G01*
X31477818Y-40900862D02*
X31477818Y-40900862D01*
G75*
G02*
X31477818Y-40405888I247487J247487D01*
G01*
X32043504Y-39840202D01*
G75*
G02*
X32538478Y-39840202I247487J-247487D01*
G01*
X32538478Y-39840202D01*
G75*
G02*
X32538478Y-40335176I-247487J-247487D01*
G01*
X31972792Y-40900862D01*
G75*
G02*
X31477818Y-40900862I-247487J247487D01*
G01*
G37*
G36*
G01*
X31831371Y-41254416D02*
X31831371Y-41254416D01*
G75*
G02*
X31831371Y-40759442I247487J247487D01*
G01*
X32397057Y-40193756D01*
G75*
G02*
X32892031Y-40193756I247487J-247487D01*
G01*
X32892031Y-40193756D01*
G75*
G02*
X32892031Y-40688730I-247487J-247487D01*
G01*
X32326345Y-41254416D01*
G75*
G02*
X31831371Y-41254416I-247487J247487D01*
G01*
G37*
G36*
G01*
X32184924Y-41607969D02*
X32184924Y-41607969D01*
G75*
G02*
X32184924Y-41112995I247487J247487D01*
G01*
X32750610Y-40547309D01*
G75*
G02*
X33245584Y-40547309I247487J-247487D01*
G01*
X33245584Y-40547309D01*
G75*
G02*
X33245584Y-41042283I-247487J-247487D01*
G01*
X32679898Y-41607969D01*
G75*
G02*
X32184924Y-41607969I-247487J247487D01*
G01*
G37*
G36*
G01*
X32538478Y-41961522D02*
X32538478Y-41961522D01*
G75*
G02*
X32538478Y-41466548I247487J247487D01*
G01*
X33104164Y-40900862D01*
G75*
G02*
X33599138Y-40900862I247487J-247487D01*
G01*
X33599138Y-40900862D01*
G75*
G02*
X33599138Y-41395836I-247487J-247487D01*
G01*
X33033452Y-41961522D01*
G75*
G02*
X32538478Y-41961522I-247487J247487D01*
G01*
G37*
G36*
G01*
X32892031Y-42315076D02*
X32892031Y-42315076D01*
G75*
G02*
X32892031Y-41820102I247487J247487D01*
G01*
X33457717Y-41254416D01*
G75*
G02*
X33952691Y-41254416I247487J-247487D01*
G01*
X33952691Y-41254416D01*
G75*
G02*
X33952691Y-41749390I-247487J-247487D01*
G01*
X33387005Y-42315076D01*
G75*
G02*
X32892031Y-42315076I-247487J247487D01*
G01*
G37*
G36*
G01*
X33245584Y-42668629D02*
X33245584Y-42668629D01*
G75*
G02*
X33245584Y-42173655I247487J247487D01*
G01*
X33811270Y-41607969D01*
G75*
G02*
X34306244Y-41607969I247487J-247487D01*
G01*
X34306244Y-41607969D01*
G75*
G02*
X34306244Y-42102943I-247487J-247487D01*
G01*
X33740558Y-42668629D01*
G75*
G02*
X33245584Y-42668629I-247487J247487D01*
G01*
G37*
G36*
G01*
X33599138Y-43022182D02*
X33599138Y-43022182D01*
G75*
G02*
X33599138Y-42527208I247487J247487D01*
G01*
X34164824Y-41961522D01*
G75*
G02*
X34659798Y-41961522I247487J-247487D01*
G01*
X34659798Y-41961522D01*
G75*
G02*
X34659798Y-42456496I-247487J-247487D01*
G01*
X34094112Y-43022182D01*
G75*
G02*
X33599138Y-43022182I-247487J247487D01*
G01*
G37*
G36*
G01*
X33952691Y-43375736D02*
X33952691Y-43375736D01*
G75*
G02*
X33952691Y-42880762I247487J247487D01*
G01*
X34518377Y-42315076D01*
G75*
G02*
X35013351Y-42315076I247487J-247487D01*
G01*
X35013351Y-42315076D01*
G75*
G02*
X35013351Y-42810050I-247487J-247487D01*
G01*
X34447665Y-43375736D01*
G75*
G02*
X33952691Y-43375736I-247487J247487D01*
G01*
G37*
G36*
G01*
X34306245Y-43729289D02*
X34306245Y-43729289D01*
G75*
G02*
X34306245Y-43234315I247487J247487D01*
G01*
X34871931Y-42668629D01*
G75*
G02*
X35366905Y-42668629I247487J-247487D01*
G01*
X35366905Y-42668629D01*
G75*
G02*
X35366905Y-43163603I-247487J-247487D01*
G01*
X34801219Y-43729289D01*
G75*
G02*
X34306245Y-43729289I-247487J247487D01*
G01*
G37*
G36*
G01*
X34306245Y-43870711D02*
X34306245Y-43870711D01*
G75*
G02*
X34801219Y-43870711I247487J-247487D01*
G01*
X35366905Y-44436397D01*
G75*
G02*
X35366905Y-44931371I-247487J-247487D01*
G01*
X35366905Y-44931371D01*
G75*
G02*
X34871931Y-44931371I-247487J247487D01*
G01*
X34306245Y-44365685D01*
G75*
G02*
X34306245Y-43870711I247487J247487D01*
G01*
G37*
G36*
G01*
X33952691Y-44224264D02*
X33952691Y-44224264D01*
G75*
G02*
X34447665Y-44224264I247487J-247487D01*
G01*
X35013351Y-44789950D01*
G75*
G02*
X35013351Y-45284924I-247487J-247487D01*
G01*
X35013351Y-45284924D01*
G75*
G02*
X34518377Y-45284924I-247487J247487D01*
G01*
X33952691Y-44719238D01*
G75*
G02*
X33952691Y-44224264I247487J247487D01*
G01*
G37*
G36*
G01*
X33599138Y-44577818D02*
X33599138Y-44577818D01*
G75*
G02*
X34094112Y-44577818I247487J-247487D01*
G01*
X34659798Y-45143504D01*
G75*
G02*
X34659798Y-45638478I-247487J-247487D01*
G01*
X34659798Y-45638478D01*
G75*
G02*
X34164824Y-45638478I-247487J247487D01*
G01*
X33599138Y-45072792D01*
G75*
G02*
X33599138Y-44577818I247487J247487D01*
G01*
G37*
G36*
G01*
X33245584Y-44931371D02*
X33245584Y-44931371D01*
G75*
G02*
X33740558Y-44931371I247487J-247487D01*
G01*
X34306244Y-45497057D01*
G75*
G02*
X34306244Y-45992031I-247487J-247487D01*
G01*
X34306244Y-45992031D01*
G75*
G02*
X33811270Y-45992031I-247487J247487D01*
G01*
X33245584Y-45426345D01*
G75*
G02*
X33245584Y-44931371I247487J247487D01*
G01*
G37*
G36*
G01*
X32892031Y-45284924D02*
X32892031Y-45284924D01*
G75*
G02*
X33387005Y-45284924I247487J-247487D01*
G01*
X33952691Y-45850610D01*
G75*
G02*
X33952691Y-46345584I-247487J-247487D01*
G01*
X33952691Y-46345584D01*
G75*
G02*
X33457717Y-46345584I-247487J247487D01*
G01*
X32892031Y-45779898D01*
G75*
G02*
X32892031Y-45284924I247487J247487D01*
G01*
G37*
G36*
G01*
X32538478Y-45638478D02*
X32538478Y-45638478D01*
G75*
G02*
X33033452Y-45638478I247487J-247487D01*
G01*
X33599138Y-46204164D01*
G75*
G02*
X33599138Y-46699138I-247487J-247487D01*
G01*
X33599138Y-46699138D01*
G75*
G02*
X33104164Y-46699138I-247487J247487D01*
G01*
X32538478Y-46133452D01*
G75*
G02*
X32538478Y-45638478I247487J247487D01*
G01*
G37*
G36*
G01*
X32184924Y-45992031D02*
X32184924Y-45992031D01*
G75*
G02*
X32679898Y-45992031I247487J-247487D01*
G01*
X33245584Y-46557717D01*
G75*
G02*
X33245584Y-47052691I-247487J-247487D01*
G01*
X33245584Y-47052691D01*
G75*
G02*
X32750610Y-47052691I-247487J247487D01*
G01*
X32184924Y-46487005D01*
G75*
G02*
X32184924Y-45992031I247487J247487D01*
G01*
G37*
G36*
G01*
X31831371Y-46345584D02*
X31831371Y-46345584D01*
G75*
G02*
X32326345Y-46345584I247487J-247487D01*
G01*
X32892031Y-46911270D01*
G75*
G02*
X32892031Y-47406244I-247487J-247487D01*
G01*
X32892031Y-47406244D01*
G75*
G02*
X32397057Y-47406244I-247487J247487D01*
G01*
X31831371Y-46840558D01*
G75*
G02*
X31831371Y-46345584I247487J247487D01*
G01*
G37*
G36*
G01*
X31477818Y-46699138D02*
X31477818Y-46699138D01*
G75*
G02*
X31972792Y-46699138I247487J-247487D01*
G01*
X32538478Y-47264824D01*
G75*
G02*
X32538478Y-47759798I-247487J-247487D01*
G01*
X32538478Y-47759798D01*
G75*
G02*
X32043504Y-47759798I-247487J247487D01*
G01*
X31477818Y-47194112D01*
G75*
G02*
X31477818Y-46699138I247487J247487D01*
G01*
G37*
G36*
G01*
X31124264Y-47052691D02*
X31124264Y-47052691D01*
G75*
G02*
X31619238Y-47052691I247487J-247487D01*
G01*
X32184924Y-47618377D01*
G75*
G02*
X32184924Y-48113351I-247487J-247487D01*
G01*
X32184924Y-48113351D01*
G75*
G02*
X31689950Y-48113351I-247487J247487D01*
G01*
X31124264Y-47547665D01*
G75*
G02*
X31124264Y-47052691I247487J247487D01*
G01*
G37*
G36*
G01*
X30770711Y-47406245D02*
X30770711Y-47406245D01*
G75*
G02*
X31265685Y-47406245I247487J-247487D01*
G01*
X31831371Y-47971931D01*
G75*
G02*
X31831371Y-48466905I-247487J-247487D01*
G01*
X31831371Y-48466905D01*
G75*
G02*
X31336397Y-48466905I-247487J247487D01*
G01*
X30770711Y-47901219D01*
G75*
G02*
X30770711Y-47406245I247487J247487D01*
G01*
G37*
G36*
G01*
X29568629Y-48466905D02*
X29568629Y-48466905D01*
G75*
G02*
X29568629Y-47971931I247487J247487D01*
G01*
X30134315Y-47406245D01*
G75*
G02*
X30629289Y-47406245I247487J-247487D01*
G01*
X30629289Y-47406245D01*
G75*
G02*
X30629289Y-47901219I-247487J-247487D01*
G01*
X30063603Y-48466905D01*
G75*
G02*
X29568629Y-48466905I-247487J247487D01*
G01*
G37*
G36*
G01*
X29215076Y-48113351D02*
X29215076Y-48113351D01*
G75*
G02*
X29215076Y-47618377I247487J247487D01*
G01*
X29780762Y-47052691D01*
G75*
G02*
X30275736Y-47052691I247487J-247487D01*
G01*
X30275736Y-47052691D01*
G75*
G02*
X30275736Y-47547665I-247487J-247487D01*
G01*
X29710050Y-48113351D01*
G75*
G02*
X29215076Y-48113351I-247487J247487D01*
G01*
G37*
G36*
G01*
X28861522Y-47759798D02*
X28861522Y-47759798D01*
G75*
G02*
X28861522Y-47264824I247487J247487D01*
G01*
X29427208Y-46699138D01*
G75*
G02*
X29922182Y-46699138I247487J-247487D01*
G01*
X29922182Y-46699138D01*
G75*
G02*
X29922182Y-47194112I-247487J-247487D01*
G01*
X29356496Y-47759798D01*
G75*
G02*
X28861522Y-47759798I-247487J247487D01*
G01*
G37*
G36*
G01*
X28507969Y-47406244D02*
X28507969Y-47406244D01*
G75*
G02*
X28507969Y-46911270I247487J247487D01*
G01*
X29073655Y-46345584D01*
G75*
G02*
X29568629Y-46345584I247487J-247487D01*
G01*
X29568629Y-46345584D01*
G75*
G02*
X29568629Y-46840558I-247487J-247487D01*
G01*
X29002943Y-47406244D01*
G75*
G02*
X28507969Y-47406244I-247487J247487D01*
G01*
G37*
G36*
G01*
X28154416Y-47052691D02*
X28154416Y-47052691D01*
G75*
G02*
X28154416Y-46557717I247487J247487D01*
G01*
X28720102Y-45992031D01*
G75*
G02*
X29215076Y-45992031I247487J-247487D01*
G01*
X29215076Y-45992031D01*
G75*
G02*
X29215076Y-46487005I-247487J-247487D01*
G01*
X28649390Y-47052691D01*
G75*
G02*
X28154416Y-47052691I-247487J247487D01*
G01*
G37*
G36*
G01*
X27800862Y-46699138D02*
X27800862Y-46699138D01*
G75*
G02*
X27800862Y-46204164I247487J247487D01*
G01*
X28366548Y-45638478D01*
G75*
G02*
X28861522Y-45638478I247487J-247487D01*
G01*
X28861522Y-45638478D01*
G75*
G02*
X28861522Y-46133452I-247487J-247487D01*
G01*
X28295836Y-46699138D01*
G75*
G02*
X27800862Y-46699138I-247487J247487D01*
G01*
G37*
G36*
G01*
X27447309Y-46345584D02*
X27447309Y-46345584D01*
G75*
G02*
X27447309Y-45850610I247487J247487D01*
G01*
X28012995Y-45284924D01*
G75*
G02*
X28507969Y-45284924I247487J-247487D01*
G01*
X28507969Y-45284924D01*
G75*
G02*
X28507969Y-45779898I-247487J-247487D01*
G01*
X27942283Y-46345584D01*
G75*
G02*
X27447309Y-46345584I-247487J247487D01*
G01*
G37*
G36*
G01*
X27093756Y-45992031D02*
X27093756Y-45992031D01*
G75*
G02*
X27093756Y-45497057I247487J247487D01*
G01*
X27659442Y-44931371D01*
G75*
G02*
X28154416Y-44931371I247487J-247487D01*
G01*
X28154416Y-44931371D01*
G75*
G02*
X28154416Y-45426345I-247487J-247487D01*
G01*
X27588730Y-45992031D01*
G75*
G02*
X27093756Y-45992031I-247487J247487D01*
G01*
G37*
G36*
G01*
X26740202Y-45638478D02*
X26740202Y-45638478D01*
G75*
G02*
X26740202Y-45143504I247487J247487D01*
G01*
X27305888Y-44577818D01*
G75*
G02*
X27800862Y-44577818I247487J-247487D01*
G01*
X27800862Y-44577818D01*
G75*
G02*
X27800862Y-45072792I-247487J-247487D01*
G01*
X27235176Y-45638478D01*
G75*
G02*
X26740202Y-45638478I-247487J247487D01*
G01*
G37*
G36*
G01*
X26386649Y-45284924D02*
X26386649Y-45284924D01*
G75*
G02*
X26386649Y-44789950I247487J247487D01*
G01*
X26952335Y-44224264D01*
G75*
G02*
X27447309Y-44224264I247487J-247487D01*
G01*
X27447309Y-44224264D01*
G75*
G02*
X27447309Y-44719238I-247487J-247487D01*
G01*
X26881623Y-45284924D01*
G75*
G02*
X26386649Y-45284924I-247487J247487D01*
G01*
G37*
G36*
G01*
X26033095Y-44931371D02*
X26033095Y-44931371D01*
G75*
G02*
X26033095Y-44436397I247487J247487D01*
G01*
X26598781Y-43870711D01*
G75*
G02*
X27093755Y-43870711I247487J-247487D01*
G01*
X27093755Y-43870711D01*
G75*
G02*
X27093755Y-44365685I-247487J-247487D01*
G01*
X26528069Y-44931371D01*
G75*
G02*
X26033095Y-44931371I-247487J247487D01*
G01*
G37*
G36*
G01*
X26033095Y-42668629D02*
X26033095Y-42668629D01*
G75*
G02*
X26528069Y-42668629I247487J-247487D01*
G01*
X27093755Y-43234315D01*
G75*
G02*
X27093755Y-43729289I-247487J-247487D01*
G01*
X27093755Y-43729289D01*
G75*
G02*
X26598781Y-43729289I-247487J247487D01*
G01*
X26033095Y-43163603D01*
G75*
G02*
X26033095Y-42668629I247487J247487D01*
G01*
G37*
G36*
G01*
X26386649Y-42315076D02*
X26386649Y-42315076D01*
G75*
G02*
X26881623Y-42315076I247487J-247487D01*
G01*
X27447309Y-42880762D01*
G75*
G02*
X27447309Y-43375736I-247487J-247487D01*
G01*
X27447309Y-43375736D01*
G75*
G02*
X26952335Y-43375736I-247487J247487D01*
G01*
X26386649Y-42810050D01*
G75*
G02*
X26386649Y-42315076I247487J247487D01*
G01*
G37*
G36*
G01*
X26740202Y-41961522D02*
X26740202Y-41961522D01*
G75*
G02*
X27235176Y-41961522I247487J-247487D01*
G01*
X27800862Y-42527208D01*
G75*
G02*
X27800862Y-43022182I-247487J-247487D01*
G01*
X27800862Y-43022182D01*
G75*
G02*
X27305888Y-43022182I-247487J247487D01*
G01*
X26740202Y-42456496D01*
G75*
G02*
X26740202Y-41961522I247487J247487D01*
G01*
G37*
G36*
G01*
X27093756Y-41607969D02*
X27093756Y-41607969D01*
G75*
G02*
X27588730Y-41607969I247487J-247487D01*
G01*
X28154416Y-42173655D01*
G75*
G02*
X28154416Y-42668629I-247487J-247487D01*
G01*
X28154416Y-42668629D01*
G75*
G02*
X27659442Y-42668629I-247487J247487D01*
G01*
X27093756Y-42102943D01*
G75*
G02*
X27093756Y-41607969I247487J247487D01*
G01*
G37*
G36*
G01*
X27447309Y-41254416D02*
X27447309Y-41254416D01*
G75*
G02*
X27942283Y-41254416I247487J-247487D01*
G01*
X28507969Y-41820102D01*
G75*
G02*
X28507969Y-42315076I-247487J-247487D01*
G01*
X28507969Y-42315076D01*
G75*
G02*
X28012995Y-42315076I-247487J247487D01*
G01*
X27447309Y-41749390D01*
G75*
G02*
X27447309Y-41254416I247487J247487D01*
G01*
G37*
G36*
G01*
X27800862Y-40900862D02*
X27800862Y-40900862D01*
G75*
G02*
X28295836Y-40900862I247487J-247487D01*
G01*
X28861522Y-41466548D01*
G75*
G02*
X28861522Y-41961522I-247487J-247487D01*
G01*
X28861522Y-41961522D01*
G75*
G02*
X28366548Y-41961522I-247487J247487D01*
G01*
X27800862Y-41395836D01*
G75*
G02*
X27800862Y-40900862I247487J247487D01*
G01*
G37*
G36*
G01*
X28154416Y-40547309D02*
X28154416Y-40547309D01*
G75*
G02*
X28649390Y-40547309I247487J-247487D01*
G01*
X29215076Y-41112995D01*
G75*
G02*
X29215076Y-41607969I-247487J-247487D01*
G01*
X29215076Y-41607969D01*
G75*
G02*
X28720102Y-41607969I-247487J247487D01*
G01*
X28154416Y-41042283D01*
G75*
G02*
X28154416Y-40547309I247487J247487D01*
G01*
G37*
G36*
G01*
X28507969Y-40193756D02*
X28507969Y-40193756D01*
G75*
G02*
X29002943Y-40193756I247487J-247487D01*
G01*
X29568629Y-40759442D01*
G75*
G02*
X29568629Y-41254416I-247487J-247487D01*
G01*
X29568629Y-41254416D01*
G75*
G02*
X29073655Y-41254416I-247487J247487D01*
G01*
X28507969Y-40688730D01*
G75*
G02*
X28507969Y-40193756I247487J247487D01*
G01*
G37*
G36*
G01*
X28861522Y-39840202D02*
X28861522Y-39840202D01*
G75*
G02*
X29356496Y-39840202I247487J-247487D01*
G01*
X29922182Y-40405888D01*
G75*
G02*
X29922182Y-40900862I-247487J-247487D01*
G01*
X29922182Y-40900862D01*
G75*
G02*
X29427208Y-40900862I-247487J247487D01*
G01*
X28861522Y-40335176D01*
G75*
G02*
X28861522Y-39840202I247487J247487D01*
G01*
G37*
G36*
G01*
X29215076Y-39486649D02*
X29215076Y-39486649D01*
G75*
G02*
X29710050Y-39486649I247487J-247487D01*
G01*
X30275736Y-40052335D01*
G75*
G02*
X30275736Y-40547309I-247487J-247487D01*
G01*
X30275736Y-40547309D01*
G75*
G02*
X29780762Y-40547309I-247487J247487D01*
G01*
X29215076Y-39981623D01*
G75*
G02*
X29215076Y-39486649I247487J247487D01*
G01*
G37*
G36*
G01*
X29568629Y-39133095D02*
X29568629Y-39133095D01*
G75*
G02*
X30063603Y-39133095I247487J-247487D01*
G01*
X30629289Y-39698781D01*
G75*
G02*
X30629289Y-40193755I-247487J-247487D01*
G01*
X30629289Y-40193755D01*
G75*
G02*
X30134315Y-40193755I-247487J247487D01*
G01*
X29568629Y-39628069D01*
G75*
G02*
X29568629Y-39133095I247487J247487D01*
G01*
G37*
D17*
X30700000Y-43800000D03*
G36*
G01*
X28843750Y-35800000D02*
X29556250Y-35800000D01*
G75*
G02*
X29875000Y-36118750I0J-318750D01*
G01*
X29875000Y-36756250D01*
G75*
G02*
X29556250Y-37075000I-318750J0D01*
G01*
X28843750Y-37075000D01*
G75*
G02*
X28525000Y-36756250I0J318750D01*
G01*
X28525000Y-36118750D01*
G75*
G02*
X28843750Y-35800000I318750J0D01*
G01*
G37*
G36*
G01*
X28843750Y-34225000D02*
X29556250Y-34225000D01*
G75*
G02*
X29875000Y-34543750I0J-318750D01*
G01*
X29875000Y-35181250D01*
G75*
G02*
X29556250Y-35500000I-318750J0D01*
G01*
X28843750Y-35500000D01*
G75*
G02*
X28525000Y-35181250I0J318750D01*
G01*
X28525000Y-34543750D01*
G75*
G02*
X28843750Y-34225000I318750J0D01*
G01*
G37*
G36*
G01*
X26875000Y-36393750D02*
X26875000Y-37106250D01*
G75*
G02*
X26556250Y-37425000I-318750J0D01*
G01*
X25918750Y-37425000D01*
G75*
G02*
X25600000Y-37106250I0J318750D01*
G01*
X25600000Y-36393750D01*
G75*
G02*
X25918750Y-36075000I318750J0D01*
G01*
X26556250Y-36075000D01*
G75*
G02*
X26875000Y-36393750I0J-318750D01*
G01*
G37*
G36*
G01*
X25300000Y-36393750D02*
X25300000Y-37106250D01*
G75*
G02*
X24981250Y-37425000I-318750J0D01*
G01*
X24343750Y-37425000D01*
G75*
G02*
X24025000Y-37106250I0J318750D01*
G01*
X24025000Y-36393750D01*
G75*
G02*
X24343750Y-36075000I318750J0D01*
G01*
X24981250Y-36075000D01*
G75*
G02*
X25300000Y-36393750I0J-318750D01*
G01*
G37*
G36*
G01*
X35556250Y-35200000D02*
X34843750Y-35200000D01*
G75*
G02*
X34525000Y-34881250I0J318750D01*
G01*
X34525000Y-34243750D01*
G75*
G02*
X34843750Y-33925000I318750J0D01*
G01*
X35556250Y-33925000D01*
G75*
G02*
X35875000Y-34243750I0J-318750D01*
G01*
X35875000Y-34881250D01*
G75*
G02*
X35556250Y-35200000I-318750J0D01*
G01*
G37*
G36*
G01*
X35556250Y-36775000D02*
X34843750Y-36775000D01*
G75*
G02*
X34525000Y-36456250I0J318750D01*
G01*
X34525000Y-35818750D01*
G75*
G02*
X34843750Y-35500000I318750J0D01*
G01*
X35556250Y-35500000D01*
G75*
G02*
X35875000Y-35818750I0J-318750D01*
G01*
X35875000Y-36456250D01*
G75*
G02*
X35556250Y-36775000I-318750J0D01*
G01*
G37*
G36*
G01*
X26015000Y-31625000D02*
X24525000Y-31625000D01*
G75*
G02*
X24195000Y-31295000I0J330000D01*
G01*
X24195000Y-30305000D01*
G75*
G02*
X24525000Y-29975000I330000J0D01*
G01*
X26015000Y-29975000D01*
G75*
G02*
X26345000Y-30305000I0J-330000D01*
G01*
X26345000Y-31295000D01*
G75*
G02*
X26015000Y-31625000I-330000J0D01*
G01*
G37*
G36*
G01*
X26015000Y-34425000D02*
X24525000Y-34425000D01*
G75*
G02*
X24195000Y-34095000I0J330000D01*
G01*
X24195000Y-33105000D01*
G75*
G02*
X24525000Y-32775000I330000J0D01*
G01*
X26015000Y-32775000D01*
G75*
G02*
X26345000Y-33105000I0J-330000D01*
G01*
X26345000Y-34095000D01*
G75*
G02*
X26015000Y-34425000I-330000J0D01*
G01*
G37*
D18*
X24900000Y-38200000D03*
X24900000Y-41500000D03*
D17*
X24920000Y-55240000D03*
X27460000Y-55240000D03*
X30000000Y-55240000D03*
X32540000Y-55240000D03*
X35080000Y-55240000D03*
X22380000Y-27300000D03*
X22380000Y-29840000D03*
X22380000Y-32380000D03*
X22380000Y-34920000D03*
X22380000Y-37460000D03*
X22380000Y-40000000D03*
X22380000Y-42540000D03*
X22380000Y-45080000D03*
X22380000Y-47620000D03*
X22380000Y-50160000D03*
X22380000Y-52700000D03*
X22380000Y-55240000D03*
X37620000Y-55240000D03*
X37620000Y-52700000D03*
X37620000Y-50160000D03*
X37620000Y-47620000D03*
X37620000Y-45080000D03*
X37620000Y-42540000D03*
X37620000Y-40000000D03*
X37620000Y-37460000D03*
X37620000Y-34920000D03*
X37620000Y-32380000D03*
X37620000Y-29840000D03*
X37620000Y-27300000D03*
X30000000Y-32380000D03*
X27460000Y-32380000D03*
G36*
G01*
X28056250Y-36425000D02*
X27343750Y-36425000D01*
G75*
G02*
X27025000Y-36106250I0J318750D01*
G01*
X27025000Y-35468750D01*
G75*
G02*
X27343750Y-35150000I318750J0D01*
G01*
X28056250Y-35150000D01*
G75*
G02*
X28375000Y-35468750I0J-318750D01*
G01*
X28375000Y-36106250D01*
G75*
G02*
X28056250Y-36425000I-318750J0D01*
G01*
G37*
G36*
G01*
X28056250Y-34850000D02*
X27343750Y-34850000D01*
G75*
G02*
X27025000Y-34531250I0J318750D01*
G01*
X27025000Y-33893750D01*
G75*
G02*
X27343750Y-33575000I318750J0D01*
G01*
X28056250Y-33575000D01*
G75*
G02*
X28375000Y-33893750I0J-318750D01*
G01*
X28375000Y-34531250D01*
G75*
G02*
X28056250Y-34850000I-318750J0D01*
G01*
G37*
G36*
G01*
X32556250Y-35400000D02*
X31843750Y-35400000D01*
G75*
G02*
X31525000Y-35081250I0J318750D01*
G01*
X31525000Y-34443750D01*
G75*
G02*
X31843750Y-34125000I318750J0D01*
G01*
X32556250Y-34125000D01*
G75*
G02*
X32875000Y-34443750I0J-318750D01*
G01*
X32875000Y-35081250D01*
G75*
G02*
X32556250Y-35400000I-318750J0D01*
G01*
G37*
G36*
G01*
X32556250Y-36975000D02*
X31843750Y-36975000D01*
G75*
G02*
X31525000Y-36656250I0J318750D01*
G01*
X31525000Y-36018750D01*
G75*
G02*
X31843750Y-35700000I318750J0D01*
G01*
X32556250Y-35700000D01*
G75*
G02*
X32875000Y-36018750I0J-318750D01*
G01*
X32875000Y-36656250D01*
G75*
G02*
X32556250Y-36975000I-318750J0D01*
G01*
G37*
G36*
G01*
X31056250Y-34750000D02*
X30343750Y-34750000D01*
G75*
G02*
X30025000Y-34431250I0J318750D01*
G01*
X30025000Y-33793750D01*
G75*
G02*
X30343750Y-33475000I318750J0D01*
G01*
X31056250Y-33475000D01*
G75*
G02*
X31375000Y-33793750I0J-318750D01*
G01*
X31375000Y-34431250D01*
G75*
G02*
X31056250Y-34750000I-318750J0D01*
G01*
G37*
G36*
G01*
X31056250Y-36325000D02*
X30343750Y-36325000D01*
G75*
G02*
X30025000Y-36006250I0J318750D01*
G01*
X30025000Y-35368750D01*
G75*
G02*
X30343750Y-35050000I318750J0D01*
G01*
X31056250Y-35050000D01*
G75*
G02*
X31375000Y-35368750I0J-318750D01*
G01*
X31375000Y-36006250D01*
G75*
G02*
X31056250Y-36325000I-318750J0D01*
G01*
G37*
G36*
G01*
X34843750Y-30925000D02*
X35556250Y-30925000D01*
G75*
G02*
X35875000Y-31243750I0J-318750D01*
G01*
X35875000Y-31881250D01*
G75*
G02*
X35556250Y-32200000I-318750J0D01*
G01*
X34843750Y-32200000D01*
G75*
G02*
X34525000Y-31881250I0J318750D01*
G01*
X34525000Y-31243750D01*
G75*
G02*
X34843750Y-30925000I318750J0D01*
G01*
G37*
G36*
G01*
X34843750Y-32500000D02*
X35556250Y-32500000D01*
G75*
G02*
X35875000Y-32818750I0J-318750D01*
G01*
X35875000Y-33456250D01*
G75*
G02*
X35556250Y-33775000I-318750J0D01*
G01*
X34843750Y-33775000D01*
G75*
G02*
X34525000Y-33456250I0J318750D01*
G01*
X34525000Y-32818750D01*
G75*
G02*
X34843750Y-32500000I318750J0D01*
G01*
G37*
G36*
G01*
X34056250Y-31500000D02*
X33343750Y-31500000D01*
G75*
G02*
X33025000Y-31181250I0J318750D01*
G01*
X33025000Y-30543750D01*
G75*
G02*
X33343750Y-30225000I318750J0D01*
G01*
X34056250Y-30225000D01*
G75*
G02*
X34375000Y-30543750I0J-318750D01*
G01*
X34375000Y-31181250D01*
G75*
G02*
X34056250Y-31500000I-318750J0D01*
G01*
G37*
G36*
G01*
X34056250Y-33075000D02*
X33343750Y-33075000D01*
G75*
G02*
X33025000Y-32756250I0J318750D01*
G01*
X33025000Y-32118750D01*
G75*
G02*
X33343750Y-31800000I318750J0D01*
G01*
X34056250Y-31800000D01*
G75*
G02*
X34375000Y-32118750I0J-318750D01*
G01*
X34375000Y-32756250D01*
G75*
G02*
X34056250Y-33075000I-318750J0D01*
G01*
G37*
G36*
G01*
X32556250Y-32400000D02*
X31843750Y-32400000D01*
G75*
G02*
X31525000Y-32081250I0J318750D01*
G01*
X31525000Y-31443750D01*
G75*
G02*
X31843750Y-31125000I318750J0D01*
G01*
X32556250Y-31125000D01*
G75*
G02*
X32875000Y-31443750I0J-318750D01*
G01*
X32875000Y-32081250D01*
G75*
G02*
X32556250Y-32400000I-318750J0D01*
G01*
G37*
G36*
G01*
X32556250Y-33975000D02*
X31843750Y-33975000D01*
G75*
G02*
X31525000Y-33656250I0J318750D01*
G01*
X31525000Y-33018750D01*
G75*
G02*
X31843750Y-32700000I318750J0D01*
G01*
X32556250Y-32700000D01*
G75*
G02*
X32875000Y-33018750I0J-318750D01*
G01*
X32875000Y-33656250D01*
G75*
G02*
X32556250Y-33975000I-318750J0D01*
G01*
G37*
G36*
G01*
X28007973Y-38845840D02*
X27504160Y-38342026D01*
G75*
G02*
X27504160Y-37891246I225390J225390D01*
G01*
X27954940Y-37440466D01*
G75*
G02*
X28405720Y-37440466I225390J-225390D01*
G01*
X28909534Y-37944280D01*
G75*
G02*
X28909534Y-38395060I-225390J-225390D01*
G01*
X28458754Y-38845840D01*
G75*
G02*
X28007974Y-38845840I-225390J225390D01*
G01*
G37*
G36*
G01*
X26894279Y-39959534D02*
X26390466Y-39455720D01*
G75*
G02*
X26390466Y-39004940I225390J225390D01*
G01*
X26841246Y-38554160D01*
G75*
G02*
X27292026Y-38554160I225390J-225390D01*
G01*
X27795840Y-39057974D01*
G75*
G02*
X27795840Y-39508754I-225390J-225390D01*
G01*
X27345060Y-39959534D01*
G75*
G02*
X26894280Y-39959534I-225390J225390D01*
G01*
G37*
G36*
G01*
X26150000Y-48406250D02*
X26150000Y-47693750D01*
G75*
G02*
X26468750Y-47375000I318750J0D01*
G01*
X27106250Y-47375000D01*
G75*
G02*
X27425000Y-47693750I0J-318750D01*
G01*
X27425000Y-48406250D01*
G75*
G02*
X27106250Y-48725000I-318750J0D01*
G01*
X26468750Y-48725000D01*
G75*
G02*
X26150000Y-48406250I0J318750D01*
G01*
G37*
G36*
G01*
X24575000Y-48406250D02*
X24575000Y-47693750D01*
G75*
G02*
X24893750Y-47375000I318750J0D01*
G01*
X25531250Y-47375000D01*
G75*
G02*
X25850000Y-47693750I0J-318750D01*
G01*
X25850000Y-48406250D01*
G75*
G02*
X25531250Y-48725000I-318750J0D01*
G01*
X24893750Y-48725000D01*
G75*
G02*
X24575000Y-48406250I0J318750D01*
G01*
G37*
G36*
G01*
X29206250Y-53225000D02*
X28493750Y-53225000D01*
G75*
G02*
X28175000Y-52906250I0J318750D01*
G01*
X28175000Y-52268750D01*
G75*
G02*
X28493750Y-51950000I318750J0D01*
G01*
X29206250Y-51950000D01*
G75*
G02*
X29525000Y-52268750I0J-318750D01*
G01*
X29525000Y-52906250D01*
G75*
G02*
X29206250Y-53225000I-318750J0D01*
G01*
G37*
G36*
G01*
X29206250Y-51650000D02*
X28493750Y-51650000D01*
G75*
G02*
X28175000Y-51331250I0J318750D01*
G01*
X28175000Y-50693750D01*
G75*
G02*
X28493750Y-50375000I318750J0D01*
G01*
X29206250Y-50375000D01*
G75*
G02*
X29525000Y-50693750I0J-318750D01*
G01*
X29525000Y-51331250D01*
G75*
G02*
X29206250Y-51650000I-318750J0D01*
G01*
G37*
G36*
G01*
X25300000Y-34893750D02*
X25300000Y-35606250D01*
G75*
G02*
X24981250Y-35925000I-318750J0D01*
G01*
X24343750Y-35925000D01*
G75*
G02*
X24025000Y-35606250I0J318750D01*
G01*
X24025000Y-34893750D01*
G75*
G02*
X24343750Y-34575000I318750J0D01*
G01*
X24981250Y-34575000D01*
G75*
G02*
X25300000Y-34893750I0J-318750D01*
G01*
G37*
G36*
G01*
X26875000Y-34893750D02*
X26875000Y-35606250D01*
G75*
G02*
X26556250Y-35925000I-318750J0D01*
G01*
X25918750Y-35925000D01*
G75*
G02*
X25600000Y-35606250I0J318750D01*
G01*
X25600000Y-34893750D01*
G75*
G02*
X25918750Y-34575000I318750J0D01*
G01*
X26556250Y-34575000D01*
G75*
G02*
X26875000Y-34893750I0J-318750D01*
G01*
G37*
G36*
G01*
X34056250Y-34500000D02*
X33343750Y-34500000D01*
G75*
G02*
X33025000Y-34181250I0J318750D01*
G01*
X33025000Y-33543750D01*
G75*
G02*
X33343750Y-33225000I318750J0D01*
G01*
X34056250Y-33225000D01*
G75*
G02*
X34375000Y-33543750I0J-318750D01*
G01*
X34375000Y-34181250D01*
G75*
G02*
X34056250Y-34500000I-318750J0D01*
G01*
G37*
G36*
G01*
X34056250Y-36075000D02*
X33343750Y-36075000D01*
G75*
G02*
X33025000Y-35756250I0J318750D01*
G01*
X33025000Y-35118750D01*
G75*
G02*
X33343750Y-34800000I318750J0D01*
G01*
X34056250Y-34800000D01*
G75*
G02*
X34375000Y-35118750I0J-318750D01*
G01*
X34375000Y-35756250D01*
G75*
G02*
X34056250Y-36075000I-318750J0D01*
G01*
G37*
G36*
G01*
X34593750Y-38162500D02*
X35306250Y-38162500D01*
G75*
G02*
X35625000Y-38481250I0J-318750D01*
G01*
X35625000Y-39118750D01*
G75*
G02*
X35306250Y-39437500I-318750J0D01*
G01*
X34593750Y-39437500D01*
G75*
G02*
X34275000Y-39118750I0J318750D01*
G01*
X34275000Y-38481250D01*
G75*
G02*
X34593750Y-38162500I318750J0D01*
G01*
G37*
G36*
G01*
X34593750Y-39737500D02*
X35306250Y-39737500D01*
G75*
G02*
X35625000Y-40056250I0J-318750D01*
G01*
X35625000Y-40693750D01*
G75*
G02*
X35306250Y-41012500I-318750J0D01*
G01*
X34593750Y-41012500D01*
G75*
G02*
X34275000Y-40693750I0J318750D01*
G01*
X34275000Y-40056250D01*
G75*
G02*
X34593750Y-39737500I318750J0D01*
G01*
G37*
G36*
G01*
X31568750Y-49275000D02*
X32281250Y-49275000D01*
G75*
G02*
X32600000Y-49593750I0J-318750D01*
G01*
X32600000Y-50231250D01*
G75*
G02*
X32281250Y-50550000I-318750J0D01*
G01*
X31568750Y-50550000D01*
G75*
G02*
X31250000Y-50231250I0J318750D01*
G01*
X31250000Y-49593750D01*
G75*
G02*
X31568750Y-49275000I318750J0D01*
G01*
G37*
G36*
G01*
X31568750Y-50850000D02*
X32281250Y-50850000D01*
G75*
G02*
X32600000Y-51168750I0J-318750D01*
G01*
X32600000Y-51806250D01*
G75*
G02*
X32281250Y-52125000I-318750J0D01*
G01*
X31568750Y-52125000D01*
G75*
G02*
X31250000Y-51806250I0J318750D01*
G01*
X31250000Y-51168750D01*
G75*
G02*
X31568750Y-50850000I318750J0D01*
G01*
G37*
G36*
G01*
X26775000Y-46193750D02*
X26775000Y-46906250D01*
G75*
G02*
X26456250Y-47225000I-318750J0D01*
G01*
X25818750Y-47225000D01*
G75*
G02*
X25500000Y-46906250I0J318750D01*
G01*
X25500000Y-46193750D01*
G75*
G02*
X25818750Y-45875000I318750J0D01*
G01*
X26456250Y-45875000D01*
G75*
G02*
X26775000Y-46193750I0J-318750D01*
G01*
G37*
G36*
G01*
X25200000Y-46193750D02*
X25200000Y-46906250D01*
G75*
G02*
X24881250Y-47225000I-318750J0D01*
G01*
X24243750Y-47225000D01*
G75*
G02*
X23925000Y-46906250I0J318750D01*
G01*
X23925000Y-46193750D01*
G75*
G02*
X24243750Y-45875000I318750J0D01*
G01*
X24881250Y-45875000D01*
G75*
G02*
X25200000Y-46193750I0J-318750D01*
G01*
G37*
M02*
