G04 #@! TF.GenerationSoftware,KiCad,Pcbnew,(5.1.6)-1*
G04 #@! TF.CreationDate,2020-12-03T15:36:38+08:00*
G04 #@! TF.ProjectId,Alvaro,416c7661-726f-42e6-9b69-6361645f7063,rev?*
G04 #@! TF.SameCoordinates,Original*
G04 #@! TF.FileFunction,Soldermask,Bot*
G04 #@! TF.FilePolarity,Negative*
%FSLAX46Y46*%
G04 Gerber Fmt 4.6, Leading zero omitted, Abs format (unit mm)*
G04 Created by KiCad (PCBNEW (5.1.6)-1) date 2020-12-03 15:36:38*
%MOMM*%
%LPD*%
G01*
G04 APERTURE LIST*
%ADD10R,1.600000X1.800000*%
%ADD11O,1.400000X2.200000*%
%ADD12O,1.400000X2.600000*%
%ADD13C,2.100000*%
G04 APERTURE END LIST*
D10*
X25250000Y-52149000D03*
X25250000Y-49949000D03*
X26850000Y-49949000D03*
X26850000Y-52149000D03*
D11*
X24425000Y-28600000D03*
X35575000Y-28600000D03*
D12*
X24425000Y-24600000D03*
X35575000Y-24600000D03*
D13*
X30700000Y-43800000D03*
X24920000Y-55240000D03*
X27460000Y-55240000D03*
X30000000Y-55240000D03*
X32540000Y-55240000D03*
X35080000Y-55240000D03*
X22380000Y-27300000D03*
X22380000Y-29840000D03*
X22380000Y-32380000D03*
X22380000Y-34920000D03*
X22380000Y-37460000D03*
X22380000Y-40000000D03*
X22380000Y-42540000D03*
X22380000Y-45080000D03*
X22380000Y-47620000D03*
X22380000Y-50160000D03*
X22380000Y-52700000D03*
X22380000Y-55240000D03*
X37620000Y-55240000D03*
X37620000Y-52700000D03*
X37620000Y-50160000D03*
X37620000Y-47620000D03*
X37620000Y-45080000D03*
X37620000Y-42540000D03*
X37620000Y-40000000D03*
X37620000Y-37460000D03*
X37620000Y-34920000D03*
X37620000Y-32380000D03*
X37620000Y-29840000D03*
X37620000Y-27300000D03*
X30000000Y-32380000D03*
X27460000Y-32380000D03*
M02*
