G04 #@! TF.GenerationSoftware,KiCad,Pcbnew,(6.0.0)*
G04 #@! TF.CreationDate,2021-12-27T00:15:52+08:00*
G04 #@! TF.ProjectId,Alvaro v2,416c7661-726f-4207-9632-2e6b69636164,rev?*
G04 #@! TF.SameCoordinates,Original*
G04 #@! TF.FileFunction,Paste,Top*
G04 #@! TF.FilePolarity,Positive*
%FSLAX46Y46*%
G04 Gerber Fmt 4.6, Leading zero omitted, Abs format (unit mm)*
G04 Created by KiCad (PCBNEW (6.0.0)) date 2021-12-27 00:15:52*
%MOMM*%
%LPD*%
G01*
G04 APERTURE LIST*
G04 Aperture macros list*
%AMRoundRect*
0 Rectangle with rounded corners*
0 $1 Rounding radius*
0 $2 $3 $4 $5 $6 $7 $8 $9 X,Y pos of 4 corners*
0 Add a 4 corners polygon primitive as box body*
4,1,4,$2,$3,$4,$5,$6,$7,$8,$9,$2,$3,0*
0 Add four circle primitives for the rounded corners*
1,1,$1+$1,$2,$3*
1,1,$1+$1,$4,$5*
1,1,$1+$1,$6,$7*
1,1,$1+$1,$8,$9*
0 Add four rect primitives between the rounded corners*
20,1,$1+$1,$2,$3,$4,$5,0*
20,1,$1+$1,$4,$5,$6,$7,0*
20,1,$1+$1,$6,$7,$8,$9,0*
20,1,$1+$1,$8,$9,$2,$3,0*%
%AMHorizOval*
0 Thick line with rounded ends*
0 $1 width*
0 $2 $3 position (X,Y) of the first rounded end (center of the circle)*
0 $4 $5 position (X,Y) of the second rounded end (center of the circle)*
0 Add line between two ends*
20,1,$1,$2,$3,$4,$5,0*
0 Add two circle primitives to create the rounded ends*
1,1,$1,$2,$3*
1,1,$1,$4,$5*%
%AMRotRect*
0 Rectangle, with rotation*
0 The origin of the aperture is its center*
0 $1 length*
0 $2 width*
0 $3 Rotation angle, in degrees counterclockwise*
0 Add horizontal line*
21,1,$1,$2,0,0,$3*%
G04 Aperture macros list end*
%ADD10R,0.600000X0.800000*%
%ADD11R,0.300000X0.800000*%
%ADD12RoundRect,0.218750X-0.218750X-0.256250X0.218750X-0.256250X0.218750X0.256250X-0.218750X0.256250X0*%
%ADD13RoundRect,0.218750X0.256250X-0.218750X0.256250X0.218750X-0.256250X0.218750X-0.256250X-0.218750X0*%
%ADD14R,1.200000X0.900000*%
%ADD15RoundRect,0.218750X-0.256250X0.218750X-0.256250X-0.218750X0.256250X-0.218750X0.256250X0.218750X0*%
%ADD16RotRect,0.830000X0.830000X315.000000*%
%ADD17HorizOval,0.300000X0.282843X-0.282843X-0.282843X0.282843X0*%
%ADD18HorizOval,0.300000X0.282843X0.282843X-0.282843X-0.282843X0*%
%ADD19RoundRect,0.218750X0.218750X0.256250X-0.218750X0.256250X-0.218750X-0.256250X0.218750X-0.256250X0*%
%ADD20RoundRect,0.250000X0.625000X-0.375000X0.625000X0.375000X-0.625000X0.375000X-0.625000X-0.375000X0*%
%ADD21RoundRect,0.218750X0.026517X-0.335876X0.335876X-0.026517X-0.026517X0.335876X-0.335876X0.026517X0*%
%ADD22RoundRect,0.250000X0.337500X0.475000X-0.337500X0.475000X-0.337500X-0.475000X0.337500X-0.475000X0*%
%ADD23RoundRect,0.250000X-0.350000X-0.450000X0.350000X-0.450000X0.350000X0.450000X-0.350000X0.450000X0*%
%ADD24RoundRect,0.250000X0.350000X0.450000X-0.350000X0.450000X-0.350000X-0.450000X0.350000X-0.450000X0*%
%ADD25R,1.700000X0.600000*%
%ADD26R,2.800000X2.500000*%
G04 APERTURE END LIST*
D10*
X71092000Y-20920000D03*
X77492000Y-20920000D03*
X71892000Y-20920000D03*
X76692000Y-20920000D03*
D11*
X75542000Y-20920000D03*
X74542000Y-20920000D03*
X74042000Y-20920000D03*
X73042000Y-20920000D03*
X72542000Y-20920000D03*
X73542000Y-20920000D03*
X75042000Y-20920000D03*
X76042000Y-20920000D03*
D12*
X69504500Y-39470000D03*
X71079500Y-39470000D03*
D13*
X73142000Y-44007500D03*
X73142000Y-42432500D03*
X71992000Y-27207500D03*
X71992000Y-25632500D03*
X77992000Y-26857500D03*
X77992000Y-25282500D03*
D14*
X69192000Y-32920000D03*
X69192000Y-29620000D03*
D15*
X79492000Y-22982500D03*
X79492000Y-24557500D03*
D13*
X76492000Y-24757500D03*
X76492000Y-23182500D03*
D16*
X76448640Y-36676640D03*
X74992000Y-32306720D03*
X74263680Y-37404960D03*
X74992000Y-38133280D03*
X74263680Y-35948320D03*
X73535360Y-33763360D03*
X77176960Y-34491680D03*
X74263680Y-33035040D03*
X72078720Y-35220000D03*
X76448640Y-35220000D03*
X74263680Y-34491680D03*
X75720320Y-33035040D03*
X77905280Y-35220000D03*
X74992000Y-36676640D03*
X72807040Y-34491680D03*
X75720320Y-37404960D03*
X73535360Y-35220000D03*
X72807040Y-35948320D03*
X75720320Y-35948320D03*
X74992000Y-33763360D03*
X77176960Y-35948320D03*
X74992000Y-35220000D03*
X75720320Y-34491680D03*
X73535360Y-36676640D03*
X76448640Y-33763360D03*
D17*
X74390959Y-31083425D03*
X74037406Y-31436979D03*
X73683852Y-31790532D03*
X73330299Y-32144086D03*
X72976746Y-32497639D03*
X72623192Y-32851192D03*
X72269639Y-33204746D03*
X71916086Y-33558299D03*
X71562532Y-33911852D03*
X71208979Y-34265406D03*
X70855425Y-34618959D03*
D18*
X70855425Y-35821041D03*
X71208979Y-36174594D03*
X71562532Y-36528148D03*
X71916086Y-36881701D03*
X72269639Y-37235254D03*
X72623192Y-37588808D03*
X72976746Y-37942361D03*
X73330299Y-38295914D03*
X73683852Y-38649468D03*
X74037406Y-39003021D03*
X74390959Y-39356575D03*
D17*
X75593041Y-39356575D03*
X75946594Y-39003021D03*
X76300148Y-38649468D03*
X76653701Y-38295914D03*
X77007254Y-37942361D03*
X77360808Y-37588808D03*
X77714361Y-37235254D03*
X78067914Y-36881701D03*
X78421468Y-36528148D03*
X78775021Y-36174594D03*
X79128575Y-35821041D03*
D18*
X79128575Y-34618959D03*
X78775021Y-34265406D03*
X78421468Y-33911852D03*
X78067914Y-33558299D03*
X77714361Y-33204746D03*
X77360808Y-32851192D03*
X77007254Y-32497639D03*
X76653701Y-32144086D03*
X76300148Y-31790532D03*
X75946594Y-31436979D03*
X75593041Y-31083425D03*
D19*
X70529500Y-28170000D03*
X68954500Y-28170000D03*
D13*
X79492000Y-27557500D03*
X79492000Y-25982500D03*
D15*
X79242000Y-30220000D03*
X79242000Y-31795000D03*
X76217000Y-41332500D03*
X76217000Y-42907500D03*
D13*
X77992000Y-23857500D03*
X77992000Y-22282500D03*
D20*
X69562000Y-25020000D03*
X69562000Y-22220000D03*
D21*
X71385153Y-30676847D03*
X72498847Y-29563153D03*
D19*
X70529500Y-26670000D03*
X68954500Y-26670000D03*
D13*
X76492000Y-27757500D03*
X76492000Y-26182500D03*
D19*
X70429500Y-37970000D03*
X68854500Y-37970000D03*
D13*
X74992000Y-27107500D03*
X74992000Y-25532500D03*
D15*
X73492000Y-26282500D03*
X73492000Y-27857500D03*
D22*
X122222500Y-40460000D03*
X120147500Y-40460000D03*
D23*
X120155000Y-51870000D03*
X122155000Y-51870000D03*
X120215000Y-44080000D03*
X122215000Y-44080000D03*
D24*
X122135000Y-49830000D03*
X120135000Y-49830000D03*
D25*
X110795000Y-51230000D03*
X110795000Y-50230000D03*
X110795000Y-49230000D03*
X110795000Y-48230000D03*
X110795000Y-47230000D03*
X110795000Y-46230000D03*
X110795000Y-45230000D03*
X110795000Y-44230000D03*
X110795000Y-43230000D03*
X110795000Y-42230000D03*
X110795000Y-41230000D03*
X110795000Y-40230000D03*
D26*
X108345000Y-53980000D03*
X108345000Y-37480000D03*
M02*
