G04 #@! TF.GenerationSoftware,KiCad,Pcbnew,(6.0.0)*
G04 #@! TF.CreationDate,2021-12-27T00:15:52+08:00*
G04 #@! TF.ProjectId,Alvaro v2,416c7661-726f-4207-9632-2e6b69636164,rev?*
G04 #@! TF.SameCoordinates,Original*
G04 #@! TF.FileFunction,Legend,Bot*
G04 #@! TF.FilePolarity,Positive*
%FSLAX46Y46*%
G04 Gerber Fmt 4.6, Leading zero omitted, Abs format (unit mm)*
G04 Created by KiCad (PCBNEW (6.0.0)) date 2021-12-27 00:15:52*
%MOMM*%
%LPD*%
G01*
G04 APERTURE LIST*
%ADD10C,0.080000*%
%ADD11C,0.150000*%
G04 APERTURE END LIST*
D10*
X77065333Y-45213000D02*
X77298666Y-45213000D01*
X77298666Y-45579666D02*
X77298666Y-44879666D01*
X76965333Y-44879666D01*
X76332000Y-45579666D02*
X76732000Y-45579666D01*
X76532000Y-45579666D02*
X76532000Y-44879666D01*
X76598666Y-44979666D01*
X76665333Y-45046333D01*
X76732000Y-45079666D01*
X68119000Y-42063333D02*
X68119000Y-41830000D01*
X67752333Y-41730000D02*
X67752333Y-42063333D01*
X68452333Y-42063333D01*
X68452333Y-41730000D01*
X68452333Y-41130000D02*
X68452333Y-41263333D01*
X68419000Y-41330000D01*
X68385666Y-41363333D01*
X68285666Y-41430000D01*
X68152333Y-41463333D01*
X67885666Y-41463333D01*
X67819000Y-41430000D01*
X67785666Y-41396666D01*
X67752333Y-41330000D01*
X67752333Y-41196666D01*
X67785666Y-41130000D01*
X67819000Y-41096666D01*
X67885666Y-41063333D01*
X68052333Y-41063333D01*
X68119000Y-41096666D01*
X68152333Y-41130000D01*
X68185666Y-41196666D01*
X68185666Y-41330000D01*
X68152333Y-41396666D01*
X68119000Y-41430000D01*
X68052333Y-41463333D01*
X68106991Y-45281297D02*
X68059851Y-45375578D01*
X68059851Y-45422719D01*
X68083421Y-45493429D01*
X68154132Y-45564140D01*
X68224842Y-45587710D01*
X68271983Y-45587710D01*
X68342693Y-45564140D01*
X68531255Y-45375578D01*
X68036280Y-44880603D01*
X67871289Y-45045595D01*
X67847719Y-45116306D01*
X67847719Y-45163446D01*
X67871289Y-45234157D01*
X67918429Y-45281297D01*
X67989140Y-45304867D01*
X68036280Y-45304867D01*
X68106991Y-45281297D01*
X68271983Y-45116306D01*
X67305603Y-45611280D02*
X67541306Y-45375578D01*
X67800578Y-45587710D01*
X67753438Y-45587710D01*
X67682727Y-45611280D01*
X67564876Y-45729132D01*
X67541306Y-45799842D01*
X67541306Y-45846983D01*
X67564876Y-45917693D01*
X67682727Y-46035544D01*
X67753438Y-46059115D01*
X67800578Y-46059115D01*
X67871289Y-46035544D01*
X67989140Y-45917693D01*
X68012710Y-45846983D01*
X68012710Y-45799842D01*
X80465000Y-43836666D02*
X80498333Y-43936666D01*
X80531666Y-43970000D01*
X80598333Y-44003333D01*
X80698333Y-44003333D01*
X80765000Y-43970000D01*
X80798333Y-43936666D01*
X80831666Y-43870000D01*
X80831666Y-43603333D01*
X80131666Y-43603333D01*
X80131666Y-43836666D01*
X80165000Y-43903333D01*
X80198333Y-43936666D01*
X80265000Y-43970000D01*
X80331666Y-43970000D01*
X80398333Y-43936666D01*
X80431666Y-43903333D01*
X80465000Y-43836666D01*
X80465000Y-43603333D01*
X80198333Y-44270000D02*
X80165000Y-44303333D01*
X80131666Y-44370000D01*
X80131666Y-44536666D01*
X80165000Y-44603333D01*
X80198333Y-44636666D01*
X80265000Y-44670000D01*
X80331666Y-44670000D01*
X80431666Y-44636666D01*
X80831666Y-44236666D01*
X80831666Y-44670000D01*
X80465000Y-41296666D02*
X80498333Y-41396666D01*
X80531666Y-41430000D01*
X80598333Y-41463333D01*
X80698333Y-41463333D01*
X80765000Y-41430000D01*
X80798333Y-41396666D01*
X80831666Y-41330000D01*
X80831666Y-41063333D01*
X80131666Y-41063333D01*
X80131666Y-41296666D01*
X80165000Y-41363333D01*
X80198333Y-41396666D01*
X80265000Y-41430000D01*
X80331666Y-41430000D01*
X80398333Y-41396666D01*
X80431666Y-41363333D01*
X80465000Y-41296666D01*
X80465000Y-41063333D01*
X80131666Y-41696666D02*
X80131666Y-42130000D01*
X80398333Y-41896666D01*
X80398333Y-41996666D01*
X80431666Y-42063333D01*
X80465000Y-42096666D01*
X80531666Y-42130000D01*
X80698333Y-42130000D01*
X80765000Y-42096666D01*
X80798333Y-42063333D01*
X80831666Y-41996666D01*
X80831666Y-41796666D01*
X80798333Y-41730000D01*
X80765000Y-41696666D01*
X67752333Y-29396666D02*
X68452333Y-29396666D01*
X68452333Y-29230000D01*
X68419000Y-29130000D01*
X68352333Y-29063333D01*
X68285666Y-29030000D01*
X68152333Y-28996666D01*
X68052333Y-28996666D01*
X67919000Y-29030000D01*
X67852333Y-29063333D01*
X67785666Y-29130000D01*
X67752333Y-29230000D01*
X67752333Y-29396666D01*
X67752333Y-28330000D02*
X67752333Y-28730000D01*
X67752333Y-28530000D02*
X68452333Y-28530000D01*
X68352333Y-28596666D01*
X68285666Y-28663333D01*
X68252333Y-28730000D01*
X68839666Y-21957666D02*
X68839666Y-21257666D01*
X68673000Y-21257666D01*
X68573000Y-21291000D01*
X68506333Y-21357666D01*
X68473000Y-21424333D01*
X68439666Y-21557666D01*
X68439666Y-21657666D01*
X68473000Y-21791000D01*
X68506333Y-21857666D01*
X68573000Y-21924333D01*
X68673000Y-21957666D01*
X68839666Y-21957666D01*
X68173000Y-21324333D02*
X68139666Y-21291000D01*
X68073000Y-21257666D01*
X67906333Y-21257666D01*
X67839666Y-21291000D01*
X67806333Y-21324333D01*
X67773000Y-21391000D01*
X67773000Y-21457666D01*
X67806333Y-21557666D01*
X68206333Y-21957666D01*
X67773000Y-21957666D01*
X68419000Y-26873333D02*
X68452333Y-26940000D01*
X68452333Y-27040000D01*
X68419000Y-27140000D01*
X68352333Y-27206666D01*
X68285666Y-27240000D01*
X68152333Y-27273333D01*
X68052333Y-27273333D01*
X67919000Y-27240000D01*
X67852333Y-27206666D01*
X67785666Y-27140000D01*
X67752333Y-27040000D01*
X67752333Y-26973333D01*
X67785666Y-26873333D01*
X67819000Y-26840000D01*
X68052333Y-26840000D01*
X68052333Y-26973333D01*
X67752333Y-26540000D02*
X68452333Y-26540000D01*
X67752333Y-26140000D01*
X68452333Y-26140000D01*
X67752333Y-25806666D02*
X68452333Y-25806666D01*
X68452333Y-25640000D01*
X68419000Y-25540000D01*
X68352333Y-25473333D01*
X68285666Y-25440000D01*
X68152333Y-25406666D01*
X68052333Y-25406666D01*
X67919000Y-25440000D01*
X67852333Y-25473333D01*
X67785666Y-25540000D01*
X67752333Y-25640000D01*
X67752333Y-25806666D01*
X67752333Y-34476666D02*
X68452333Y-34476666D01*
X68452333Y-34310000D01*
X68419000Y-34210000D01*
X68352333Y-34143333D01*
X68285666Y-34110000D01*
X68152333Y-34076666D01*
X68052333Y-34076666D01*
X67919000Y-34110000D01*
X67852333Y-34143333D01*
X67785666Y-34210000D01*
X67752333Y-34310000D01*
X67752333Y-34476666D01*
X68219000Y-33476666D02*
X67752333Y-33476666D01*
X68485666Y-33643333D02*
X67985666Y-33810000D01*
X67985666Y-33376666D01*
X67752333Y-39556666D02*
X68452333Y-39556666D01*
X68452333Y-39390000D01*
X68419000Y-39290000D01*
X68352333Y-39223333D01*
X68285666Y-39190000D01*
X68152333Y-39156666D01*
X68052333Y-39156666D01*
X67919000Y-39190000D01*
X67852333Y-39223333D01*
X67785666Y-39290000D01*
X67752333Y-39390000D01*
X67752333Y-39556666D01*
X68452333Y-38923333D02*
X68452333Y-38456666D01*
X67752333Y-38756666D01*
X67752333Y-31936666D02*
X68452333Y-31936666D01*
X68452333Y-31770000D01*
X68419000Y-31670000D01*
X68352333Y-31603333D01*
X68285666Y-31570000D01*
X68152333Y-31536666D01*
X68052333Y-31536666D01*
X67919000Y-31570000D01*
X67852333Y-31603333D01*
X67785666Y-31670000D01*
X67752333Y-31770000D01*
X67752333Y-31936666D01*
X68452333Y-31103333D02*
X68452333Y-31036666D01*
X68419000Y-30970000D01*
X68385666Y-30936666D01*
X68319000Y-30903333D01*
X68185666Y-30870000D01*
X68019000Y-30870000D01*
X67885666Y-30903333D01*
X67819000Y-30936666D01*
X67785666Y-30970000D01*
X67752333Y-31036666D01*
X67752333Y-31103333D01*
X67785666Y-31170000D01*
X67819000Y-31203333D01*
X67885666Y-31236666D01*
X68019000Y-31270000D01*
X68185666Y-31270000D01*
X68319000Y-31236666D01*
X68385666Y-31203333D01*
X68419000Y-31170000D01*
X68452333Y-31103333D01*
X74112000Y-22520000D02*
X73578666Y-22520000D01*
X73245333Y-22786666D02*
X73245333Y-22086666D01*
X73078666Y-22086666D01*
X72978666Y-22120000D01*
X72912000Y-22186666D01*
X72878666Y-22253333D01*
X72845333Y-22386666D01*
X72845333Y-22486666D01*
X72878666Y-22620000D01*
X72912000Y-22686666D01*
X72978666Y-22753333D01*
X73078666Y-22786666D01*
X73245333Y-22786666D01*
X72545333Y-22520000D02*
X72012000Y-22520000D01*
X72278666Y-22786666D02*
X72278666Y-22253333D01*
X80375333Y-21220000D02*
X80442000Y-21186666D01*
X80542000Y-21186666D01*
X80642000Y-21220000D01*
X80708666Y-21286666D01*
X80742000Y-21353333D01*
X80775333Y-21486666D01*
X80775333Y-21586666D01*
X80742000Y-21720000D01*
X80708666Y-21786666D01*
X80642000Y-21853333D01*
X80542000Y-21886666D01*
X80475333Y-21886666D01*
X80375333Y-21853333D01*
X80342000Y-21820000D01*
X80342000Y-21586666D01*
X80475333Y-21586666D01*
X80042000Y-21886666D02*
X80042000Y-21186666D01*
X79642000Y-21886666D01*
X79642000Y-21186666D01*
X79308666Y-21886666D02*
X79308666Y-21186666D01*
X79142000Y-21186666D01*
X79042000Y-21220000D01*
X78975333Y-21286666D01*
X78942000Y-21353333D01*
X78908666Y-21486666D01*
X78908666Y-21586666D01*
X78942000Y-21720000D01*
X78975333Y-21786666D01*
X79042000Y-21853333D01*
X79142000Y-21886666D01*
X79308666Y-21886666D01*
X80831666Y-23416666D02*
X80498333Y-23183333D01*
X80831666Y-23016666D02*
X80131666Y-23016666D01*
X80131666Y-23283333D01*
X80165000Y-23350000D01*
X80198333Y-23383333D01*
X80265000Y-23416666D01*
X80365000Y-23416666D01*
X80431666Y-23383333D01*
X80465000Y-23350000D01*
X80498333Y-23283333D01*
X80498333Y-23016666D01*
X80798333Y-23683333D02*
X80831666Y-23783333D01*
X80831666Y-23950000D01*
X80798333Y-24016666D01*
X80765000Y-24050000D01*
X80698333Y-24083333D01*
X80631666Y-24083333D01*
X80565000Y-24050000D01*
X80531666Y-24016666D01*
X80498333Y-23950000D01*
X80465000Y-23816666D01*
X80431666Y-23750000D01*
X80398333Y-23716666D01*
X80331666Y-23683333D01*
X80265000Y-23683333D01*
X80198333Y-23716666D01*
X80165000Y-23750000D01*
X80131666Y-23816666D01*
X80131666Y-23983333D01*
X80165000Y-24083333D01*
X80131666Y-24283333D02*
X80131666Y-24683333D01*
X80831666Y-24483333D02*
X80131666Y-24483333D01*
X67819000Y-36616666D02*
X67785666Y-36650000D01*
X67752333Y-36750000D01*
X67752333Y-36816666D01*
X67785666Y-36916666D01*
X67852333Y-36983333D01*
X67919000Y-37016666D01*
X68052333Y-37050000D01*
X68152333Y-37050000D01*
X68285666Y-37016666D01*
X68352333Y-36983333D01*
X68419000Y-36916666D01*
X68452333Y-36816666D01*
X68452333Y-36750000D01*
X68419000Y-36650000D01*
X68385666Y-36616666D01*
X68452333Y-36016666D02*
X68452333Y-36150000D01*
X68419000Y-36216666D01*
X68385666Y-36250000D01*
X68285666Y-36316666D01*
X68152333Y-36350000D01*
X67885666Y-36350000D01*
X67819000Y-36316666D01*
X67785666Y-36283333D01*
X67752333Y-36216666D01*
X67752333Y-36083333D01*
X67785666Y-36016666D01*
X67819000Y-35983333D01*
X67885666Y-35950000D01*
X68052333Y-35950000D01*
X68119000Y-35983333D01*
X68152333Y-36016666D01*
X68185666Y-36083333D01*
X68185666Y-36216666D01*
X68152333Y-36283333D01*
X68119000Y-36316666D01*
X68052333Y-36350000D01*
X80131666Y-25406666D02*
X80831666Y-25640000D01*
X80131666Y-25873333D01*
X80765000Y-26506666D02*
X80798333Y-26473333D01*
X80831666Y-26373333D01*
X80831666Y-26306666D01*
X80798333Y-26206666D01*
X80731666Y-26140000D01*
X80665000Y-26106666D01*
X80531666Y-26073333D01*
X80431666Y-26073333D01*
X80298333Y-26106666D01*
X80231666Y-26140000D01*
X80165000Y-26206666D01*
X80131666Y-26306666D01*
X80131666Y-26373333D01*
X80165000Y-26473333D01*
X80198333Y-26506666D01*
X80765000Y-27206666D02*
X80798333Y-27173333D01*
X80831666Y-27073333D01*
X80831666Y-27006666D01*
X80798333Y-26906666D01*
X80731666Y-26840000D01*
X80665000Y-26806666D01*
X80531666Y-26773333D01*
X80431666Y-26773333D01*
X80298333Y-26806666D01*
X80231666Y-26840000D01*
X80165000Y-26906666D01*
X80131666Y-27006666D01*
X80131666Y-27073333D01*
X80165000Y-27173333D01*
X80198333Y-27206666D01*
X80465000Y-28646666D02*
X80465000Y-28413333D01*
X80831666Y-28413333D02*
X80131666Y-28413333D01*
X80131666Y-28746666D01*
X80365000Y-29313333D02*
X80831666Y-29313333D01*
X80098333Y-29146666D02*
X80598333Y-28980000D01*
X80598333Y-29413333D01*
X80465000Y-31186666D02*
X80465000Y-30953333D01*
X80831666Y-30953333D02*
X80131666Y-30953333D01*
X80131666Y-31286666D01*
X80131666Y-31886666D02*
X80131666Y-31553333D01*
X80465000Y-31520000D01*
X80431666Y-31553333D01*
X80398333Y-31620000D01*
X80398333Y-31786666D01*
X80431666Y-31853333D01*
X80465000Y-31886666D01*
X80531666Y-31920000D01*
X80698333Y-31920000D01*
X80765000Y-31886666D01*
X80798333Y-31853333D01*
X80831666Y-31786666D01*
X80831666Y-31620000D01*
X80798333Y-31553333D01*
X80765000Y-31520000D01*
X80465000Y-33726666D02*
X80465000Y-33493333D01*
X80831666Y-33493333D02*
X80131666Y-33493333D01*
X80131666Y-33826666D01*
X80131666Y-34393333D02*
X80131666Y-34260000D01*
X80165000Y-34193333D01*
X80198333Y-34160000D01*
X80298333Y-34093333D01*
X80431666Y-34060000D01*
X80698333Y-34060000D01*
X80765000Y-34093333D01*
X80798333Y-34126666D01*
X80831666Y-34193333D01*
X80831666Y-34326666D01*
X80798333Y-34393333D01*
X80765000Y-34426666D01*
X80698333Y-34460000D01*
X80531666Y-34460000D01*
X80465000Y-34426666D01*
X80431666Y-34393333D01*
X80398333Y-34326666D01*
X80398333Y-34193333D01*
X80431666Y-34126666D01*
X80465000Y-34093333D01*
X80531666Y-34060000D01*
X80465000Y-36266666D02*
X80465000Y-36033333D01*
X80831666Y-36033333D02*
X80131666Y-36033333D01*
X80131666Y-36366666D01*
X80131666Y-36566666D02*
X80131666Y-37033333D01*
X80831666Y-36733333D01*
X80465000Y-38756666D02*
X80498333Y-38856666D01*
X80531666Y-38890000D01*
X80598333Y-38923333D01*
X80698333Y-38923333D01*
X80765000Y-38890000D01*
X80798333Y-38856666D01*
X80831666Y-38790000D01*
X80831666Y-38523333D01*
X80131666Y-38523333D01*
X80131666Y-38756666D01*
X80165000Y-38823333D01*
X80198333Y-38856666D01*
X80265000Y-38890000D01*
X80331666Y-38890000D01*
X80398333Y-38856666D01*
X80431666Y-38823333D01*
X80465000Y-38756666D01*
X80465000Y-38523333D01*
X80831666Y-39590000D02*
X80831666Y-39190000D01*
X80831666Y-39390000D02*
X80131666Y-39390000D01*
X80231666Y-39323333D01*
X80298333Y-39256666D01*
X80331666Y-39190000D01*
X74408666Y-45513000D02*
X74442000Y-45546333D01*
X74542000Y-45579666D01*
X74608666Y-45579666D01*
X74708666Y-45546333D01*
X74775333Y-45479666D01*
X74808666Y-45413000D01*
X74842000Y-45279666D01*
X74842000Y-45179666D01*
X74808666Y-45046333D01*
X74775333Y-44979666D01*
X74708666Y-44913000D01*
X74608666Y-44879666D01*
X74542000Y-44879666D01*
X74442000Y-44913000D01*
X74408666Y-44946333D01*
X74175333Y-44879666D02*
X73708666Y-44879666D01*
X74008666Y-45579666D01*
X68838667Y-18889666D02*
X68838667Y-18189666D01*
X68672001Y-18189666D01*
X68572001Y-18223000D01*
X68505334Y-18289666D01*
X68472001Y-18356333D01*
X68438667Y-18489666D01*
X68438667Y-18589666D01*
X68472001Y-18723000D01*
X68505334Y-18789666D01*
X68572001Y-18856333D01*
X68672001Y-18889666D01*
X68838667Y-18889666D01*
X68205334Y-18189666D02*
X67772001Y-18189666D01*
X68005334Y-18456333D01*
X67905334Y-18456333D01*
X67838667Y-18489666D01*
X67805334Y-18523000D01*
X67772001Y-18589666D01*
X67772001Y-18756333D01*
X67805334Y-18823000D01*
X67838667Y-18856333D01*
X67905334Y-18889666D01*
X68105334Y-18889666D01*
X68172001Y-18856333D01*
X68205334Y-18823000D01*
X68119000Y-44403333D02*
X68085666Y-44303333D01*
X68052333Y-44270000D01*
X67985666Y-44236666D01*
X67885666Y-44236666D01*
X67819000Y-44270000D01*
X67785666Y-44303333D01*
X67752333Y-44370000D01*
X67752333Y-44636666D01*
X68452333Y-44636666D01*
X68452333Y-44403333D01*
X68419000Y-44336666D01*
X68385666Y-44303333D01*
X68319000Y-44270000D01*
X68252333Y-44270000D01*
X68185666Y-44303333D01*
X68152333Y-44336666D01*
X68119000Y-44403333D01*
X68119000Y-44636666D01*
X68219000Y-43636666D02*
X67752333Y-43636666D01*
X68485666Y-43803333D02*
X67985666Y-43970000D01*
X67985666Y-43536666D01*
X81004702Y-45681991D02*
X80910421Y-45634851D01*
X80863280Y-45634851D01*
X80792570Y-45658421D01*
X80721859Y-45729132D01*
X80698289Y-45799842D01*
X80698289Y-45846983D01*
X80721859Y-45917693D01*
X80910421Y-46106255D01*
X81405396Y-45611280D01*
X81240404Y-45446289D01*
X81169693Y-45422719D01*
X81122553Y-45422719D01*
X81051842Y-45446289D01*
X81004702Y-45493429D01*
X80981132Y-45564140D01*
X80981132Y-45611280D01*
X81004702Y-45681991D01*
X81169693Y-45846983D01*
X80698289Y-44904174D02*
X80792570Y-44998455D01*
X80816140Y-45069165D01*
X80816140Y-45116306D01*
X80792570Y-45234157D01*
X80721859Y-45352008D01*
X80533297Y-45540570D01*
X80462587Y-45564140D01*
X80415446Y-45564140D01*
X80344735Y-45540570D01*
X80250455Y-45446289D01*
X80226884Y-45375578D01*
X80226884Y-45328438D01*
X80250455Y-45257727D01*
X80368306Y-45139876D01*
X80439016Y-45116306D01*
X80486157Y-45116306D01*
X80556867Y-45139876D01*
X80651148Y-45234157D01*
X80674719Y-45304867D01*
X80674719Y-45352008D01*
X80651148Y-45422719D01*
X79605333Y-45213000D02*
X79838666Y-45213000D01*
X79838666Y-45579666D02*
X79838666Y-44879666D01*
X79505333Y-44879666D01*
X79105333Y-44879666D02*
X79038666Y-44879666D01*
X78972000Y-44913000D01*
X78938666Y-44946333D01*
X78905333Y-45013000D01*
X78872000Y-45146333D01*
X78872000Y-45313000D01*
X78905333Y-45446333D01*
X78938666Y-45513000D01*
X78972000Y-45546333D01*
X79038666Y-45579666D01*
X79105333Y-45579666D01*
X79172000Y-45546333D01*
X79205333Y-45513000D01*
X79238666Y-45446333D01*
X79272000Y-45313000D01*
X79272000Y-45146333D01*
X79238666Y-45013000D01*
X79205333Y-44946333D01*
X79172000Y-44913000D01*
X79105333Y-44879666D01*
X72268666Y-45579666D02*
X72268666Y-44879666D01*
X72102000Y-44879666D01*
X72002000Y-44913000D01*
X71935333Y-44979666D01*
X71902000Y-45046333D01*
X71868666Y-45179666D01*
X71868666Y-45279666D01*
X71902000Y-45413000D01*
X71935333Y-45479666D01*
X72002000Y-45546333D01*
X72102000Y-45579666D01*
X72268666Y-45579666D01*
X71235333Y-44879666D02*
X71568666Y-44879666D01*
X71602000Y-45213000D01*
X71568666Y-45179666D01*
X71502000Y-45146333D01*
X71335333Y-45146333D01*
X71268666Y-45179666D01*
X71235333Y-45213000D01*
X71202000Y-45279666D01*
X71202000Y-45446333D01*
X71235333Y-45513000D01*
X71268666Y-45546333D01*
X71335333Y-45579666D01*
X71502000Y-45579666D01*
X71568666Y-45546333D01*
X71602000Y-45513000D01*
X69500333Y-45213000D02*
X69400333Y-45246333D01*
X69367000Y-45279666D01*
X69333666Y-45346333D01*
X69333666Y-45446333D01*
X69367000Y-45513000D01*
X69400333Y-45546333D01*
X69467000Y-45579666D01*
X69733666Y-45579666D01*
X69733666Y-44879666D01*
X69500333Y-44879666D01*
X69433666Y-44913000D01*
X69400333Y-44946333D01*
X69367000Y-45013000D01*
X69367000Y-45079666D01*
X69400333Y-45146333D01*
X69433666Y-45179666D01*
X69500333Y-45213000D01*
X69733666Y-45213000D01*
X69100333Y-44879666D02*
X68633666Y-44879666D01*
X68933666Y-45579666D01*
X68419000Y-24333333D02*
X68452333Y-24400000D01*
X68452333Y-24500000D01*
X68419000Y-24600000D01*
X68352333Y-24666666D01*
X68285666Y-24700000D01*
X68152333Y-24733333D01*
X68052333Y-24733333D01*
X67919000Y-24700000D01*
X67852333Y-24666666D01*
X67785666Y-24600000D01*
X67752333Y-24500000D01*
X67752333Y-24433333D01*
X67785666Y-24333333D01*
X67819000Y-24300000D01*
X68052333Y-24300000D01*
X68052333Y-24433333D01*
X67752333Y-24000000D02*
X68452333Y-24000000D01*
X67752333Y-23600000D01*
X68452333Y-23600000D01*
X67752333Y-23266666D02*
X68452333Y-23266666D01*
X68452333Y-23100000D01*
X68419000Y-23000000D01*
X68352333Y-22933333D01*
X68285666Y-22900000D01*
X68152333Y-22866666D01*
X68052333Y-22866666D01*
X67919000Y-22900000D01*
X67852333Y-22933333D01*
X67785666Y-23000000D01*
X67752333Y-23100000D01*
X67752333Y-23266666D01*
X80395334Y-18889666D02*
X80628667Y-18556333D01*
X80795334Y-18889666D02*
X80795334Y-18189666D01*
X80528667Y-18189666D01*
X80462001Y-18223000D01*
X80428667Y-18256333D01*
X80395334Y-18323000D01*
X80395334Y-18423000D01*
X80428667Y-18489666D01*
X80462001Y-18523000D01*
X80528667Y-18556333D01*
X80795334Y-18556333D01*
X80128667Y-18689666D02*
X79795334Y-18689666D01*
X80195334Y-18889666D02*
X79962001Y-18189666D01*
X79728667Y-18889666D01*
X79562001Y-18189666D02*
X79395334Y-18889666D01*
X79262001Y-18389666D01*
X79128667Y-18889666D01*
X78962001Y-18189666D01*
D11*
X200465714Y-21749880D02*
X200465714Y-20749880D01*
X200227619Y-20749880D01*
X200084761Y-20797500D01*
X199989523Y-20892738D01*
X199941904Y-20987976D01*
X199894285Y-21178452D01*
X199894285Y-21321309D01*
X199941904Y-21511785D01*
X199989523Y-21607023D01*
X200084761Y-21702261D01*
X200227619Y-21749880D01*
X200465714Y-21749880D01*
X198894285Y-21749880D02*
X199227619Y-21273690D01*
X199465714Y-21749880D02*
X199465714Y-20749880D01*
X199084761Y-20749880D01*
X198989523Y-20797500D01*
X198941904Y-20845119D01*
X198894285Y-20940357D01*
X198894285Y-21083214D01*
X198941904Y-21178452D01*
X198989523Y-21226071D01*
X199084761Y-21273690D01*
X199465714Y-21273690D01*
X198465714Y-21749880D02*
X198465714Y-20749880D01*
X197513333Y-21749880D02*
X197989523Y-21749880D01*
X197989523Y-20749880D01*
X196703809Y-21749880D02*
X197180000Y-21749880D01*
X197180000Y-20749880D01*
X195941904Y-21083214D02*
X195941904Y-21749880D01*
X196180000Y-20702261D02*
X196418095Y-21416547D01*
X195799047Y-21416547D01*
M02*
