G04 #@! TF.GenerationSoftware,KiCad,Pcbnew,(6.0.0)*
G04 #@! TF.CreationDate,2021-12-27T00:15:52+08:00*
G04 #@! TF.ProjectId,Alvaro v2,416c7661-726f-4207-9632-2e6b69636164,rev?*
G04 #@! TF.SameCoordinates,Original*
G04 #@! TF.FileFunction,Soldermask,Bot*
G04 #@! TF.FilePolarity,Negative*
%FSLAX46Y46*%
G04 Gerber Fmt 4.6, Leading zero omitted, Abs format (unit mm)*
G04 Created by KiCad (PCBNEW (6.0.0)) date 2021-12-27 00:15:52*
%MOMM*%
%LPD*%
G01*
G04 APERTURE LIST*
G04 Aperture macros list*
%AMRoundRect*
0 Rectangle with rounded corners*
0 $1 Rounding radius*
0 $2 $3 $4 $5 $6 $7 $8 $9 X,Y pos of 4 corners*
0 Add a 4 corners polygon primitive as box body*
4,1,4,$2,$3,$4,$5,$6,$7,$8,$9,$2,$3,0*
0 Add four circle primitives for the rounded corners*
1,1,$1+$1,$2,$3*
1,1,$1+$1,$4,$5*
1,1,$1+$1,$6,$7*
1,1,$1+$1,$8,$9*
0 Add four rect primitives between the rounded corners*
20,1,$1+$1,$2,$3,$4,$5,0*
20,1,$1+$1,$4,$5,$6,$7,0*
20,1,$1+$1,$6,$7,$8,$9,0*
20,1,$1+$1,$8,$9,$2,$3,0*%
G04 Aperture macros list end*
%ADD10O,1.400000X2.200000*%
%ADD11O,1.400000X2.600000*%
%ADD12C,1.200000*%
%ADD13C,6.800000*%
%ADD14RoundRect,0.200000X0.600000X-0.700000X0.600000X0.700000X-0.600000X0.700000X-0.600000X-0.700000X0*%
%ADD15C,2.100000*%
%ADD16C,4.200000*%
%ADD17RoundRect,0.200000X-0.450000X-0.600000X0.450000X-0.600000X0.450000X0.600000X-0.450000X0.600000X0*%
%ADD18C,1.000000*%
%ADD19RoundRect,0.200000X-0.575000X-0.650000X0.575000X-0.650000X0.575000X0.650000X-0.575000X0.650000X0*%
%ADD20C,2.600000*%
%ADD21C,8.200000*%
G04 APERTURE END LIST*
D10*
X79867000Y-20020000D03*
D11*
X68717000Y-16020000D03*
X79867000Y-16020000D03*
D10*
X68717000Y-20020000D03*
D12*
X31731394Y-48923159D03*
X31731394Y-52317271D03*
X31028450Y-50620215D03*
X35828450Y-50620215D03*
X33428450Y-53020215D03*
D13*
X33428450Y-50620215D03*
D12*
X33428450Y-48220215D03*
X35125506Y-52317271D03*
X35125506Y-48923159D03*
D14*
X71142000Y-43569000D03*
X71142000Y-41369000D03*
X69542000Y-41369000D03*
X69542000Y-43569000D03*
D15*
X79372000Y-46660000D03*
X76832000Y-46660000D03*
X74292000Y-46660000D03*
X71752000Y-46660000D03*
X69212000Y-46660000D03*
X66672000Y-46660000D03*
X66672000Y-44120000D03*
X66672000Y-41580000D03*
X66672000Y-39040000D03*
X66672000Y-36500000D03*
X66672000Y-33960000D03*
X66672000Y-31420000D03*
X66672000Y-28880000D03*
X66672000Y-26340000D03*
X66672000Y-23800000D03*
X66672000Y-21260000D03*
X66672000Y-18720000D03*
X81912000Y-18720000D03*
X81912000Y-21260000D03*
X81912000Y-23800000D03*
X81912000Y-26340000D03*
X81912000Y-28880000D03*
X81912000Y-31420000D03*
X81912000Y-33960000D03*
X81912000Y-36500000D03*
X81912000Y-39040000D03*
X81912000Y-41580000D03*
X81912000Y-44120000D03*
X81912000Y-46660000D03*
X74992000Y-35220000D03*
X71752000Y-23800000D03*
X74292000Y-23800000D03*
D12*
X60866596Y-92099365D03*
X58466596Y-89699365D03*
X56769540Y-93796421D03*
X60163652Y-90402309D03*
X58466596Y-94499365D03*
D13*
X58466596Y-92099365D03*
D12*
X56066596Y-92099365D03*
X56769540Y-90402309D03*
X60163652Y-93796421D03*
X56921523Y-61741416D03*
X56921523Y-58347304D03*
X60315635Y-58347304D03*
X61018579Y-60044360D03*
X58618579Y-62444360D03*
X56218579Y-60044360D03*
X60315635Y-61741416D03*
D13*
X58618579Y-60044360D03*
D12*
X58618579Y-57644360D03*
D16*
X69560000Y-137777500D03*
D17*
X56200000Y-15430000D03*
X60800000Y-15430000D03*
D18*
X57650000Y-15430000D03*
X59350000Y-15430000D03*
D19*
X56825000Y-16980000D03*
X60175000Y-16980000D03*
D16*
X82740000Y-150637500D03*
D12*
X35595955Y-94657980D03*
X31498899Y-96355036D03*
X32201843Y-98052092D03*
D13*
X33898899Y-96355036D03*
D12*
X33898899Y-98755036D03*
X36298899Y-96355036D03*
X35595955Y-98052092D03*
X32201843Y-94657980D03*
X33898899Y-93955036D03*
X160427944Y-21497056D03*
X164525000Y-19800000D03*
X160427944Y-18102944D03*
X163822056Y-21497056D03*
X162125000Y-17400000D03*
X159725000Y-19800000D03*
X162125000Y-22200000D03*
D13*
X162125000Y-19800000D03*
D12*
X163822056Y-18102944D03*
X41830000Y-128367500D03*
X44230000Y-130767500D03*
X42532944Y-130064556D03*
D13*
X44230000Y-128367500D03*
D12*
X45927056Y-126670444D03*
X42532944Y-126670444D03*
X46630000Y-128367500D03*
X45927056Y-130064556D03*
X44230000Y-125967500D03*
D16*
X60740000Y-53437500D03*
X40550000Y-16937500D03*
D12*
X140757944Y-18102944D03*
X142455000Y-22200000D03*
X142455000Y-17400000D03*
X144152056Y-18102944D03*
D13*
X142455000Y-19800000D03*
D12*
X140757944Y-21497056D03*
X144855000Y-19800000D03*
X144152056Y-21497056D03*
X140055000Y-19800000D03*
X199877056Y-27194556D03*
X200580000Y-25497500D03*
X199877056Y-23800444D03*
X196482944Y-23800444D03*
X195780000Y-25497500D03*
D13*
X198180000Y-25497500D03*
D12*
X198180000Y-23097500D03*
X196482944Y-27194556D03*
X198180000Y-27897500D03*
D20*
X45980000Y-63350000D03*
D21*
X45980000Y-72850000D03*
D20*
X45980000Y-82350000D03*
D16*
X41140000Y-102265000D03*
X40910000Y-44785000D03*
X126840000Y-72947500D03*
X59980000Y-97865000D03*
D12*
X198304500Y-126567500D03*
X200001556Y-130664556D03*
X200001556Y-127270444D03*
X196607444Y-127270444D03*
X195904500Y-128967500D03*
D13*
X198304500Y-128967500D03*
D12*
X198304500Y-131367500D03*
X196607444Y-130664556D03*
X200704500Y-128967500D03*
M02*
