M48
; DRILL file {KiCad (6.0.0)} date Mon Dec 27 00:15:54 2021
; FORMAT={-:-/ absolute / metric / decimal}
; #@! TF.CreationDate,2021-12-27T00:15:54+08:00
; #@! TF.GenerationSoftware,Kicad,Pcbnew,(6.0.0)
; #@! TF.FileFunction,MixedPlating,1,2
FMAT,2
METRIC
; #@! TA.AperFunction,Plated,PTH,ViaDrill
T1C0.300
; #@! TA.AperFunction,Plated,PTH,ViaDrill
T2C0.400
; #@! TA.AperFunction,Plated,PTH,ComponentDrill
T3C0.500
; #@! TA.AperFunction,Plated,PTH,ComponentDrill
T4C0.600
; #@! TA.AperFunction,Plated,PTH,ComponentDrill
T5C1.000
; #@! TA.AperFunction,Plated,PTH,ComponentDrill
T6C2.200
; #@! TA.AperFunction,Plated,PTH,ComponentDrill
T7C3.200
; #@! TA.AperFunction,NonPlated,NPTH,ComponentDrill
T8C0.600
; #@! TA.AperFunction,NonPlated,NPTH,ComponentDrill
T9C2.200
; #@! TA.AperFunction,NonPlated,NPTH,ComponentDrill
T10C7.800
%
G90
G05
T1
X67.742Y-37.92
X68.292Y-40.72
X68.292Y-41.87
X68.292Y-42.97
X68.292Y-44.07
X68.717Y-17.62
X68.717Y-18.645
X68.717Y-23.645
X68.942Y-27.42
X69.602Y-35.28
X69.743Y-33.821
X69.842Y-30.615
X69.877Y-32.07
X70.067Y-23.645
X70.092Y-35.77
X70.26Y-34.79
X70.402Y-32.671
X70.443Y-33.33
X70.842Y-25.42
X71.023Y-32.447
X71.717Y-21.745
X72.542Y-21.945
X72.692Y-41.339
X73.189Y-22.47
X73.339Y-41.473
X74.122Y-42.287
X74.442Y-43.62
X74.542Y-22.47
X74.612Y-42.77
X74.833Y-30.261
X74.848Y-40.239
X74.931Y-29.608
X75.342Y-28.57
X75.742Y-24.07
X76.236Y-21.951
X76.437Y-30.164
X76.442Y-44.02
X77.052Y-21.934
X77.192Y-41.345
X77.342Y-39.13
X77.342Y-39.79
X77.992Y-25.97
X78.522Y-43.35
X78.742Y-21.345
X79.096Y-37.216
X79.167Y-32.995
X79.542Y-35.22
X79.867Y-17.595
X79.867Y-18.645
X79.892Y-34.02
X80.192Y-44.72
X80.235Y-35.22
X80.292Y-40.57
X80.492Y-38.92
X80.692Y-18.07
X80.831Y-27.638
X81.092Y-35.27
X81.542Y-27.62
T2
X56.89Y-16.95
X59.59Y-23.582
X60.2Y-17.1
X60.58Y-23.0
X85.73Y-26.3
X115.495Y-49.56
X115.775Y-44.37
X117.355Y-48.12
X120.147Y-40.46
X120.215Y-44.08
X123.495Y-43.62
X124.885Y-39.04
T3
X31.028Y-50.62
X31.499Y-96.355
X31.731Y-48.923
X31.731Y-52.317
X32.202Y-94.658
X32.202Y-98.052
X33.428Y-48.22
X33.428Y-53.02
X33.899Y-93.955
X33.899Y-98.755
X35.126Y-48.923
X35.126Y-52.317
X35.596Y-94.658
X35.596Y-98.052
X35.828Y-50.62
X36.299Y-96.355
X41.83Y-128.368
X42.533Y-126.67
X42.533Y-130.065
X44.23Y-125.968
X44.23Y-130.767
X45.927Y-126.67
X45.927Y-130.065
X46.63Y-128.368
X56.067Y-92.099
X56.219Y-60.044
X56.77Y-90.402
X56.77Y-93.796
X56.922Y-58.347
X56.922Y-61.741
X58.467Y-89.699
X58.467Y-94.499
X58.619Y-57.644
X58.619Y-62.444
X60.164Y-90.402
X60.164Y-93.796
X60.316Y-58.347
X60.316Y-61.741
X60.867Y-92.099
X61.019Y-60.044
X69.542Y-41.369
X69.542Y-43.569
X71.142Y-41.369
X71.142Y-43.569
X140.055Y-19.8
X140.758Y-18.103
X140.758Y-21.497
X142.455Y-17.4
X142.455Y-22.2
X144.152Y-18.103
X144.152Y-21.497
X144.855Y-19.8
X159.725Y-19.8
X160.428Y-18.103
X160.428Y-21.497
X162.125Y-17.4
X162.125Y-22.2
X163.822Y-18.103
X163.822Y-21.497
X164.525Y-19.8
X195.78Y-25.497
X195.904Y-128.968
X196.483Y-23.8
X196.483Y-27.195
X196.607Y-127.27
X196.607Y-130.665
X198.18Y-23.098
X198.18Y-27.897
X198.304Y-126.567
X198.304Y-131.368
X199.877Y-23.8
X199.877Y-27.195
X200.002Y-127.27
X200.002Y-130.665
X200.58Y-25.497
X200.704Y-128.968
T5
X66.672Y-18.72
X66.672Y-21.26
X66.672Y-23.8
X66.672Y-26.34
X66.672Y-28.88
X66.672Y-31.42
X66.672Y-33.96
X66.672Y-36.5
X66.672Y-39.04
X66.672Y-41.58
X66.672Y-44.12
X66.672Y-46.66
X69.212Y-46.66
X71.752Y-23.8
X71.752Y-46.66
X74.292Y-23.8
X74.292Y-46.66
X74.992Y-35.22
X76.832Y-46.66
X79.372Y-46.66
X81.912Y-18.72
X81.912Y-21.26
X81.912Y-23.8
X81.912Y-26.34
X81.912Y-28.88
X81.912Y-31.42
X81.912Y-33.96
X81.912Y-36.5
X81.912Y-39.04
X81.912Y-41.58
X81.912Y-44.12
X81.912Y-46.66
T6
X40.55Y-16.938
X40.91Y-44.785
X41.14Y-102.265
X59.98Y-97.865
X60.74Y-53.438
X69.56Y-137.778
X82.74Y-150.637
X126.84Y-72.947
T7
X33.428Y-50.62
X33.899Y-96.355
X44.23Y-128.368
X58.467Y-92.099
X58.619Y-60.044
X142.455Y-19.8
X162.125Y-19.8
X198.18Y-25.497
X198.304Y-128.968
T8
X57.65Y-15.43
X59.35Y-15.43
T9
X45.98Y-63.35
X45.98Y-82.35
T10
X45.98Y-72.85
T4
G00X68.717Y-15.42
M15
G01X68.717Y-16.62
M16
G05
G00X68.717Y-19.62
M15
G01X68.717Y-20.42
M16
G05
G00X79.867Y-15.42
M15
G01X79.867Y-16.62
M16
G05
G00X79.867Y-19.62
M15
G01X79.867Y-20.42
M16
G05
T0
M30
