G04 #@! TF.GenerationSoftware,KiCad,Pcbnew,(6.0.0)*
G04 #@! TF.CreationDate,2021-12-27T00:15:52+08:00*
G04 #@! TF.ProjectId,Alvaro v2,416c7661-726f-4207-9632-2e6b69636164,rev?*
G04 #@! TF.SameCoordinates,Original*
G04 #@! TF.FileFunction,Profile,NP*
%FSLAX46Y46*%
G04 Gerber Fmt 4.6, Leading zero omitted, Abs format (unit mm)*
G04 Created by KiCad (PCBNEW (6.0.0)) date 2021-12-27 00:15:52*
%MOMM*%
%LPD*%
G01*
G04 APERTURE LIST*
G04 #@! TA.AperFunction,Profile*
%ADD10C,0.100000*%
G04 #@! TD*
G04 #@! TA.AperFunction,Profile*
%ADD11C,0.150000*%
G04 #@! TD*
G04 APERTURE END LIST*
D10*
X78864000Y-14540000D02*
X79150000Y-14540000D01*
X78864000Y-14550000D02*
X78864000Y-14540000D01*
X78864000Y-14910000D02*
X78864000Y-14550000D01*
X69720000Y-14540000D02*
X69420000Y-14540000D01*
X69720000Y-14910000D02*
X69720000Y-14540000D01*
X38220000Y-46990000D02*
X37780000Y-46990000D01*
X38220000Y-41277503D02*
X38220000Y-46990000D01*
X29142500Y-46990000D02*
X37780000Y-46990000D01*
X29142500Y-97620000D02*
X29142500Y-46990000D01*
X31240000Y-99717500D02*
X29142500Y-97620000D01*
X38215212Y-99717500D02*
X31240000Y-99717500D01*
D11*
X145880000Y-14540000D02*
X114460000Y-14540000D01*
D10*
X79150000Y-14540000D02*
X114460000Y-14540000D01*
X42910000Y-14540000D02*
X69420000Y-14540000D01*
X202200000Y-113637500D02*
X202130000Y-45287500D01*
X202200000Y-132337500D02*
X202200000Y-127797500D01*
X202000000Y-22827500D02*
X181380000Y-14540000D01*
X202200000Y-127797500D02*
X202200000Y-126215000D01*
X202200000Y-126215000D02*
X202200000Y-113637500D01*
X38220000Y-14537500D02*
X38220000Y-41277503D01*
X108550000Y-139227500D02*
X108710000Y-139227500D01*
X38220000Y-14537500D02*
X38370000Y-14540000D01*
X38215212Y-135277500D02*
X38215212Y-133027500D01*
X145880000Y-14540000D02*
X146195000Y-14540000D01*
X108550000Y-139227500D02*
X108410000Y-139227500D01*
X38215212Y-100127500D02*
X38215212Y-102227500D01*
X38215212Y-99717500D02*
X38215212Y-100127500D01*
X66360000Y-163397500D02*
X38215212Y-135277500D01*
X158255000Y-16040000D02*
X158255000Y-14540000D01*
X202130000Y-35295000D02*
X202130000Y-45287500D01*
X202130000Y-22897500D02*
X202130000Y-23007500D01*
X146195000Y-16040000D02*
X146195000Y-14540000D01*
X66360000Y-163397500D02*
X108410000Y-139227500D01*
D11*
X69720000Y-14910000D02*
X69720000Y-20520000D01*
X78864000Y-20520000D02*
X78864000Y-14910000D01*
D10*
X146195000Y-16040000D02*
X158255000Y-16040000D01*
X202200000Y-132337500D02*
X167730000Y-139227500D01*
D11*
X69720000Y-20520000D02*
X78864000Y-20520000D01*
D10*
X108710000Y-139227500D02*
X155400000Y-139227500D01*
X38370000Y-14540000D02*
X42910000Y-14540000D01*
X181380000Y-14540000D02*
X158255000Y-14540000D01*
X167730000Y-139227500D02*
X155400000Y-139227500D01*
X202130000Y-35295000D02*
X202130000Y-23007500D01*
X38215212Y-133027500D02*
X38215212Y-102227500D01*
X202000000Y-22827500D02*
X202130000Y-22897500D01*
M02*
