%TF.GenerationSoftware,KiCad,Pcbnew,(5.99.0-11414-g76a6177eb7)*%
%TF.CreationDate,2021-12-13T11:53:38+08:00*%
%TF.ProjectId,Rev2,52657632-2e6b-4696-9361-645f70636258,rev?*%
%TF.SameCoordinates,Original*%
%TF.FileFunction,Soldermask,Top*%
%TF.FilePolarity,Negative*%
%FSLAX46Y46*%
G04 Gerber Fmt 4.6, Leading zero omitted, Abs format (unit mm)*
G04 Created by KiCad (PCBNEW (5.99.0-11414-g76a6177eb7)) date 2021-12-13 11:53:38*
%MOMM*%
%LPD*%
G01*
G04 APERTURE LIST*
G04 Aperture macros list*
%AMRoundRect*
0 Rectangle with rounded corners*
0 $1 Rounding radius*
0 $2 $3 $4 $5 $6 $7 $8 $9 X,Y pos of 4 corners*
0 Add a 4 corners polygon primitive as box body*
4,1,4,$2,$3,$4,$5,$6,$7,$8,$9,$2,$3,0*
0 Add four circle primitives for the rounded corners*
1,1,$1+$1,$2,$3*
1,1,$1+$1,$4,$5*
1,1,$1+$1,$6,$7*
1,1,$1+$1,$8,$9*
0 Add four rect primitives between the rounded corners*
20,1,$1+$1,$2,$3,$4,$5,0*
20,1,$1+$1,$4,$5,$6,$7,0*
20,1,$1+$1,$6,$7,$8,$9,0*
20,1,$1+$1,$8,$9,$2,$3,0*%
%AMHorizOval*
0 Thick line with rounded ends*
0 $1 width*
0 $2 $3 position (X,Y) of the first rounded end (center of the circle)*
0 $4 $5 position (X,Y) of the second rounded end (center of the circle)*
0 Add line between two ends*
20,1,$1,$2,$3,$4,$5,0*
0 Add two circle primitives to create the rounded ends*
1,1,$1,$2,$3*
1,1,$1,$4,$5*%
%AMRotRect*
0 Rectangle, with rotation*
0 The origin of the aperture is its center*
0 $1 length*
0 $2 width*
0 $3 Rotation angle, in degrees counterclockwise*
0 Add horizontal line*
21,1,$1,$2,0,0,$3*%
%AMFreePoly0*
4,1,22,0.550000,-0.750000,0.000000,-0.750000,0.000000,-0.745033,-0.079941,-0.743568,-0.215256,-0.701293,-0.333266,-0.622738,-0.424486,-0.514219,-0.481581,-0.384460,-0.499164,-0.250000,-0.500000,-0.250000,-0.500000,0.250000,-0.499164,0.250000,-0.499963,0.256109,-0.478152,0.396186,-0.417904,0.524511,-0.324060,0.630769,-0.204165,0.706417,-0.067858,0.745374,0.000000,0.744959,0.000000,0.750000,
0.550000,0.750000,0.550000,-0.750000,0.550000,-0.750000,$1*%
%AMFreePoly1*
4,1,20,0.000000,0.744959,0.073905,0.744508,0.209726,0.703889,0.328688,0.626782,0.421226,0.519385,0.479903,0.390333,0.500000,0.250000,0.500000,-0.250000,0.499851,-0.262216,0.476331,-0.402017,0.414519,-0.529596,0.319384,-0.634700,0.198574,-0.708877,0.061801,-0.746166,0.000000,-0.745033,0.000000,-0.750000,-0.550000,-0.750000,-0.550000,0.750000,0.000000,0.750000,0.000000,0.744959,
0.000000,0.744959,$1*%
G04 Aperture macros list end*
%ADD10C,0.100000*%
%ADD11RoundRect,0.350000X0.350000X-0.500500X0.350000X0.500500X-0.350000X0.500500X-0.350000X-0.500500X0*%
%ADD12RoundRect,0.300000X0.300000X-0.550500X0.300000X0.550500X-0.300000X0.550500X-0.300000X-0.550500X0*%
%ADD13C,3.000000*%
%ADD14C,1.000000*%
%ADD15C,3.400000*%
%ADD16C,1.800000*%
%ADD17R,1.600000X2.200000*%
%ADD18C,1.600000*%
%ADD19RotRect,1.000000X1.500000X60.000000*%
%ADD20RoundRect,0.350000X-0.350000X0.500500X-0.350000X-0.500500X0.350000X-0.500500X0.350000X0.500500X0*%
%ADD21RoundRect,0.350000X-0.500500X-0.350000X0.500500X-0.350000X0.500500X0.350000X-0.500500X0.350000X0*%
%ADD22RoundRect,0.300000X-0.300000X0.550500X-0.300000X-0.550500X0.300000X-0.550500X0.300000X0.550500X0*%
%ADD23C,0.800000*%
%ADD24C,6.400000*%
%ADD25R,1.500000X1.000000*%
%ADD26RoundRect,0.350000X0.500500X0.350000X-0.500500X0.350000X-0.500500X-0.350000X0.500500X-0.350000X0*%
%ADD27RotRect,1.600000X2.200000X135.000000*%
%ADD28C,1.524000*%
%ADD29HorizOval,1.524000X0.000000X0.000000X0.000000X0.000000X0*%
%ADD30RoundRect,0.300000X0.147298X-0.609388X0.432258X0.454096X-0.147298X0.609388X-0.432258X-0.454096X0*%
%ADD31RoundRect,0.123750X-0.123750X0.656250X-0.123750X-0.656250X0.123750X-0.656250X0.123750X0.656250X0*%
%ADD32RoundRect,0.123750X-0.656250X-0.123750X0.656250X-0.123750X0.656250X0.123750X-0.656250X0.123750X0*%
%ADD33RoundRect,0.123750X0.656250X0.123750X-0.656250X0.123750X-0.656250X-0.123750X0.656250X-0.123750X0*%
%ADD34RotRect,1.600000X2.200000X150.000000*%
%ADD35RotRect,1.600000X2.200000X165.000000*%
%ADD36RoundRect,0.300000X0.015442X0.626747X-0.535058X-0.326747X-0.015442X-0.626747X0.535058X0.326747X0*%
%ADD37RoundRect,0.350000X0.601394X-0.106420X-0.106420X0.601394X-0.601394X0.106420X0.106420X-0.601394X0*%
%ADD38RoundRect,0.300000X-0.015442X-0.626747X0.535058X0.326747X0.015442X0.626747X-0.535058X-0.326747X0*%
%ADD39R,2.200000X2.200000*%
%ADD40C,2.200000*%
%ADD41C,7.800000*%
%ADD42FreePoly0,0.000000*%
%ADD43R,1.000000X1.500000*%
%ADD44FreePoly1,0.000000*%
%ADD45C,3.800000*%
%ADD46RoundRect,0.300000X0.614544X-0.124041X-0.228871X0.583668X-0.614544X0.124041X0.228871X-0.583668X0*%
%ADD47C,0.650000*%
%ADD48R,0.570000X2.450000*%
%ADD49R,0.300000X2.450000*%
%ADD50O,1.000000X1.600000*%
%ADD51RoundRect,0.500000X0.550000X0.500000X-0.550000X0.500000X-0.550000X-0.500000X0.550000X-0.500000X0*%
%ADD52O,1.000000X2.100000*%
%ADD53RoundRect,0.525000X0.525000X0.725000X-0.525000X0.725000X-0.525000X-0.725000X0.525000X-0.725000X0*%
%ADD54RoundRect,0.300000X-0.177130X-0.601394X0.601394X0.177130X0.177130X0.601394X-0.601394X-0.177130X0*%
%ADD55RoundRect,0.425000X0.425000X-0.675000X0.425000X0.675000X-0.425000X0.675000X-0.425000X-0.675000X0*%
%ADD56RoundRect,0.425000X0.425000X0.675000X-0.425000X0.675000X-0.425000X-0.675000X0.425000X-0.675000X0*%
%ADD57O,3.300000X3.800000*%
%ADD58O,1.600000X2.000000*%
%ADD59RoundRect,0.250000X0.350000X0.450000X-0.350000X0.450000X-0.350000X-0.450000X0.350000X-0.450000X0*%
%ADD60C,1.200000*%
%ADD61O,2.500000X1.700000*%
%ADD62R,1.700000X1.700000*%
%ADD63O,1.700000X1.700000*%
%ADD64RoundRect,0.250000X0.625000X-0.375000X0.625000X0.375000X-0.625000X0.375000X-0.625000X-0.375000X0*%
G04 APERTURE END LIST*
D10*
%TO.C,SW32*%
X81227499Y-70632000D02*
X79727499Y-70632000D01*
X79727499Y-70632000D02*
X79727499Y-69882000D01*
X79727499Y-69882000D02*
X81227499Y-69882000D01*
X81227499Y-69882000D02*
X81227499Y-70632000D01*
G36*
X81227499Y-70632000D02*
G01*
X79727499Y-70632000D01*
X79727499Y-69882000D01*
X81227499Y-69882000D01*
X81227499Y-70632000D01*
G37*
X81227499Y-70632000D02*
X79727499Y-70632000D01*
X79727499Y-69882000D01*
X81227499Y-69882000D01*
X81227499Y-70632000D01*
X76227499Y-70632000D02*
X74727499Y-70632000D01*
X74727499Y-70632000D02*
X74727499Y-69882000D01*
X74727499Y-69882000D02*
X76227499Y-69882000D01*
X76227499Y-69882000D02*
X76227499Y-70632000D01*
G36*
X76227499Y-70632000D02*
G01*
X74727499Y-70632000D01*
X74727499Y-69882000D01*
X76227499Y-69882000D01*
X76227499Y-70632000D01*
G37*
X76227499Y-70632000D02*
X74727499Y-70632000D01*
X74727499Y-69882000D01*
X76227499Y-69882000D01*
X76227499Y-70632000D01*
X76227499Y-72382000D02*
X75127499Y-72382000D01*
X75127499Y-72382000D02*
X74727499Y-71982000D01*
X74727499Y-71982000D02*
X74727499Y-71632000D01*
X74727499Y-71632000D02*
X76227499Y-71632000D01*
X76227499Y-71632000D02*
X76227499Y-72382000D01*
G36*
X76227499Y-72382000D02*
G01*
X75127499Y-72382000D01*
X74727499Y-71982000D01*
X74727499Y-71632000D01*
X76227499Y-71632000D01*
X76227499Y-72382000D01*
G37*
X76227499Y-72382000D02*
X75127499Y-72382000D01*
X74727499Y-71982000D01*
X74727499Y-71632000D01*
X76227499Y-71632000D01*
X76227499Y-72382000D01*
X81227499Y-72382000D02*
X79727499Y-72382000D01*
X79727499Y-72382000D02*
X79727499Y-71632000D01*
X79727499Y-71632000D02*
X81227499Y-71632000D01*
X81227499Y-71632000D02*
X81227499Y-72382000D01*
G36*
X81227499Y-72382000D02*
G01*
X79727499Y-72382000D01*
X79727499Y-71632000D01*
X81227499Y-71632000D01*
X81227499Y-72382000D01*
G37*
X81227499Y-72382000D02*
X79727499Y-72382000D01*
X79727499Y-71632000D01*
X81227499Y-71632000D01*
X81227499Y-72382000D01*
%TO.C,SW10*%
X169497500Y-119808250D02*
X170997500Y-119808250D01*
X170997500Y-119808250D02*
X170997500Y-120558250D01*
X170997500Y-120558250D02*
X169497500Y-120558250D01*
X169497500Y-120558250D02*
X169497500Y-119808250D01*
G36*
X170997500Y-120558250D02*
G01*
X169497500Y-120558250D01*
X169497500Y-119808250D01*
X170997500Y-119808250D01*
X170997500Y-120558250D01*
G37*
X170997500Y-120558250D02*
X169497500Y-120558250D01*
X169497500Y-119808250D01*
X170997500Y-119808250D01*
X170997500Y-120558250D01*
X174497500Y-119808250D02*
X175597500Y-119808250D01*
X175597500Y-119808250D02*
X175997500Y-120208250D01*
X175997500Y-120208250D02*
X175997500Y-120558250D01*
X175997500Y-120558250D02*
X174497500Y-120558250D01*
X174497500Y-120558250D02*
X174497500Y-119808250D01*
G36*
X175997500Y-120208250D02*
G01*
X175997500Y-120558250D01*
X174497500Y-120558250D01*
X174497500Y-119808250D01*
X175597500Y-119808250D01*
X175997500Y-120208250D01*
G37*
X175997500Y-120208250D02*
X175997500Y-120558250D01*
X174497500Y-120558250D01*
X174497500Y-119808250D01*
X175597500Y-119808250D01*
X175997500Y-120208250D01*
X169497500Y-121558250D02*
X170997500Y-121558250D01*
X170997500Y-121558250D02*
X170997500Y-122308250D01*
X170997500Y-122308250D02*
X169497500Y-122308250D01*
X169497500Y-122308250D02*
X169497500Y-121558250D01*
G36*
X170997500Y-122308250D02*
G01*
X169497500Y-122308250D01*
X169497500Y-121558250D01*
X170997500Y-121558250D01*
X170997500Y-122308250D01*
G37*
X170997500Y-122308250D02*
X169497500Y-122308250D01*
X169497500Y-121558250D01*
X170997500Y-121558250D01*
X170997500Y-122308250D01*
X174497500Y-121558250D02*
X175997500Y-121558250D01*
X175997500Y-121558250D02*
X175997500Y-122308250D01*
X175997500Y-122308250D02*
X174497500Y-122308250D01*
X174497500Y-122308250D02*
X174497500Y-121558250D01*
G36*
X175997500Y-122308250D02*
G01*
X174497500Y-122308250D01*
X174497500Y-121558250D01*
X175997500Y-121558250D01*
X175997500Y-122308250D01*
G37*
X175997500Y-122308250D02*
X174497500Y-122308250D01*
X174497500Y-121558250D01*
X175997500Y-121558250D01*
X175997500Y-122308250D01*
%TO.C,SW18*%
X131397500Y-76314500D02*
X132897500Y-76314500D01*
X132897500Y-76314500D02*
X132897500Y-77064500D01*
X132897500Y-77064500D02*
X131397500Y-77064500D01*
X131397500Y-77064500D02*
X131397500Y-76314500D01*
G36*
X132897500Y-77064500D02*
G01*
X131397500Y-77064500D01*
X131397500Y-76314500D01*
X132897500Y-76314500D01*
X132897500Y-77064500D01*
G37*
X132897500Y-77064500D02*
X131397500Y-77064500D01*
X131397500Y-76314500D01*
X132897500Y-76314500D01*
X132897500Y-77064500D01*
X131397500Y-74564500D02*
X132897500Y-74564500D01*
X132897500Y-74564500D02*
X132897500Y-75314500D01*
X132897500Y-75314500D02*
X131397500Y-75314500D01*
X131397500Y-75314500D02*
X131397500Y-74564500D01*
G36*
X132897500Y-75314500D02*
G01*
X131397500Y-75314500D01*
X131397500Y-74564500D01*
X132897500Y-74564500D01*
X132897500Y-75314500D01*
G37*
X132897500Y-75314500D02*
X131397500Y-75314500D01*
X131397500Y-74564500D01*
X132897500Y-74564500D01*
X132897500Y-75314500D01*
X136397500Y-74564500D02*
X137497500Y-74564500D01*
X137497500Y-74564500D02*
X137897500Y-74964500D01*
X137897500Y-74964500D02*
X137897500Y-75314500D01*
X137897500Y-75314500D02*
X136397500Y-75314500D01*
X136397500Y-75314500D02*
X136397500Y-74564500D01*
G36*
X137897500Y-74964500D02*
G01*
X137897500Y-75314500D01*
X136397500Y-75314500D01*
X136397500Y-74564500D01*
X137497500Y-74564500D01*
X137897500Y-74964500D01*
G37*
X137897500Y-74964500D02*
X137897500Y-75314500D01*
X136397500Y-75314500D01*
X136397500Y-74564500D01*
X137497500Y-74564500D01*
X137897500Y-74964500D01*
X136397500Y-76314500D02*
X137897500Y-76314500D01*
X137897500Y-76314500D02*
X137897500Y-77064500D01*
X137897500Y-77064500D02*
X136397500Y-77064500D01*
X136397500Y-77064500D02*
X136397500Y-76314500D01*
G36*
X137897500Y-77064500D02*
G01*
X136397500Y-77064500D01*
X136397500Y-76314500D01*
X137897500Y-76314500D01*
X137897500Y-77064500D01*
G37*
X137897500Y-77064500D02*
X136397500Y-77064500D01*
X136397500Y-76314500D01*
X137897500Y-76314500D01*
X137897500Y-77064500D01*
%TO.C,SW9*%
X176477500Y-103338250D02*
X174977500Y-103338250D01*
X174977500Y-103338250D02*
X174977500Y-102588250D01*
X174977500Y-102588250D02*
X176477500Y-102588250D01*
X176477500Y-102588250D02*
X176477500Y-103338250D01*
G36*
X176477500Y-103338250D02*
G01*
X174977500Y-103338250D01*
X174977500Y-102588250D01*
X176477500Y-102588250D01*
X176477500Y-103338250D01*
G37*
X176477500Y-103338250D02*
X174977500Y-103338250D01*
X174977500Y-102588250D01*
X176477500Y-102588250D01*
X176477500Y-103338250D01*
X176477500Y-101588250D02*
X174977500Y-101588250D01*
X174977500Y-101588250D02*
X174977500Y-100838250D01*
X174977500Y-100838250D02*
X176477500Y-100838250D01*
X176477500Y-100838250D02*
X176477500Y-101588250D01*
G36*
X176477500Y-101588250D02*
G01*
X174977500Y-101588250D01*
X174977500Y-100838250D01*
X176477500Y-100838250D01*
X176477500Y-101588250D01*
G37*
X176477500Y-101588250D02*
X174977500Y-101588250D01*
X174977500Y-100838250D01*
X176477500Y-100838250D01*
X176477500Y-101588250D01*
X171477500Y-103338250D02*
X170377500Y-103338250D01*
X170377500Y-103338250D02*
X169977500Y-102938250D01*
X169977500Y-102938250D02*
X169977500Y-102588250D01*
X169977500Y-102588250D02*
X171477500Y-102588250D01*
X171477500Y-102588250D02*
X171477500Y-103338250D01*
G36*
X171477500Y-103338250D02*
G01*
X170377500Y-103338250D01*
X169977500Y-102938250D01*
X169977500Y-102588250D01*
X171477500Y-102588250D01*
X171477500Y-103338250D01*
G37*
X171477500Y-103338250D02*
X170377500Y-103338250D01*
X169977500Y-102938250D01*
X169977500Y-102588250D01*
X171477500Y-102588250D01*
X171477500Y-103338250D01*
X171477500Y-101588250D02*
X169977500Y-101588250D01*
X169977500Y-101588250D02*
X169977500Y-100838250D01*
X169977500Y-100838250D02*
X171477500Y-100838250D01*
X171477500Y-100838250D02*
X171477500Y-101588250D01*
G36*
X171477500Y-101588250D02*
G01*
X169977500Y-101588250D01*
X169977500Y-100838250D01*
X171477500Y-100838250D01*
X171477500Y-101588250D01*
G37*
X171477500Y-101588250D02*
X169977500Y-101588250D01*
X169977500Y-100838250D01*
X171477500Y-100838250D01*
X171477500Y-101588250D01*
%TO.C,SW26*%
X148030000Y-138518250D02*
X146530000Y-138518250D01*
X146530000Y-138518250D02*
X146530000Y-137768250D01*
X146530000Y-137768250D02*
X148030000Y-137768250D01*
X148030000Y-137768250D02*
X148030000Y-138518250D01*
G36*
X148030000Y-138518250D02*
G01*
X146530000Y-138518250D01*
X146530000Y-137768250D01*
X148030000Y-137768250D01*
X148030000Y-138518250D01*
G37*
X148030000Y-138518250D02*
X146530000Y-138518250D01*
X146530000Y-137768250D01*
X148030000Y-137768250D01*
X148030000Y-138518250D01*
X143030000Y-138518250D02*
X141930000Y-138518250D01*
X141930000Y-138518250D02*
X141530000Y-138118250D01*
X141530000Y-138118250D02*
X141530000Y-137768250D01*
X141530000Y-137768250D02*
X143030000Y-137768250D01*
X143030000Y-137768250D02*
X143030000Y-138518250D01*
G36*
X143030000Y-138518250D02*
G01*
X141930000Y-138518250D01*
X141530000Y-138118250D01*
X141530000Y-137768250D01*
X143030000Y-137768250D01*
X143030000Y-138518250D01*
G37*
X143030000Y-138518250D02*
X141930000Y-138518250D01*
X141530000Y-138118250D01*
X141530000Y-137768250D01*
X143030000Y-137768250D01*
X143030000Y-138518250D01*
X148030000Y-136768250D02*
X146530000Y-136768250D01*
X146530000Y-136768250D02*
X146530000Y-136018250D01*
X146530000Y-136018250D02*
X148030000Y-136018250D01*
X148030000Y-136018250D02*
X148030000Y-136768250D01*
G36*
X148030000Y-136768250D02*
G01*
X146530000Y-136768250D01*
X146530000Y-136018250D01*
X148030000Y-136018250D01*
X148030000Y-136768250D01*
G37*
X148030000Y-136768250D02*
X146530000Y-136768250D01*
X146530000Y-136018250D01*
X148030000Y-136018250D01*
X148030000Y-136768250D01*
X143030000Y-136768250D02*
X141530000Y-136768250D01*
X141530000Y-136768250D02*
X141530000Y-136018250D01*
X141530000Y-136018250D02*
X143030000Y-136018250D01*
X143030000Y-136018250D02*
X143030000Y-136768250D01*
G36*
X143030000Y-136768250D02*
G01*
X141530000Y-136768250D01*
X141530000Y-136018250D01*
X143030000Y-136018250D01*
X143030000Y-136768250D01*
G37*
X143030000Y-136768250D02*
X141530000Y-136768250D01*
X141530000Y-136018250D01*
X143030000Y-136018250D01*
X143030000Y-136768250D01*
%TO.C,SW12*%
X157427500Y-61107000D02*
X155927500Y-61107000D01*
X155927500Y-61107000D02*
X155927500Y-60357000D01*
X155927500Y-60357000D02*
X157427500Y-60357000D01*
X157427500Y-60357000D02*
X157427500Y-61107000D01*
G36*
X157427500Y-61107000D02*
G01*
X155927500Y-61107000D01*
X155927500Y-60357000D01*
X157427500Y-60357000D01*
X157427500Y-61107000D01*
G37*
X157427500Y-61107000D02*
X155927500Y-61107000D01*
X155927500Y-60357000D01*
X157427500Y-60357000D01*
X157427500Y-61107000D01*
X152427500Y-61107000D02*
X150927500Y-61107000D01*
X150927500Y-61107000D02*
X150927500Y-60357000D01*
X150927500Y-60357000D02*
X152427500Y-60357000D01*
X152427500Y-60357000D02*
X152427500Y-61107000D01*
G36*
X152427500Y-61107000D02*
G01*
X150927500Y-61107000D01*
X150927500Y-60357000D01*
X152427500Y-60357000D01*
X152427500Y-61107000D01*
G37*
X152427500Y-61107000D02*
X150927500Y-61107000D01*
X150927500Y-60357000D01*
X152427500Y-60357000D01*
X152427500Y-61107000D01*
X157427500Y-62857000D02*
X155927500Y-62857000D01*
X155927500Y-62857000D02*
X155927500Y-62107000D01*
X155927500Y-62107000D02*
X157427500Y-62107000D01*
X157427500Y-62107000D02*
X157427500Y-62857000D01*
G36*
X157427500Y-62857000D02*
G01*
X155927500Y-62857000D01*
X155927500Y-62107000D01*
X157427500Y-62107000D01*
X157427500Y-62857000D01*
G37*
X157427500Y-62857000D02*
X155927500Y-62857000D01*
X155927500Y-62107000D01*
X157427500Y-62107000D01*
X157427500Y-62857000D01*
X152427500Y-62857000D02*
X151327500Y-62857000D01*
X151327500Y-62857000D02*
X150927500Y-62457000D01*
X150927500Y-62457000D02*
X150927500Y-62107000D01*
X150927500Y-62107000D02*
X152427500Y-62107000D01*
X152427500Y-62107000D02*
X152427500Y-62857000D01*
G36*
X152427500Y-62857000D02*
G01*
X151327500Y-62857000D01*
X150927500Y-62457000D01*
X150927500Y-62107000D01*
X152427500Y-62107000D01*
X152427500Y-62857000D01*
G37*
X152427500Y-62857000D02*
X151327500Y-62857000D01*
X150927500Y-62457000D01*
X150927500Y-62107000D01*
X152427500Y-62107000D01*
X152427500Y-62857000D01*
%TO.C,SW6*%
X201108460Y-160472736D02*
X202169120Y-161533396D01*
X202169120Y-161533396D02*
X201638790Y-162063727D01*
X201638790Y-162063727D02*
X200578130Y-161003066D01*
X200578130Y-161003066D02*
X201108460Y-160472736D01*
G36*
X202169120Y-161533396D02*
G01*
X201638790Y-162063727D01*
X200578130Y-161003066D01*
X201108460Y-160472736D01*
X202169120Y-161533396D01*
G37*
X202169120Y-161533396D02*
X201638790Y-162063727D01*
X200578130Y-161003066D01*
X201108460Y-160472736D01*
X202169120Y-161533396D01*
X205881431Y-162770833D02*
X206659248Y-163548651D01*
X206659248Y-163548651D02*
X206659248Y-164114336D01*
X206659248Y-164114336D02*
X206411761Y-164361824D01*
X206411761Y-164361824D02*
X205351100Y-163301163D01*
X205351100Y-163301163D02*
X205881431Y-162770833D01*
G36*
X206659248Y-163548651D02*
G01*
X206659248Y-164114336D01*
X206411761Y-164361824D01*
X205351100Y-163301163D01*
X205881431Y-162770833D01*
X206659248Y-163548651D01*
G37*
X206659248Y-163548651D02*
X206659248Y-164114336D01*
X206411761Y-164361824D01*
X205351100Y-163301163D01*
X205881431Y-162770833D01*
X206659248Y-163548651D01*
X204643994Y-164008270D02*
X205704654Y-165068930D01*
X205704654Y-165068930D02*
X205174324Y-165599260D01*
X205174324Y-165599260D02*
X204113664Y-164538600D01*
X204113664Y-164538600D02*
X204643994Y-164008270D01*
G36*
X205704654Y-165068930D02*
G01*
X205174324Y-165599260D01*
X204113664Y-164538600D01*
X204643994Y-164008270D01*
X205704654Y-165068930D01*
G37*
X205704654Y-165068930D02*
X205174324Y-165599260D01*
X204113664Y-164538600D01*
X204643994Y-164008270D01*
X205704654Y-165068930D01*
X202345897Y-159235299D02*
X203406557Y-160295960D01*
X203406557Y-160295960D02*
X202876227Y-160826290D01*
X202876227Y-160826290D02*
X201815567Y-159765629D01*
X201815567Y-159765629D02*
X202345897Y-159235299D01*
G36*
X203406557Y-160295960D02*
G01*
X202876227Y-160826290D01*
X201815567Y-159765629D01*
X202345897Y-159235299D01*
X203406557Y-160295960D01*
G37*
X203406557Y-160295960D02*
X202876227Y-160826290D01*
X201815567Y-159765629D01*
X202345897Y-159235299D01*
X203406557Y-160295960D01*
%TO.C,SW22*%
X119327500Y-61107000D02*
X117827500Y-61107000D01*
X117827500Y-61107000D02*
X117827500Y-60357000D01*
X117827500Y-60357000D02*
X119327500Y-60357000D01*
X119327500Y-60357000D02*
X119327500Y-61107000D01*
G36*
X119327500Y-61107000D02*
G01*
X117827500Y-61107000D01*
X117827500Y-60357000D01*
X119327500Y-60357000D01*
X119327500Y-61107000D01*
G37*
X119327500Y-61107000D02*
X117827500Y-61107000D01*
X117827500Y-60357000D01*
X119327500Y-60357000D01*
X119327500Y-61107000D01*
X119327500Y-62857000D02*
X117827500Y-62857000D01*
X117827500Y-62857000D02*
X117827500Y-62107000D01*
X117827500Y-62107000D02*
X119327500Y-62107000D01*
X119327500Y-62107000D02*
X119327500Y-62857000D01*
G36*
X119327500Y-62857000D02*
G01*
X117827500Y-62857000D01*
X117827500Y-62107000D01*
X119327500Y-62107000D01*
X119327500Y-62857000D01*
G37*
X119327500Y-62857000D02*
X117827500Y-62857000D01*
X117827500Y-62107000D01*
X119327500Y-62107000D01*
X119327500Y-62857000D01*
X114327500Y-61107000D02*
X112827500Y-61107000D01*
X112827500Y-61107000D02*
X112827500Y-60357000D01*
X112827500Y-60357000D02*
X114327500Y-60357000D01*
X114327500Y-60357000D02*
X114327500Y-61107000D01*
G36*
X114327500Y-61107000D02*
G01*
X112827500Y-61107000D01*
X112827500Y-60357000D01*
X114327500Y-60357000D01*
X114327500Y-61107000D01*
G37*
X114327500Y-61107000D02*
X112827500Y-61107000D01*
X112827500Y-60357000D01*
X114327500Y-60357000D01*
X114327500Y-61107000D01*
X114327500Y-62857000D02*
X113227500Y-62857000D01*
X113227500Y-62857000D02*
X112827500Y-62457000D01*
X112827500Y-62457000D02*
X112827500Y-62107000D01*
X112827500Y-62107000D02*
X114327500Y-62107000D01*
X114327500Y-62107000D02*
X114327500Y-62857000D01*
G36*
X114327500Y-62857000D02*
G01*
X113227500Y-62857000D01*
X112827500Y-62457000D01*
X112827500Y-62107000D01*
X114327500Y-62107000D01*
X114327500Y-62857000D01*
G37*
X114327500Y-62857000D02*
X113227500Y-62857000D01*
X112827500Y-62457000D01*
X112827500Y-62107000D01*
X114327500Y-62107000D01*
X114327500Y-62857000D01*
%TO.C,SW25*%
X112347500Y-119177000D02*
X113847500Y-119177000D01*
X113847500Y-119177000D02*
X113847500Y-119927000D01*
X113847500Y-119927000D02*
X112347500Y-119927000D01*
X112347500Y-119927000D02*
X112347500Y-119177000D01*
G36*
X113847500Y-119927000D02*
G01*
X112347500Y-119927000D01*
X112347500Y-119177000D01*
X113847500Y-119177000D01*
X113847500Y-119927000D01*
G37*
X113847500Y-119927000D02*
X112347500Y-119927000D01*
X112347500Y-119177000D01*
X113847500Y-119177000D01*
X113847500Y-119927000D01*
X112347500Y-117427000D02*
X113847500Y-117427000D01*
X113847500Y-117427000D02*
X113847500Y-118177000D01*
X113847500Y-118177000D02*
X112347500Y-118177000D01*
X112347500Y-118177000D02*
X112347500Y-117427000D01*
G36*
X113847500Y-118177000D02*
G01*
X112347500Y-118177000D01*
X112347500Y-117427000D01*
X113847500Y-117427000D01*
X113847500Y-118177000D01*
G37*
X113847500Y-118177000D02*
X112347500Y-118177000D01*
X112347500Y-117427000D01*
X113847500Y-117427000D01*
X113847500Y-118177000D01*
X117347500Y-119177000D02*
X118847500Y-119177000D01*
X118847500Y-119177000D02*
X118847500Y-119927000D01*
X118847500Y-119927000D02*
X117347500Y-119927000D01*
X117347500Y-119927000D02*
X117347500Y-119177000D01*
G36*
X118847500Y-119927000D02*
G01*
X117347500Y-119927000D01*
X117347500Y-119177000D01*
X118847500Y-119177000D01*
X118847500Y-119927000D01*
G37*
X118847500Y-119927000D02*
X117347500Y-119927000D01*
X117347500Y-119177000D01*
X118847500Y-119177000D01*
X118847500Y-119927000D01*
X117347500Y-117427000D02*
X118447500Y-117427000D01*
X118447500Y-117427000D02*
X118847500Y-117827000D01*
X118847500Y-117827000D02*
X118847500Y-118177000D01*
X118847500Y-118177000D02*
X117347500Y-118177000D01*
X117347500Y-118177000D02*
X117347500Y-117427000D01*
G36*
X118847500Y-117827000D02*
G01*
X118847500Y-118177000D01*
X117347500Y-118177000D01*
X117347500Y-117427000D01*
X118447500Y-117427000D01*
X118847500Y-117827000D01*
G37*
X118847500Y-117827000D02*
X118847500Y-118177000D01*
X117347500Y-118177000D01*
X117347500Y-117427000D01*
X118447500Y-117427000D01*
X118847500Y-117827000D01*
%TO.C,SW29*%
X95277500Y-108732000D02*
X93777500Y-108732000D01*
X93777500Y-108732000D02*
X93777500Y-107982000D01*
X93777500Y-107982000D02*
X95277500Y-107982000D01*
X95277500Y-107982000D02*
X95277500Y-108732000D01*
G36*
X95277500Y-108732000D02*
G01*
X93777500Y-108732000D01*
X93777500Y-107982000D01*
X95277500Y-107982000D01*
X95277500Y-108732000D01*
G37*
X95277500Y-108732000D02*
X93777500Y-108732000D01*
X93777500Y-107982000D01*
X95277500Y-107982000D01*
X95277500Y-108732000D01*
X100277500Y-110482000D02*
X98777500Y-110482000D01*
X98777500Y-110482000D02*
X98777500Y-109732000D01*
X98777500Y-109732000D02*
X100277500Y-109732000D01*
X100277500Y-109732000D02*
X100277500Y-110482000D01*
G36*
X100277500Y-110482000D02*
G01*
X98777500Y-110482000D01*
X98777500Y-109732000D01*
X100277500Y-109732000D01*
X100277500Y-110482000D01*
G37*
X100277500Y-110482000D02*
X98777500Y-110482000D01*
X98777500Y-109732000D01*
X100277500Y-109732000D01*
X100277500Y-110482000D01*
X95277500Y-110482000D02*
X94177500Y-110482000D01*
X94177500Y-110482000D02*
X93777500Y-110082000D01*
X93777500Y-110082000D02*
X93777500Y-109732000D01*
X93777500Y-109732000D02*
X95277500Y-109732000D01*
X95277500Y-109732000D02*
X95277500Y-110482000D01*
G36*
X95277500Y-110482000D02*
G01*
X94177500Y-110482000D01*
X93777500Y-110082000D01*
X93777500Y-109732000D01*
X95277500Y-109732000D01*
X95277500Y-110482000D01*
G37*
X95277500Y-110482000D02*
X94177500Y-110482000D01*
X93777500Y-110082000D01*
X93777500Y-109732000D01*
X95277500Y-109732000D01*
X95277500Y-110482000D01*
X100277500Y-108732000D02*
X98777500Y-108732000D01*
X98777500Y-108732000D02*
X98777500Y-107982000D01*
X98777500Y-107982000D02*
X100277500Y-107982000D01*
X100277500Y-107982000D02*
X100277500Y-108732000D01*
G36*
X100277500Y-108732000D02*
G01*
X98777500Y-108732000D01*
X98777500Y-107982000D01*
X100277500Y-107982000D01*
X100277500Y-108732000D01*
G37*
X100277500Y-108732000D02*
X98777500Y-108732000D01*
X98777500Y-107982000D01*
X100277500Y-107982000D01*
X100277500Y-108732000D01*
%TO.C,SW20*%
X136397500Y-114414500D02*
X137897500Y-114414500D01*
X137897500Y-114414500D02*
X137897500Y-115164500D01*
X137897500Y-115164500D02*
X136397500Y-115164500D01*
X136397500Y-115164500D02*
X136397500Y-114414500D01*
G36*
X137897500Y-115164500D02*
G01*
X136397500Y-115164500D01*
X136397500Y-114414500D01*
X137897500Y-114414500D01*
X137897500Y-115164500D01*
G37*
X137897500Y-115164500D02*
X136397500Y-115164500D01*
X136397500Y-114414500D01*
X137897500Y-114414500D01*
X137897500Y-115164500D01*
X131397500Y-112664500D02*
X132897500Y-112664500D01*
X132897500Y-112664500D02*
X132897500Y-113414500D01*
X132897500Y-113414500D02*
X131397500Y-113414500D01*
X131397500Y-113414500D02*
X131397500Y-112664500D01*
G36*
X132897500Y-113414500D02*
G01*
X131397500Y-113414500D01*
X131397500Y-112664500D01*
X132897500Y-112664500D01*
X132897500Y-113414500D01*
G37*
X132897500Y-113414500D02*
X131397500Y-113414500D01*
X131397500Y-112664500D01*
X132897500Y-112664500D01*
X132897500Y-113414500D01*
X131397500Y-114414500D02*
X132897500Y-114414500D01*
X132897500Y-114414500D02*
X132897500Y-115164500D01*
X132897500Y-115164500D02*
X131397500Y-115164500D01*
X131397500Y-115164500D02*
X131397500Y-114414500D01*
G36*
X132897500Y-115164500D02*
G01*
X131397500Y-115164500D01*
X131397500Y-114414500D01*
X132897500Y-114414500D01*
X132897500Y-115164500D01*
G37*
X132897500Y-115164500D02*
X131397500Y-115164500D01*
X131397500Y-114414500D01*
X132897500Y-114414500D01*
X132897500Y-115164500D01*
X136397500Y-112664500D02*
X137497500Y-112664500D01*
X137497500Y-112664500D02*
X137897500Y-113064500D01*
X137897500Y-113064500D02*
X137897500Y-113414500D01*
X137897500Y-113414500D02*
X136397500Y-113414500D01*
X136397500Y-113414500D02*
X136397500Y-112664500D01*
G36*
X137897500Y-113064500D02*
G01*
X137897500Y-113414500D01*
X136397500Y-113414500D01*
X136397500Y-112664500D01*
X137497500Y-112664500D01*
X137897500Y-113064500D01*
G37*
X137897500Y-113064500D02*
X137897500Y-113414500D01*
X136397500Y-113414500D01*
X136397500Y-112664500D01*
X137497500Y-112664500D01*
X137897500Y-113064500D01*
%TO.C,SW24*%
X119327500Y-99207000D02*
X117827500Y-99207000D01*
X117827500Y-99207000D02*
X117827500Y-98457000D01*
X117827500Y-98457000D02*
X119327500Y-98457000D01*
X119327500Y-98457000D02*
X119327500Y-99207000D01*
G36*
X119327500Y-99207000D02*
G01*
X117827500Y-99207000D01*
X117827500Y-98457000D01*
X119327500Y-98457000D01*
X119327500Y-99207000D01*
G37*
X119327500Y-99207000D02*
X117827500Y-99207000D01*
X117827500Y-98457000D01*
X119327500Y-98457000D01*
X119327500Y-99207000D01*
X119327500Y-100957000D02*
X117827500Y-100957000D01*
X117827500Y-100957000D02*
X117827500Y-100207000D01*
X117827500Y-100207000D02*
X119327500Y-100207000D01*
X119327500Y-100207000D02*
X119327500Y-100957000D01*
G36*
X119327500Y-100957000D02*
G01*
X117827500Y-100957000D01*
X117827500Y-100207000D01*
X119327500Y-100207000D01*
X119327500Y-100957000D01*
G37*
X119327500Y-100957000D02*
X117827500Y-100957000D01*
X117827500Y-100207000D01*
X119327500Y-100207000D01*
X119327500Y-100957000D01*
X114327500Y-100957000D02*
X113227500Y-100957000D01*
X113227500Y-100957000D02*
X112827500Y-100557000D01*
X112827500Y-100557000D02*
X112827500Y-100207000D01*
X112827500Y-100207000D02*
X114327500Y-100207000D01*
X114327500Y-100207000D02*
X114327500Y-100957000D01*
G36*
X114327500Y-100957000D02*
G01*
X113227500Y-100957000D01*
X112827500Y-100557000D01*
X112827500Y-100207000D01*
X114327500Y-100207000D01*
X114327500Y-100957000D01*
G37*
X114327500Y-100957000D02*
X113227500Y-100957000D01*
X112827500Y-100557000D01*
X112827500Y-100207000D01*
X114327500Y-100207000D01*
X114327500Y-100957000D01*
X114327500Y-99207000D02*
X112827500Y-99207000D01*
X112827500Y-99207000D02*
X112827500Y-98457000D01*
X112827500Y-98457000D02*
X114327500Y-98457000D01*
X114327500Y-98457000D02*
X114327500Y-99207000D01*
G36*
X114327500Y-99207000D02*
G01*
X112827500Y-99207000D01*
X112827500Y-98457000D01*
X114327500Y-98457000D01*
X114327500Y-99207000D01*
G37*
X114327500Y-99207000D02*
X112827500Y-99207000D01*
X112827500Y-98457000D01*
X114327500Y-98457000D01*
X114327500Y-99207000D01*
%TO.C,SW13*%
X155447500Y-81077000D02*
X156947500Y-81077000D01*
X156947500Y-81077000D02*
X156947500Y-81827000D01*
X156947500Y-81827000D02*
X155447500Y-81827000D01*
X155447500Y-81827000D02*
X155447500Y-81077000D01*
G36*
X156947500Y-81827000D02*
G01*
X155447500Y-81827000D01*
X155447500Y-81077000D01*
X156947500Y-81077000D01*
X156947500Y-81827000D01*
G37*
X156947500Y-81827000D02*
X155447500Y-81827000D01*
X155447500Y-81077000D01*
X156947500Y-81077000D01*
X156947500Y-81827000D01*
X155447500Y-79327000D02*
X156547500Y-79327000D01*
X156547500Y-79327000D02*
X156947500Y-79727000D01*
X156947500Y-79727000D02*
X156947500Y-80077000D01*
X156947500Y-80077000D02*
X155447500Y-80077000D01*
X155447500Y-80077000D02*
X155447500Y-79327000D01*
G36*
X156947500Y-79727000D02*
G01*
X156947500Y-80077000D01*
X155447500Y-80077000D01*
X155447500Y-79327000D01*
X156547500Y-79327000D01*
X156947500Y-79727000D01*
G37*
X156947500Y-79727000D02*
X156947500Y-80077000D01*
X155447500Y-80077000D01*
X155447500Y-79327000D01*
X156547500Y-79327000D01*
X156947500Y-79727000D01*
X150447500Y-81077000D02*
X151947500Y-81077000D01*
X151947500Y-81077000D02*
X151947500Y-81827000D01*
X151947500Y-81827000D02*
X150447500Y-81827000D01*
X150447500Y-81827000D02*
X150447500Y-81077000D01*
G36*
X151947500Y-81827000D02*
G01*
X150447500Y-81827000D01*
X150447500Y-81077000D01*
X151947500Y-81077000D01*
X151947500Y-81827000D01*
G37*
X151947500Y-81827000D02*
X150447500Y-81827000D01*
X150447500Y-81077000D01*
X151947500Y-81077000D01*
X151947500Y-81827000D01*
X150447500Y-79327000D02*
X151947500Y-79327000D01*
X151947500Y-79327000D02*
X151947500Y-80077000D01*
X151947500Y-80077000D02*
X150447500Y-80077000D01*
X150447500Y-80077000D02*
X150447500Y-79327000D01*
G36*
X151947500Y-80077000D02*
G01*
X150447500Y-80077000D01*
X150447500Y-79327000D01*
X151947500Y-79327000D01*
X151947500Y-80077000D01*
G37*
X151947500Y-80077000D02*
X150447500Y-80077000D01*
X150447500Y-79327000D01*
X151947500Y-79327000D01*
X151947500Y-80077000D01*
%TO.C,SW3*%
X190527499Y-101588250D02*
X189027499Y-101588250D01*
X189027499Y-101588250D02*
X189027499Y-100838250D01*
X189027499Y-100838250D02*
X190527499Y-100838250D01*
X190527499Y-100838250D02*
X190527499Y-101588250D01*
G36*
X190527499Y-101588250D02*
G01*
X189027499Y-101588250D01*
X189027499Y-100838250D01*
X190527499Y-100838250D01*
X190527499Y-101588250D01*
G37*
X190527499Y-101588250D02*
X189027499Y-101588250D01*
X189027499Y-100838250D01*
X190527499Y-100838250D01*
X190527499Y-101588250D01*
X190527499Y-103338250D02*
X189427499Y-103338250D01*
X189427499Y-103338250D02*
X189027499Y-102938250D01*
X189027499Y-102938250D02*
X189027499Y-102588250D01*
X189027499Y-102588250D02*
X190527499Y-102588250D01*
X190527499Y-102588250D02*
X190527499Y-103338250D01*
G36*
X190527499Y-103338250D02*
G01*
X189427499Y-103338250D01*
X189027499Y-102938250D01*
X189027499Y-102588250D01*
X190527499Y-102588250D01*
X190527499Y-103338250D01*
G37*
X190527499Y-103338250D02*
X189427499Y-103338250D01*
X189027499Y-102938250D01*
X189027499Y-102588250D01*
X190527499Y-102588250D01*
X190527499Y-103338250D01*
X195527499Y-103338250D02*
X194027499Y-103338250D01*
X194027499Y-103338250D02*
X194027499Y-102588250D01*
X194027499Y-102588250D02*
X195527499Y-102588250D01*
X195527499Y-102588250D02*
X195527499Y-103338250D01*
G36*
X195527499Y-103338250D02*
G01*
X194027499Y-103338250D01*
X194027499Y-102588250D01*
X195527499Y-102588250D01*
X195527499Y-103338250D01*
G37*
X195527499Y-103338250D02*
X194027499Y-103338250D01*
X194027499Y-102588250D01*
X195527499Y-102588250D01*
X195527499Y-103338250D01*
X195527499Y-101588250D02*
X194027499Y-101588250D01*
X194027499Y-101588250D02*
X194027499Y-100838250D01*
X194027499Y-100838250D02*
X195527499Y-100838250D01*
X195527499Y-100838250D02*
X195527499Y-101588250D01*
G36*
X195527499Y-101588250D02*
G01*
X194027499Y-101588250D01*
X194027499Y-100838250D01*
X195527499Y-100838250D01*
X195527499Y-101588250D01*
G37*
X195527499Y-101588250D02*
X194027499Y-101588250D01*
X194027499Y-100838250D01*
X195527499Y-100838250D01*
X195527499Y-101588250D01*
%TO.C,SW17*%
X138377500Y-58094500D02*
X136877500Y-58094500D01*
X136877500Y-58094500D02*
X136877500Y-57344500D01*
X136877500Y-57344500D02*
X138377500Y-57344500D01*
X138377500Y-57344500D02*
X138377500Y-58094500D01*
G36*
X138377500Y-58094500D02*
G01*
X136877500Y-58094500D01*
X136877500Y-57344500D01*
X138377500Y-57344500D01*
X138377500Y-58094500D01*
G37*
X138377500Y-58094500D02*
X136877500Y-58094500D01*
X136877500Y-57344500D01*
X138377500Y-57344500D01*
X138377500Y-58094500D01*
X133377500Y-56344500D02*
X131877500Y-56344500D01*
X131877500Y-56344500D02*
X131877500Y-55594500D01*
X131877500Y-55594500D02*
X133377500Y-55594500D01*
X133377500Y-55594500D02*
X133377500Y-56344500D01*
G36*
X133377500Y-56344500D02*
G01*
X131877500Y-56344500D01*
X131877500Y-55594500D01*
X133377500Y-55594500D01*
X133377500Y-56344500D01*
G37*
X133377500Y-56344500D02*
X131877500Y-56344500D01*
X131877500Y-55594500D01*
X133377500Y-55594500D01*
X133377500Y-56344500D01*
X133377500Y-58094500D02*
X132277500Y-58094500D01*
X132277500Y-58094500D02*
X131877500Y-57694500D01*
X131877500Y-57694500D02*
X131877500Y-57344500D01*
X131877500Y-57344500D02*
X133377500Y-57344500D01*
X133377500Y-57344500D02*
X133377500Y-58094500D01*
G36*
X133377500Y-58094500D02*
G01*
X132277500Y-58094500D01*
X131877500Y-57694500D01*
X131877500Y-57344500D01*
X133377500Y-57344500D01*
X133377500Y-58094500D01*
G37*
X133377500Y-58094500D02*
X132277500Y-58094500D01*
X131877500Y-57694500D01*
X131877500Y-57344500D01*
X133377500Y-57344500D01*
X133377500Y-58094500D01*
X138377500Y-56344500D02*
X136877500Y-56344500D01*
X136877500Y-56344500D02*
X136877500Y-55594500D01*
X136877500Y-55594500D02*
X138377500Y-55594500D01*
X138377500Y-55594500D02*
X138377500Y-56344500D01*
G36*
X138377500Y-56344500D02*
G01*
X136877500Y-56344500D01*
X136877500Y-55594500D01*
X138377500Y-55594500D01*
X138377500Y-56344500D01*
G37*
X138377500Y-56344500D02*
X136877500Y-56344500D01*
X136877500Y-55594500D01*
X138377500Y-55594500D01*
X138377500Y-56344500D01*
%TO.C,SW11*%
X197973579Y-132317225D02*
X198926207Y-132867225D01*
X198926207Y-132867225D02*
X199072617Y-133413635D01*
X199072617Y-133413635D02*
X198897617Y-133716744D01*
X198897617Y-133716744D02*
X197598579Y-132966744D01*
X197598579Y-132966744D02*
X197973579Y-132317225D01*
G36*
X198926207Y-132867225D02*
G01*
X199072617Y-133413635D01*
X198897617Y-133716744D01*
X197598579Y-132966744D01*
X197973579Y-132317225D01*
X198926207Y-132867225D01*
G37*
X198926207Y-132867225D02*
X199072617Y-133413635D01*
X198897617Y-133716744D01*
X197598579Y-132966744D01*
X197973579Y-132317225D01*
X198926207Y-132867225D01*
X193643452Y-129817225D02*
X194942490Y-130567225D01*
X194942490Y-130567225D02*
X194567490Y-131216744D01*
X194567490Y-131216744D02*
X193268452Y-130466744D01*
X193268452Y-130466744D02*
X193643452Y-129817225D01*
G36*
X194942490Y-130567225D02*
G01*
X194567490Y-131216744D01*
X193268452Y-130466744D01*
X193643452Y-129817225D01*
X194942490Y-130567225D01*
G37*
X194942490Y-130567225D02*
X194567490Y-131216744D01*
X193268452Y-130466744D01*
X193643452Y-129817225D01*
X194942490Y-130567225D01*
X197098579Y-133832769D02*
X198397617Y-134582769D01*
X198397617Y-134582769D02*
X198022617Y-135232288D01*
X198022617Y-135232288D02*
X196723579Y-134482288D01*
X196723579Y-134482288D02*
X197098579Y-133832769D01*
G36*
X198397617Y-134582769D02*
G01*
X198022617Y-135232288D01*
X196723579Y-134482288D01*
X197098579Y-133832769D01*
X198397617Y-134582769D01*
G37*
X198397617Y-134582769D02*
X198022617Y-135232288D01*
X196723579Y-134482288D01*
X197098579Y-133832769D01*
X198397617Y-134582769D01*
X192768452Y-131332769D02*
X194067490Y-132082769D01*
X194067490Y-132082769D02*
X193692490Y-132732288D01*
X193692490Y-132732288D02*
X192393452Y-131982288D01*
X192393452Y-131982288D02*
X192768452Y-131332769D01*
G36*
X194067490Y-132082769D02*
G01*
X193692490Y-132732288D01*
X192393452Y-131982288D01*
X192768452Y-131332769D01*
X194067490Y-132082769D01*
G37*
X194067490Y-132082769D02*
X193692490Y-132732288D01*
X192393452Y-131982288D01*
X192768452Y-131332769D01*
X194067490Y-132082769D01*
%TO.C,SW21*%
X164865788Y-139866758D02*
X163416899Y-139478529D01*
X163416899Y-139478529D02*
X163611013Y-138754085D01*
X163611013Y-138754085D02*
X165059902Y-139142313D01*
X165059902Y-139142313D02*
X164865788Y-139866758D01*
G36*
X165059902Y-139142313D02*
G01*
X164865788Y-139866758D01*
X163416899Y-139478529D01*
X163611013Y-138754085D01*
X165059902Y-139142313D01*
G37*
X165059902Y-139142313D02*
X164865788Y-139866758D01*
X163416899Y-139478529D01*
X163611013Y-138754085D01*
X165059902Y-139142313D01*
X169695417Y-141160853D02*
X168246528Y-140772624D01*
X168246528Y-140772624D02*
X168440642Y-140048180D01*
X168440642Y-140048180D02*
X169889531Y-140436409D01*
X169889531Y-140436409D02*
X169695417Y-141160853D01*
G36*
X169889531Y-140436409D02*
G01*
X169695417Y-141160853D01*
X168246528Y-140772624D01*
X168440642Y-140048180D01*
X169889531Y-140436409D01*
G37*
X169889531Y-140436409D02*
X169695417Y-141160853D01*
X168246528Y-140772624D01*
X168440642Y-140048180D01*
X169889531Y-140436409D01*
X164412854Y-141557128D02*
X163350336Y-141272427D01*
X163350336Y-141272427D02*
X163067493Y-140782529D01*
X163067493Y-140782529D02*
X163158080Y-140444455D01*
X163158080Y-140444455D02*
X164606969Y-140832684D01*
X164606969Y-140832684D02*
X164412854Y-141557128D01*
G36*
X164606969Y-140832684D02*
G01*
X164412854Y-141557128D01*
X163350336Y-141272427D01*
X163067493Y-140782529D01*
X163158080Y-140444455D01*
X164606969Y-140832684D01*
G37*
X164606969Y-140832684D02*
X164412854Y-141557128D01*
X163350336Y-141272427D01*
X163067493Y-140782529D01*
X163158080Y-140444455D01*
X164606969Y-140832684D01*
X169242484Y-142851223D02*
X167793595Y-142462995D01*
X167793595Y-142462995D02*
X167987709Y-141738550D01*
X167987709Y-141738550D02*
X169436598Y-142126779D01*
X169436598Y-142126779D02*
X169242484Y-142851223D01*
G36*
X169436598Y-142126779D02*
G01*
X169242484Y-142851223D01*
X167793595Y-142462995D01*
X167987709Y-141738550D01*
X169436598Y-142126779D01*
G37*
X169436598Y-142126779D02*
X169242484Y-142851223D01*
X167793595Y-142462995D01*
X167987709Y-141738550D01*
X169436598Y-142126779D01*
%TO.C,SW14*%
X157427500Y-100957000D02*
X155927500Y-100957000D01*
X155927500Y-100957000D02*
X155927500Y-100207000D01*
X155927500Y-100207000D02*
X157427500Y-100207000D01*
X157427500Y-100207000D02*
X157427500Y-100957000D01*
G36*
X157427500Y-100957000D02*
G01*
X155927500Y-100957000D01*
X155927500Y-100207000D01*
X157427500Y-100207000D01*
X157427500Y-100957000D01*
G37*
X157427500Y-100957000D02*
X155927500Y-100957000D01*
X155927500Y-100207000D01*
X157427500Y-100207000D01*
X157427500Y-100957000D01*
X152427500Y-99207000D02*
X150927500Y-99207000D01*
X150927500Y-99207000D02*
X150927500Y-98457000D01*
X150927500Y-98457000D02*
X152427500Y-98457000D01*
X152427500Y-98457000D02*
X152427500Y-99207000D01*
G36*
X152427500Y-99207000D02*
G01*
X150927500Y-99207000D01*
X150927500Y-98457000D01*
X152427500Y-98457000D01*
X152427500Y-99207000D01*
G37*
X152427500Y-99207000D02*
X150927500Y-99207000D01*
X150927500Y-98457000D01*
X152427500Y-98457000D01*
X152427500Y-99207000D01*
X157427500Y-99207000D02*
X155927500Y-99207000D01*
X155927500Y-99207000D02*
X155927500Y-98457000D01*
X155927500Y-98457000D02*
X157427500Y-98457000D01*
X157427500Y-98457000D02*
X157427500Y-99207000D01*
G36*
X157427500Y-99207000D02*
G01*
X155927500Y-99207000D01*
X155927500Y-98457000D01*
X157427500Y-98457000D01*
X157427500Y-99207000D01*
G37*
X157427500Y-99207000D02*
X155927500Y-99207000D01*
X155927500Y-98457000D01*
X157427500Y-98457000D01*
X157427500Y-99207000D01*
X152427500Y-100957000D02*
X151327500Y-100957000D01*
X151327500Y-100957000D02*
X150927500Y-100557000D01*
X150927500Y-100557000D02*
X150927500Y-100207000D01*
X150927500Y-100207000D02*
X152427500Y-100207000D01*
X152427500Y-100207000D02*
X152427500Y-100957000D01*
G36*
X152427500Y-100957000D02*
G01*
X151327500Y-100957000D01*
X150927500Y-100557000D01*
X150927500Y-100207000D01*
X152427500Y-100207000D01*
X152427500Y-100957000D01*
G37*
X152427500Y-100957000D02*
X151327500Y-100957000D01*
X150927500Y-100557000D01*
X150927500Y-100207000D01*
X152427500Y-100207000D01*
X152427500Y-100957000D01*
%TO.C,SW35*%
X79247499Y-126952000D02*
X80347499Y-126952000D01*
X80347499Y-126952000D02*
X80747499Y-127352000D01*
X80747499Y-127352000D02*
X80747499Y-127702000D01*
X80747499Y-127702000D02*
X79247499Y-127702000D01*
X79247499Y-127702000D02*
X79247499Y-126952000D01*
G36*
X80747499Y-127352000D02*
G01*
X80747499Y-127702000D01*
X79247499Y-127702000D01*
X79247499Y-126952000D01*
X80347499Y-126952000D01*
X80747499Y-127352000D01*
G37*
X80747499Y-127352000D02*
X80747499Y-127702000D01*
X79247499Y-127702000D01*
X79247499Y-126952000D01*
X80347499Y-126952000D01*
X80747499Y-127352000D01*
X79247499Y-128702000D02*
X80747499Y-128702000D01*
X80747499Y-128702000D02*
X80747499Y-129452000D01*
X80747499Y-129452000D02*
X79247499Y-129452000D01*
X79247499Y-129452000D02*
X79247499Y-128702000D01*
G36*
X80747499Y-129452000D02*
G01*
X79247499Y-129452000D01*
X79247499Y-128702000D01*
X80747499Y-128702000D01*
X80747499Y-129452000D01*
G37*
X80747499Y-129452000D02*
X79247499Y-129452000D01*
X79247499Y-128702000D01*
X80747499Y-128702000D01*
X80747499Y-129452000D01*
X74247499Y-128702000D02*
X75747499Y-128702000D01*
X75747499Y-128702000D02*
X75747499Y-129452000D01*
X75747499Y-129452000D02*
X74247499Y-129452000D01*
X74247499Y-129452000D02*
X74247499Y-128702000D01*
G36*
X75747499Y-129452000D02*
G01*
X74247499Y-129452000D01*
X74247499Y-128702000D01*
X75747499Y-128702000D01*
X75747499Y-129452000D01*
G37*
X75747499Y-129452000D02*
X74247499Y-129452000D01*
X74247499Y-128702000D01*
X75747499Y-128702000D01*
X75747499Y-129452000D01*
X74247499Y-126952000D02*
X75747499Y-126952000D01*
X75747499Y-126952000D02*
X75747499Y-127702000D01*
X75747499Y-127702000D02*
X74247499Y-127702000D01*
X74247499Y-127702000D02*
X74247499Y-126952000D01*
G36*
X75747499Y-127702000D02*
G01*
X74247499Y-127702000D01*
X74247499Y-126952000D01*
X75747499Y-126952000D01*
X75747499Y-127702000D01*
G37*
X75747499Y-127702000D02*
X74247499Y-127702000D01*
X74247499Y-126952000D01*
X75747499Y-126952000D01*
X75747499Y-127702000D01*
%TO.C,SW8*%
X174497500Y-81708250D02*
X175597500Y-81708250D01*
X175597500Y-81708250D02*
X175997500Y-82108250D01*
X175997500Y-82108250D02*
X175997500Y-82458250D01*
X175997500Y-82458250D02*
X174497500Y-82458250D01*
X174497500Y-82458250D02*
X174497500Y-81708250D01*
G36*
X175997500Y-82108250D02*
G01*
X175997500Y-82458250D01*
X174497500Y-82458250D01*
X174497500Y-81708250D01*
X175597500Y-81708250D01*
X175997500Y-82108250D01*
G37*
X175997500Y-82108250D02*
X175997500Y-82458250D01*
X174497500Y-82458250D01*
X174497500Y-81708250D01*
X175597500Y-81708250D01*
X175997500Y-82108250D01*
X169497500Y-83458250D02*
X170997500Y-83458250D01*
X170997500Y-83458250D02*
X170997500Y-84208250D01*
X170997500Y-84208250D02*
X169497500Y-84208250D01*
X169497500Y-84208250D02*
X169497500Y-83458250D01*
G36*
X170997500Y-84208250D02*
G01*
X169497500Y-84208250D01*
X169497500Y-83458250D01*
X170997500Y-83458250D01*
X170997500Y-84208250D01*
G37*
X170997500Y-84208250D02*
X169497500Y-84208250D01*
X169497500Y-83458250D01*
X170997500Y-83458250D01*
X170997500Y-84208250D01*
X169497500Y-81708250D02*
X170997500Y-81708250D01*
X170997500Y-81708250D02*
X170997500Y-82458250D01*
X170997500Y-82458250D02*
X169497500Y-82458250D01*
X169497500Y-82458250D02*
X169497500Y-81708250D01*
G36*
X170997500Y-82458250D02*
G01*
X169497500Y-82458250D01*
X169497500Y-81708250D01*
X170997500Y-81708250D01*
X170997500Y-82458250D01*
G37*
X170997500Y-82458250D02*
X169497500Y-82458250D01*
X169497500Y-81708250D01*
X170997500Y-81708250D01*
X170997500Y-82458250D01*
X174497500Y-83458250D02*
X175997500Y-83458250D01*
X175997500Y-83458250D02*
X175997500Y-84208250D01*
X175997500Y-84208250D02*
X174497500Y-84208250D01*
X174497500Y-84208250D02*
X174497500Y-83458250D01*
G36*
X175997500Y-84208250D02*
G01*
X174497500Y-84208250D01*
X174497500Y-83458250D01*
X175997500Y-83458250D01*
X175997500Y-84208250D01*
G37*
X175997500Y-84208250D02*
X174497500Y-84208250D01*
X174497500Y-83458250D01*
X175997500Y-83458250D01*
X175997500Y-84208250D01*
%TO.C,SW28*%
X98297500Y-90602000D02*
X99797500Y-90602000D01*
X99797500Y-90602000D02*
X99797500Y-91352000D01*
X99797500Y-91352000D02*
X98297500Y-91352000D01*
X98297500Y-91352000D02*
X98297500Y-90602000D01*
G36*
X99797500Y-91352000D02*
G01*
X98297500Y-91352000D01*
X98297500Y-90602000D01*
X99797500Y-90602000D01*
X99797500Y-91352000D01*
G37*
X99797500Y-91352000D02*
X98297500Y-91352000D01*
X98297500Y-90602000D01*
X99797500Y-90602000D01*
X99797500Y-91352000D01*
X98297500Y-88852000D02*
X99397500Y-88852000D01*
X99397500Y-88852000D02*
X99797500Y-89252000D01*
X99797500Y-89252000D02*
X99797500Y-89602000D01*
X99797500Y-89602000D02*
X98297500Y-89602000D01*
X98297500Y-89602000D02*
X98297500Y-88852000D01*
G36*
X99797500Y-89252000D02*
G01*
X99797500Y-89602000D01*
X98297500Y-89602000D01*
X98297500Y-88852000D01*
X99397500Y-88852000D01*
X99797500Y-89252000D01*
G37*
X99797500Y-89252000D02*
X99797500Y-89602000D01*
X98297500Y-89602000D01*
X98297500Y-88852000D01*
X99397500Y-88852000D01*
X99797500Y-89252000D01*
X93297500Y-90602000D02*
X94797500Y-90602000D01*
X94797500Y-90602000D02*
X94797500Y-91352000D01*
X94797500Y-91352000D02*
X93297500Y-91352000D01*
X93297500Y-91352000D02*
X93297500Y-90602000D01*
G36*
X94797500Y-91352000D02*
G01*
X93297500Y-91352000D01*
X93297500Y-90602000D01*
X94797500Y-90602000D01*
X94797500Y-91352000D01*
G37*
X94797500Y-91352000D02*
X93297500Y-91352000D01*
X93297500Y-90602000D01*
X94797500Y-90602000D01*
X94797500Y-91352000D01*
X93297500Y-88852000D02*
X94797500Y-88852000D01*
X94797500Y-88852000D02*
X94797500Y-89602000D01*
X94797500Y-89602000D02*
X93297500Y-89602000D01*
X93297500Y-89602000D02*
X93297500Y-88852000D01*
G36*
X94797500Y-89602000D02*
G01*
X93297500Y-89602000D01*
X93297500Y-88852000D01*
X94797500Y-88852000D01*
X94797500Y-89602000D01*
G37*
X94797500Y-89602000D02*
X93297500Y-89602000D01*
X93297500Y-88852000D01*
X94797500Y-88852000D01*
X94797500Y-89602000D01*
%TO.C,SW4*%
X214578844Y-147002353D02*
X215639504Y-148063013D01*
X215639504Y-148063013D02*
X215109174Y-148593344D01*
X215109174Y-148593344D02*
X214048514Y-147532683D01*
X214048514Y-147532683D02*
X214578844Y-147002353D01*
G36*
X215639504Y-148063013D02*
G01*
X215109174Y-148593344D01*
X214048514Y-147532683D01*
X214578844Y-147002353D01*
X215639504Y-148063013D01*
G37*
X215639504Y-148063013D02*
X215109174Y-148593344D01*
X214048514Y-147532683D01*
X214578844Y-147002353D01*
X215639504Y-148063013D01*
X215816281Y-145764916D02*
X216876941Y-146825577D01*
X216876941Y-146825577D02*
X216346611Y-147355907D01*
X216346611Y-147355907D02*
X215285951Y-146295246D01*
X215285951Y-146295246D02*
X215816281Y-145764916D01*
G36*
X216876941Y-146825577D02*
G01*
X216346611Y-147355907D01*
X215285951Y-146295246D01*
X215816281Y-145764916D01*
X216876941Y-146825577D01*
G37*
X216876941Y-146825577D02*
X216346611Y-147355907D01*
X215285951Y-146295246D01*
X215816281Y-145764916D01*
X216876941Y-146825577D01*
X219351815Y-149300450D02*
X220129632Y-150078268D01*
X220129632Y-150078268D02*
X220129632Y-150643953D01*
X220129632Y-150643953D02*
X219882145Y-150891441D01*
X219882145Y-150891441D02*
X218821484Y-149830780D01*
X218821484Y-149830780D02*
X219351815Y-149300450D01*
G36*
X220129632Y-150078268D02*
G01*
X220129632Y-150643953D01*
X219882145Y-150891441D01*
X218821484Y-149830780D01*
X219351815Y-149300450D01*
X220129632Y-150078268D01*
G37*
X220129632Y-150078268D02*
X220129632Y-150643953D01*
X219882145Y-150891441D01*
X218821484Y-149830780D01*
X219351815Y-149300450D01*
X220129632Y-150078268D01*
X218114378Y-150537887D02*
X219175038Y-151598547D01*
X219175038Y-151598547D02*
X218644708Y-152128877D01*
X218644708Y-152128877D02*
X217584048Y-151068217D01*
X217584048Y-151068217D02*
X218114378Y-150537887D01*
G36*
X219175038Y-151598547D02*
G01*
X218644708Y-152128877D01*
X217584048Y-151068217D01*
X218114378Y-150537887D01*
X219175038Y-151598547D01*
G37*
X219175038Y-151598547D02*
X218644708Y-152128877D01*
X217584048Y-151068217D01*
X218114378Y-150537887D01*
X219175038Y-151598547D01*
%TO.C,SW23*%
X112347500Y-81077000D02*
X113847500Y-81077000D01*
X113847500Y-81077000D02*
X113847500Y-81827000D01*
X113847500Y-81827000D02*
X112347500Y-81827000D01*
X112347500Y-81827000D02*
X112347500Y-81077000D01*
G36*
X113847500Y-81827000D02*
G01*
X112347500Y-81827000D01*
X112347500Y-81077000D01*
X113847500Y-81077000D01*
X113847500Y-81827000D01*
G37*
X113847500Y-81827000D02*
X112347500Y-81827000D01*
X112347500Y-81077000D01*
X113847500Y-81077000D01*
X113847500Y-81827000D01*
X117347500Y-81077000D02*
X118847500Y-81077000D01*
X118847500Y-81077000D02*
X118847500Y-81827000D01*
X118847500Y-81827000D02*
X117347500Y-81827000D01*
X117347500Y-81827000D02*
X117347500Y-81077000D01*
G36*
X118847500Y-81827000D02*
G01*
X117347500Y-81827000D01*
X117347500Y-81077000D01*
X118847500Y-81077000D01*
X118847500Y-81827000D01*
G37*
X118847500Y-81827000D02*
X117347500Y-81827000D01*
X117347500Y-81077000D01*
X118847500Y-81077000D01*
X118847500Y-81827000D01*
X112347500Y-79327000D02*
X113847500Y-79327000D01*
X113847500Y-79327000D02*
X113847500Y-80077000D01*
X113847500Y-80077000D02*
X112347500Y-80077000D01*
X112347500Y-80077000D02*
X112347500Y-79327000D01*
G36*
X113847500Y-80077000D02*
G01*
X112347500Y-80077000D01*
X112347500Y-79327000D01*
X113847500Y-79327000D01*
X113847500Y-80077000D01*
G37*
X113847500Y-80077000D02*
X112347500Y-80077000D01*
X112347500Y-79327000D01*
X113847500Y-79327000D01*
X113847500Y-80077000D01*
X117347500Y-79327000D02*
X118447500Y-79327000D01*
X118447500Y-79327000D02*
X118847500Y-79727000D01*
X118847500Y-79727000D02*
X118847500Y-80077000D01*
X118847500Y-80077000D02*
X117347500Y-80077000D01*
X117347500Y-80077000D02*
X117347500Y-79327000D01*
G36*
X118847500Y-79727000D02*
G01*
X118847500Y-80077000D01*
X117347500Y-80077000D01*
X117347500Y-79327000D01*
X118447500Y-79327000D01*
X118847500Y-79727000D01*
G37*
X118847500Y-79727000D02*
X118847500Y-80077000D01*
X117347500Y-80077000D01*
X117347500Y-79327000D01*
X118447500Y-79327000D01*
X118847500Y-79727000D01*
%TO.C,SW34*%
X76227499Y-108731999D02*
X74727499Y-108731999D01*
X74727499Y-108731999D02*
X74727499Y-107981999D01*
X74727499Y-107981999D02*
X76227499Y-107981999D01*
X76227499Y-107981999D02*
X76227499Y-108731999D01*
G36*
X76227499Y-108731999D02*
G01*
X74727499Y-108731999D01*
X74727499Y-107981999D01*
X76227499Y-107981999D01*
X76227499Y-108731999D01*
G37*
X76227499Y-108731999D02*
X74727499Y-108731999D01*
X74727499Y-107981999D01*
X76227499Y-107981999D01*
X76227499Y-108731999D01*
X76227499Y-110481999D02*
X75127499Y-110481999D01*
X75127499Y-110481999D02*
X74727499Y-110081999D01*
X74727499Y-110081999D02*
X74727499Y-109731999D01*
X74727499Y-109731999D02*
X76227499Y-109731999D01*
X76227499Y-109731999D02*
X76227499Y-110481999D01*
G36*
X76227499Y-110481999D02*
G01*
X75127499Y-110481999D01*
X74727499Y-110081999D01*
X74727499Y-109731999D01*
X76227499Y-109731999D01*
X76227499Y-110481999D01*
G37*
X76227499Y-110481999D02*
X75127499Y-110481999D01*
X74727499Y-110081999D01*
X74727499Y-109731999D01*
X76227499Y-109731999D01*
X76227499Y-110481999D01*
X81227499Y-108731999D02*
X79727499Y-108731999D01*
X79727499Y-108731999D02*
X79727499Y-107981999D01*
X79727499Y-107981999D02*
X81227499Y-107981999D01*
X81227499Y-107981999D02*
X81227499Y-108731999D01*
G36*
X81227499Y-108731999D02*
G01*
X79727499Y-108731999D01*
X79727499Y-107981999D01*
X81227499Y-107981999D01*
X81227499Y-108731999D01*
G37*
X81227499Y-108731999D02*
X79727499Y-108731999D01*
X79727499Y-107981999D01*
X81227499Y-107981999D01*
X81227499Y-108731999D01*
X81227499Y-110481999D02*
X79727499Y-110481999D01*
X79727499Y-110481999D02*
X79727499Y-109731999D01*
X79727499Y-109731999D02*
X81227499Y-109731999D01*
X81227499Y-109731999D02*
X81227499Y-110481999D01*
G36*
X81227499Y-110481999D02*
G01*
X79727499Y-110481999D01*
X79727499Y-109731999D01*
X81227499Y-109731999D01*
X81227499Y-110481999D01*
G37*
X81227499Y-110481999D02*
X79727499Y-110481999D01*
X79727499Y-109731999D01*
X81227499Y-109731999D01*
X81227499Y-110481999D01*
%TO.C,SW15*%
X150447500Y-117427000D02*
X151947500Y-117427000D01*
X151947500Y-117427000D02*
X151947500Y-118177000D01*
X151947500Y-118177000D02*
X150447500Y-118177000D01*
X150447500Y-118177000D02*
X150447500Y-117427000D01*
G36*
X151947500Y-118177000D02*
G01*
X150447500Y-118177000D01*
X150447500Y-117427000D01*
X151947500Y-117427000D01*
X151947500Y-118177000D01*
G37*
X151947500Y-118177000D02*
X150447500Y-118177000D01*
X150447500Y-117427000D01*
X151947500Y-117427000D01*
X151947500Y-118177000D01*
X150447500Y-119177000D02*
X151947500Y-119177000D01*
X151947500Y-119177000D02*
X151947500Y-119927000D01*
X151947500Y-119927000D02*
X150447500Y-119927000D01*
X150447500Y-119927000D02*
X150447500Y-119177000D01*
G36*
X151947500Y-119927000D02*
G01*
X150447500Y-119927000D01*
X150447500Y-119177000D01*
X151947500Y-119177000D01*
X151947500Y-119927000D01*
G37*
X151947500Y-119927000D02*
X150447500Y-119927000D01*
X150447500Y-119177000D01*
X151947500Y-119177000D01*
X151947500Y-119927000D01*
X155447500Y-119177000D02*
X156947500Y-119177000D01*
X156947500Y-119177000D02*
X156947500Y-119927000D01*
X156947500Y-119927000D02*
X155447500Y-119927000D01*
X155447500Y-119927000D02*
X155447500Y-119177000D01*
G36*
X156947500Y-119927000D02*
G01*
X155447500Y-119927000D01*
X155447500Y-119177000D01*
X156947500Y-119177000D01*
X156947500Y-119927000D01*
G37*
X156947500Y-119927000D02*
X155447500Y-119927000D01*
X155447500Y-119177000D01*
X156947500Y-119177000D01*
X156947500Y-119927000D01*
X155447500Y-117427000D02*
X156547500Y-117427000D01*
X156547500Y-117427000D02*
X156947500Y-117827000D01*
X156947500Y-117827000D02*
X156947500Y-118177000D01*
X156947500Y-118177000D02*
X155447500Y-118177000D01*
X155447500Y-118177000D02*
X155447500Y-117427000D01*
G36*
X156947500Y-117827000D02*
G01*
X156947500Y-118177000D01*
X155447500Y-118177000D01*
X155447500Y-117427000D01*
X156547500Y-117427000D01*
X156947500Y-117827000D01*
G37*
X156947500Y-117827000D02*
X156947500Y-118177000D01*
X155447500Y-118177000D01*
X155447500Y-117427000D01*
X156547500Y-117427000D01*
X156947500Y-117827000D01*
%TO.C,SW2*%
X193547499Y-83458250D02*
X195047499Y-83458250D01*
X195047499Y-83458250D02*
X195047499Y-84208250D01*
X195047499Y-84208250D02*
X193547499Y-84208250D01*
X193547499Y-84208250D02*
X193547499Y-83458250D01*
G36*
X195047499Y-84208250D02*
G01*
X193547499Y-84208250D01*
X193547499Y-83458250D01*
X195047499Y-83458250D01*
X195047499Y-84208250D01*
G37*
X195047499Y-84208250D02*
X193547499Y-84208250D01*
X193547499Y-83458250D01*
X195047499Y-83458250D01*
X195047499Y-84208250D01*
X188547499Y-83458250D02*
X190047499Y-83458250D01*
X190047499Y-83458250D02*
X190047499Y-84208250D01*
X190047499Y-84208250D02*
X188547499Y-84208250D01*
X188547499Y-84208250D02*
X188547499Y-83458250D01*
G36*
X190047499Y-84208250D02*
G01*
X188547499Y-84208250D01*
X188547499Y-83458250D01*
X190047499Y-83458250D01*
X190047499Y-84208250D01*
G37*
X190047499Y-84208250D02*
X188547499Y-84208250D01*
X188547499Y-83458250D01*
X190047499Y-83458250D01*
X190047499Y-84208250D01*
X193547499Y-81708250D02*
X194647499Y-81708250D01*
X194647499Y-81708250D02*
X195047499Y-82108250D01*
X195047499Y-82108250D02*
X195047499Y-82458250D01*
X195047499Y-82458250D02*
X193547499Y-82458250D01*
X193547499Y-82458250D02*
X193547499Y-81708250D01*
G36*
X195047499Y-82108250D02*
G01*
X195047499Y-82458250D01*
X193547499Y-82458250D01*
X193547499Y-81708250D01*
X194647499Y-81708250D01*
X195047499Y-82108250D01*
G37*
X195047499Y-82108250D02*
X195047499Y-82458250D01*
X193547499Y-82458250D01*
X193547499Y-81708250D01*
X194647499Y-81708250D01*
X195047499Y-82108250D01*
X188547499Y-81708250D02*
X190047499Y-81708250D01*
X190047499Y-81708250D02*
X190047499Y-82458250D01*
X190047499Y-82458250D02*
X188547499Y-82458250D01*
X188547499Y-82458250D02*
X188547499Y-81708250D01*
G36*
X190047499Y-82458250D02*
G01*
X188547499Y-82458250D01*
X188547499Y-81708250D01*
X190047499Y-81708250D01*
X190047499Y-82458250D01*
G37*
X190047499Y-82458250D02*
X188547499Y-82458250D01*
X188547499Y-81708250D01*
X190047499Y-81708250D01*
X190047499Y-82458250D01*
%TO.C,SW31*%
X128852500Y-137307000D02*
X127352500Y-137307000D01*
X127352500Y-137307000D02*
X127352500Y-136557000D01*
X127352500Y-136557000D02*
X128852500Y-136557000D01*
X128852500Y-136557000D02*
X128852500Y-137307000D01*
G36*
X128852500Y-137307000D02*
G01*
X127352500Y-137307000D01*
X127352500Y-136557000D01*
X128852500Y-136557000D01*
X128852500Y-137307000D01*
G37*
X128852500Y-137307000D02*
X127352500Y-137307000D01*
X127352500Y-136557000D01*
X128852500Y-136557000D01*
X128852500Y-137307000D01*
X128852500Y-139057000D02*
X127352500Y-139057000D01*
X127352500Y-139057000D02*
X127352500Y-138307000D01*
X127352500Y-138307000D02*
X128852500Y-138307000D01*
X128852500Y-138307000D02*
X128852500Y-139057000D01*
G36*
X128852500Y-139057000D02*
G01*
X127352500Y-139057000D01*
X127352500Y-138307000D01*
X128852500Y-138307000D01*
X128852500Y-139057000D01*
G37*
X128852500Y-139057000D02*
X127352500Y-139057000D01*
X127352500Y-138307000D01*
X128852500Y-138307000D01*
X128852500Y-139057000D01*
X123852500Y-137307000D02*
X122352500Y-137307000D01*
X122352500Y-137307000D02*
X122352500Y-136557000D01*
X122352500Y-136557000D02*
X123852500Y-136557000D01*
X123852500Y-136557000D02*
X123852500Y-137307000D01*
G36*
X123852500Y-137307000D02*
G01*
X122352500Y-137307000D01*
X122352500Y-136557000D01*
X123852500Y-136557000D01*
X123852500Y-137307000D01*
G37*
X123852500Y-137307000D02*
X122352500Y-137307000D01*
X122352500Y-136557000D01*
X123852500Y-136557000D01*
X123852500Y-137307000D01*
X123852500Y-139057000D02*
X122752500Y-139057000D01*
X122752500Y-139057000D02*
X122352500Y-138657000D01*
X122352500Y-138657000D02*
X122352500Y-138307000D01*
X122352500Y-138307000D02*
X123852500Y-138307000D01*
X123852500Y-138307000D02*
X123852500Y-139057000D01*
G36*
X123852500Y-139057000D02*
G01*
X122752500Y-139057000D01*
X122352500Y-138657000D01*
X122352500Y-138307000D01*
X123852500Y-138307000D01*
X123852500Y-139057000D01*
G37*
X123852500Y-139057000D02*
X122752500Y-139057000D01*
X122352500Y-138657000D01*
X122352500Y-138307000D01*
X123852500Y-138307000D01*
X123852500Y-139057000D01*
%TO.C,SW19*%
X133377500Y-94444500D02*
X131877500Y-94444500D01*
X131877500Y-94444500D02*
X131877500Y-93694500D01*
X131877500Y-93694500D02*
X133377500Y-93694500D01*
X133377500Y-93694500D02*
X133377500Y-94444500D01*
G36*
X133377500Y-94444500D02*
G01*
X131877500Y-94444500D01*
X131877500Y-93694500D01*
X133377500Y-93694500D01*
X133377500Y-94444500D01*
G37*
X133377500Y-94444500D02*
X131877500Y-94444500D01*
X131877500Y-93694500D01*
X133377500Y-93694500D01*
X133377500Y-94444500D01*
X138377500Y-94444500D02*
X136877500Y-94444500D01*
X136877500Y-94444500D02*
X136877500Y-93694500D01*
X136877500Y-93694500D02*
X138377500Y-93694500D01*
X138377500Y-93694500D02*
X138377500Y-94444500D01*
G36*
X138377500Y-94444500D02*
G01*
X136877500Y-94444500D01*
X136877500Y-93694500D01*
X138377500Y-93694500D01*
X138377500Y-94444500D01*
G37*
X138377500Y-94444500D02*
X136877500Y-94444500D01*
X136877500Y-93694500D01*
X138377500Y-93694500D01*
X138377500Y-94444500D01*
X133377500Y-96194500D02*
X132277500Y-96194500D01*
X132277500Y-96194500D02*
X131877500Y-95794500D01*
X131877500Y-95794500D02*
X131877500Y-95444500D01*
X131877500Y-95444500D02*
X133377500Y-95444500D01*
X133377500Y-95444500D02*
X133377500Y-96194500D01*
G36*
X133377500Y-96194500D02*
G01*
X132277500Y-96194500D01*
X131877500Y-95794500D01*
X131877500Y-95444500D01*
X133377500Y-95444500D01*
X133377500Y-96194500D01*
G37*
X133377500Y-96194500D02*
X132277500Y-96194500D01*
X131877500Y-95794500D01*
X131877500Y-95444500D01*
X133377500Y-95444500D01*
X133377500Y-96194500D01*
X138377500Y-96194500D02*
X136877500Y-96194500D01*
X136877500Y-96194500D02*
X136877500Y-95444500D01*
X136877500Y-95444500D02*
X138377500Y-95444500D01*
X138377500Y-95444500D02*
X138377500Y-96194500D01*
G36*
X138377500Y-96194500D02*
G01*
X136877500Y-96194500D01*
X136877500Y-95444500D01*
X138377500Y-95444500D01*
X138377500Y-96194500D01*
G37*
X138377500Y-96194500D02*
X136877500Y-96194500D01*
X136877500Y-95444500D01*
X138377500Y-95444500D01*
X138377500Y-96194500D01*
%TO.C,SW30*%
X98297500Y-126952000D02*
X99397500Y-126952000D01*
X99397500Y-126952000D02*
X99797500Y-127352000D01*
X99797500Y-127352000D02*
X99797500Y-127702000D01*
X99797500Y-127702000D02*
X98297500Y-127702000D01*
X98297500Y-127702000D02*
X98297500Y-126952000D01*
G36*
X99797500Y-127352000D02*
G01*
X99797500Y-127702000D01*
X98297500Y-127702000D01*
X98297500Y-126952000D01*
X99397500Y-126952000D01*
X99797500Y-127352000D01*
G37*
X99797500Y-127352000D02*
X99797500Y-127702000D01*
X98297500Y-127702000D01*
X98297500Y-126952000D01*
X99397500Y-126952000D01*
X99797500Y-127352000D01*
X93297500Y-126952000D02*
X94797500Y-126952000D01*
X94797500Y-126952000D02*
X94797500Y-127702000D01*
X94797500Y-127702000D02*
X93297500Y-127702000D01*
X93297500Y-127702000D02*
X93297500Y-126952000D01*
G36*
X94797500Y-127702000D02*
G01*
X93297500Y-127702000D01*
X93297500Y-126952000D01*
X94797500Y-126952000D01*
X94797500Y-127702000D01*
G37*
X94797500Y-127702000D02*
X93297500Y-127702000D01*
X93297500Y-126952000D01*
X94797500Y-126952000D01*
X94797500Y-127702000D01*
X93297500Y-128702000D02*
X94797500Y-128702000D01*
X94797500Y-128702000D02*
X94797500Y-129452000D01*
X94797500Y-129452000D02*
X93297500Y-129452000D01*
X93297500Y-129452000D02*
X93297500Y-128702000D01*
G36*
X94797500Y-129452000D02*
G01*
X93297500Y-129452000D01*
X93297500Y-128702000D01*
X94797500Y-128702000D01*
X94797500Y-129452000D01*
G37*
X94797500Y-129452000D02*
X93297500Y-129452000D01*
X93297500Y-128702000D01*
X94797500Y-128702000D01*
X94797500Y-129452000D01*
X98297500Y-128702000D02*
X99797500Y-128702000D01*
X99797500Y-128702000D02*
X99797500Y-129452000D01*
X99797500Y-129452000D02*
X98297500Y-129452000D01*
X98297500Y-129452000D02*
X98297500Y-128702000D01*
G36*
X99797500Y-129452000D02*
G01*
X98297500Y-129452000D01*
X98297500Y-128702000D01*
X99797500Y-128702000D01*
X99797500Y-129452000D01*
G37*
X99797500Y-129452000D02*
X98297500Y-129452000D01*
X98297500Y-128702000D01*
X99797500Y-128702000D01*
X99797500Y-129452000D01*
%TO.C,SW1*%
X190527499Y-65238250D02*
X189427499Y-65238250D01*
X189427499Y-65238250D02*
X189027499Y-64838250D01*
X189027499Y-64838250D02*
X189027499Y-64488250D01*
X189027499Y-64488250D02*
X190527499Y-64488250D01*
X190527499Y-64488250D02*
X190527499Y-65238250D01*
G36*
X190527499Y-65238250D02*
G01*
X189427499Y-65238250D01*
X189027499Y-64838250D01*
X189027499Y-64488250D01*
X190527499Y-64488250D01*
X190527499Y-65238250D01*
G37*
X190527499Y-65238250D02*
X189427499Y-65238250D01*
X189027499Y-64838250D01*
X189027499Y-64488250D01*
X190527499Y-64488250D01*
X190527499Y-65238250D01*
X195527499Y-65238250D02*
X194027499Y-65238250D01*
X194027499Y-65238250D02*
X194027499Y-64488250D01*
X194027499Y-64488250D02*
X195527499Y-64488250D01*
X195527499Y-64488250D02*
X195527499Y-65238250D01*
G36*
X195527499Y-65238250D02*
G01*
X194027499Y-65238250D01*
X194027499Y-64488250D01*
X195527499Y-64488250D01*
X195527499Y-65238250D01*
G37*
X195527499Y-65238250D02*
X194027499Y-65238250D01*
X194027499Y-64488250D01*
X195527499Y-64488250D01*
X195527499Y-65238250D01*
X195527499Y-63488250D02*
X194027499Y-63488250D01*
X194027499Y-63488250D02*
X194027499Y-62738250D01*
X194027499Y-62738250D02*
X195527499Y-62738250D01*
X195527499Y-62738250D02*
X195527499Y-63488250D01*
G36*
X195527499Y-63488250D02*
G01*
X194027499Y-63488250D01*
X194027499Y-62738250D01*
X195527499Y-62738250D01*
X195527499Y-63488250D01*
G37*
X195527499Y-63488250D02*
X194027499Y-63488250D01*
X194027499Y-62738250D01*
X195527499Y-62738250D01*
X195527499Y-63488250D01*
X190527499Y-63488250D02*
X189027499Y-63488250D01*
X189027499Y-63488250D02*
X189027499Y-62738250D01*
X189027499Y-62738250D02*
X190527499Y-62738250D01*
X190527499Y-62738250D02*
X190527499Y-63488250D01*
G36*
X190527499Y-63488250D02*
G01*
X189027499Y-63488250D01*
X189027499Y-62738250D01*
X190527499Y-62738250D01*
X190527499Y-63488250D01*
G37*
X190527499Y-63488250D02*
X189027499Y-63488250D01*
X189027499Y-62738250D01*
X190527499Y-62738250D01*
X190527499Y-63488250D01*
%TO.C,SW16*%
X188873309Y-152039353D02*
X187574271Y-151289353D01*
X187574271Y-151289353D02*
X187949271Y-150639834D01*
X187949271Y-150639834D02*
X189248309Y-151389834D01*
X189248309Y-151389834D02*
X188873309Y-152039353D01*
G36*
X189248309Y-151389834D02*
G01*
X188873309Y-152039353D01*
X187574271Y-151289353D01*
X187949271Y-150639834D01*
X189248309Y-151389834D01*
G37*
X189248309Y-151389834D02*
X188873309Y-152039353D01*
X187574271Y-151289353D01*
X187949271Y-150639834D01*
X189248309Y-151389834D01*
X184543182Y-149539353D02*
X183590554Y-148989353D01*
X183590554Y-148989353D02*
X183444144Y-148442943D01*
X183444144Y-148442943D02*
X183619144Y-148139834D01*
X183619144Y-148139834D02*
X184918182Y-148889834D01*
X184918182Y-148889834D02*
X184543182Y-149539353D01*
G36*
X184918182Y-148889834D02*
G01*
X184543182Y-149539353D01*
X183590554Y-148989353D01*
X183444144Y-148442943D01*
X183619144Y-148139834D01*
X184918182Y-148889834D01*
G37*
X184918182Y-148889834D02*
X184543182Y-149539353D01*
X183590554Y-148989353D01*
X183444144Y-148442943D01*
X183619144Y-148139834D01*
X184918182Y-148889834D01*
X185418182Y-148023809D02*
X184119144Y-147273809D01*
X184119144Y-147273809D02*
X184494144Y-146624290D01*
X184494144Y-146624290D02*
X185793182Y-147374290D01*
X185793182Y-147374290D02*
X185418182Y-148023809D01*
G36*
X185793182Y-147374290D02*
G01*
X185418182Y-148023809D01*
X184119144Y-147273809D01*
X184494144Y-146624290D01*
X185793182Y-147374290D01*
G37*
X185793182Y-147374290D02*
X185418182Y-148023809D01*
X184119144Y-147273809D01*
X184494144Y-146624290D01*
X185793182Y-147374290D01*
X189748309Y-150523809D02*
X188449271Y-149773809D01*
X188449271Y-149773809D02*
X188824271Y-149124290D01*
X188824271Y-149124290D02*
X190123309Y-149874290D01*
X190123309Y-149874290D02*
X189748309Y-150523809D01*
G36*
X190123309Y-149874290D02*
G01*
X189748309Y-150523809D01*
X188449271Y-149773809D01*
X188824271Y-149124290D01*
X190123309Y-149874290D01*
G37*
X190123309Y-149874290D02*
X189748309Y-150523809D01*
X188449271Y-149773809D01*
X188824271Y-149124290D01*
X190123309Y-149874290D01*
%TO.C,SW33*%
X74247499Y-90601999D02*
X75747499Y-90601999D01*
X75747499Y-90601999D02*
X75747499Y-91351999D01*
X75747499Y-91351999D02*
X74247499Y-91351999D01*
X74247499Y-91351999D02*
X74247499Y-90601999D01*
G36*
X75747499Y-91351999D02*
G01*
X74247499Y-91351999D01*
X74247499Y-90601999D01*
X75747499Y-90601999D01*
X75747499Y-91351999D01*
G37*
X75747499Y-91351999D02*
X74247499Y-91351999D01*
X74247499Y-90601999D01*
X75747499Y-90601999D01*
X75747499Y-91351999D01*
X79247499Y-88851999D02*
X80347499Y-88851999D01*
X80347499Y-88851999D02*
X80747499Y-89251999D01*
X80747499Y-89251999D02*
X80747499Y-89601999D01*
X80747499Y-89601999D02*
X79247499Y-89601999D01*
X79247499Y-89601999D02*
X79247499Y-88851999D01*
G36*
X80747499Y-89251999D02*
G01*
X80747499Y-89601999D01*
X79247499Y-89601999D01*
X79247499Y-88851999D01*
X80347499Y-88851999D01*
X80747499Y-89251999D01*
G37*
X80747499Y-89251999D02*
X80747499Y-89601999D01*
X79247499Y-89601999D01*
X79247499Y-88851999D01*
X80347499Y-88851999D01*
X80747499Y-89251999D01*
X74247499Y-88851999D02*
X75747499Y-88851999D01*
X75747499Y-88851999D02*
X75747499Y-89601999D01*
X75747499Y-89601999D02*
X74247499Y-89601999D01*
X74247499Y-89601999D02*
X74247499Y-88851999D01*
G36*
X75747499Y-89601999D02*
G01*
X74247499Y-89601999D01*
X74247499Y-88851999D01*
X75747499Y-88851999D01*
X75747499Y-89601999D01*
G37*
X75747499Y-89601999D02*
X74247499Y-89601999D01*
X74247499Y-88851999D01*
X75747499Y-88851999D01*
X75747499Y-89601999D01*
X79247499Y-90601999D02*
X80747499Y-90601999D01*
X80747499Y-90601999D02*
X80747499Y-91351999D01*
X80747499Y-91351999D02*
X79247499Y-91351999D01*
X79247499Y-91351999D02*
X79247499Y-90601999D01*
G36*
X80747499Y-91351999D02*
G01*
X79247499Y-91351999D01*
X79247499Y-90601999D01*
X80747499Y-90601999D01*
X80747499Y-91351999D01*
G37*
X80747499Y-91351999D02*
X79247499Y-91351999D01*
X79247499Y-90601999D01*
X80747499Y-90601999D01*
X80747499Y-91351999D01*
%TO.C,SW7*%
X176477500Y-63488250D02*
X174977500Y-63488250D01*
X174977500Y-63488250D02*
X174977500Y-62738250D01*
X174977500Y-62738250D02*
X176477500Y-62738250D01*
X176477500Y-62738250D02*
X176477500Y-63488250D01*
G36*
X176477500Y-63488250D02*
G01*
X174977500Y-63488250D01*
X174977500Y-62738250D01*
X176477500Y-62738250D01*
X176477500Y-63488250D01*
G37*
X176477500Y-63488250D02*
X174977500Y-63488250D01*
X174977500Y-62738250D01*
X176477500Y-62738250D01*
X176477500Y-63488250D01*
X176477500Y-65238250D02*
X174977500Y-65238250D01*
X174977500Y-65238250D02*
X174977500Y-64488250D01*
X174977500Y-64488250D02*
X176477500Y-64488250D01*
X176477500Y-64488250D02*
X176477500Y-65238250D01*
G36*
X176477500Y-65238250D02*
G01*
X174977500Y-65238250D01*
X174977500Y-64488250D01*
X176477500Y-64488250D01*
X176477500Y-65238250D01*
G37*
X176477500Y-65238250D02*
X174977500Y-65238250D01*
X174977500Y-64488250D01*
X176477500Y-64488250D01*
X176477500Y-65238250D01*
X171477500Y-63488250D02*
X169977500Y-63488250D01*
X169977500Y-63488250D02*
X169977500Y-62738250D01*
X169977500Y-62738250D02*
X171477500Y-62738250D01*
X171477500Y-62738250D02*
X171477500Y-63488250D01*
G36*
X171477500Y-63488250D02*
G01*
X169977500Y-63488250D01*
X169977500Y-62738250D01*
X171477500Y-62738250D01*
X171477500Y-63488250D01*
G37*
X171477500Y-63488250D02*
X169977500Y-63488250D01*
X169977500Y-62738250D01*
X171477500Y-62738250D01*
X171477500Y-63488250D01*
X171477500Y-65238250D02*
X170377500Y-65238250D01*
X170377500Y-65238250D02*
X169977500Y-64838250D01*
X169977500Y-64838250D02*
X169977500Y-64488250D01*
X169977500Y-64488250D02*
X171477500Y-64488250D01*
X171477500Y-64488250D02*
X171477500Y-65238250D01*
G36*
X171477500Y-65238250D02*
G01*
X170377500Y-65238250D01*
X169977500Y-64838250D01*
X169977500Y-64488250D01*
X171477500Y-64488250D01*
X171477500Y-65238250D01*
G37*
X171477500Y-65238250D02*
X170377500Y-65238250D01*
X169977500Y-64838250D01*
X169977500Y-64488250D01*
X171477500Y-64488250D01*
X171477500Y-65238250D01*
%TO.C,SW27*%
X100277500Y-72382000D02*
X98777500Y-72382000D01*
X98777500Y-72382000D02*
X98777500Y-71632000D01*
X98777500Y-71632000D02*
X100277500Y-71632000D01*
X100277500Y-71632000D02*
X100277500Y-72382000D01*
G36*
X100277500Y-72382000D02*
G01*
X98777500Y-72382000D01*
X98777500Y-71632000D01*
X100277500Y-71632000D01*
X100277500Y-72382000D01*
G37*
X100277500Y-72382000D02*
X98777500Y-72382000D01*
X98777500Y-71632000D01*
X100277500Y-71632000D01*
X100277500Y-72382000D01*
X95277500Y-70632000D02*
X93777500Y-70632000D01*
X93777500Y-70632000D02*
X93777500Y-69882000D01*
X93777500Y-69882000D02*
X95277500Y-69882000D01*
X95277500Y-69882000D02*
X95277500Y-70632000D01*
G36*
X95277500Y-70632000D02*
G01*
X93777500Y-70632000D01*
X93777500Y-69882000D01*
X95277500Y-69882000D01*
X95277500Y-70632000D01*
G37*
X95277500Y-70632000D02*
X93777500Y-70632000D01*
X93777500Y-69882000D01*
X95277500Y-69882000D01*
X95277500Y-70632000D01*
X100277500Y-70632000D02*
X98777500Y-70632000D01*
X98777500Y-70632000D02*
X98777500Y-69882000D01*
X98777500Y-69882000D02*
X100277500Y-69882000D01*
X100277500Y-69882000D02*
X100277500Y-70632000D01*
G36*
X100277500Y-70632000D02*
G01*
X98777500Y-70632000D01*
X98777500Y-69882000D01*
X100277500Y-69882000D01*
X100277500Y-70632000D01*
G37*
X100277500Y-70632000D02*
X98777500Y-70632000D01*
X98777500Y-69882000D01*
X100277500Y-69882000D01*
X100277500Y-70632000D01*
X95277500Y-72382000D02*
X94177500Y-72382000D01*
X94177500Y-72382000D02*
X93777500Y-71982000D01*
X93777500Y-71982000D02*
X93777500Y-71632000D01*
X93777500Y-71632000D02*
X95277500Y-71632000D01*
X95277500Y-71632000D02*
X95277500Y-72382000D01*
G36*
X95277500Y-72382000D02*
G01*
X94177500Y-72382000D01*
X93777500Y-71982000D01*
X93777500Y-71632000D01*
X95277500Y-71632000D01*
X95277500Y-72382000D01*
G37*
X95277500Y-72382000D02*
X94177500Y-72382000D01*
X93777500Y-71982000D01*
X93777500Y-71632000D01*
X95277500Y-71632000D01*
X95277500Y-72382000D01*
%TD*%
D11*
%TO.C,FB8*%
X224475000Y-139874250D03*
X224475000Y-137372250D03*
%TD*%
D12*
%TO.C,D26*%
X126137500Y-114405500D03*
X126137500Y-110303500D03*
%TD*%
%TO.C,D34*%
X88037500Y-90593000D03*
X88037500Y-86491000D03*
%TD*%
D13*
%TO.C,SW32*%
X72487499Y-79492000D03*
D14*
X72267499Y-71592000D03*
X82707499Y-71592000D03*
D13*
X82487499Y-79492000D03*
D15*
X77487499Y-75792000D03*
D16*
X82987499Y-75792000D03*
D13*
X77487499Y-81692000D03*
D16*
X71987499Y-75792000D03*
D17*
X74687499Y-81692000D03*
X85387499Y-79492000D03*
%TD*%
D16*
%TO.C,SW10*%
X167237500Y-125798250D03*
X178237500Y-125798250D03*
D14*
X177957500Y-121598250D03*
D13*
X177737500Y-129498250D03*
D15*
X172737500Y-125798250D03*
D14*
X167517500Y-121598250D03*
D13*
X172737500Y-131698250D03*
X167737500Y-129498250D03*
D17*
X169937500Y-131698250D03*
X180637500Y-129498250D03*
%TD*%
D18*
%TO.C,HAT1*%
X105280000Y-143568250D03*
D16*
X100580000Y-145468250D03*
D18*
X100580000Y-149168250D03*
D16*
X108980000Y-153868250D03*
D18*
X105280000Y-153868250D03*
D16*
X100580000Y-151968250D03*
X102480000Y-143568250D03*
X110880000Y-151968250D03*
X102480000Y-153868250D03*
D18*
X110880000Y-149168250D03*
D16*
X110880000Y-145468250D03*
X108980000Y-143568250D03*
%TD*%
D19*
%TO.C,JP22*%
X220437756Y-121784084D03*
X221087756Y-120658250D03*
%TD*%
D12*
%TO.C,D20*%
X145187500Y-100118000D03*
X145187500Y-96016000D03*
%TD*%
D20*
%TO.C,C1*%
X66730000Y-69159000D03*
X66730000Y-71661000D03*
%TD*%
D21*
%TO.C,FB2*%
X75789000Y-145030000D03*
X78291000Y-145030000D03*
%TD*%
D12*
%TO.C,D14*%
X164237500Y-83449250D03*
X164237500Y-79347250D03*
%TD*%
D15*
%TO.C,SW18*%
X134637500Y-80554500D03*
D13*
X129637500Y-84254500D03*
D16*
X140137500Y-80554500D03*
D14*
X129417500Y-76354500D03*
D16*
X129137500Y-80554500D03*
D13*
X139637500Y-84254500D03*
D14*
X139857500Y-76354500D03*
D13*
X134637500Y-86454500D03*
D17*
X131837500Y-86454500D03*
X142537500Y-84254500D03*
%TD*%
D22*
%TO.C,D1*%
X97020000Y-143687250D03*
X97020000Y-147789250D03*
%TD*%
D23*
%TO.C,DRILL4*%
X137357056Y-38597056D03*
X133260000Y-36900000D03*
X137357056Y-35202944D03*
X133962944Y-38597056D03*
X135660000Y-34500000D03*
X138060000Y-36900000D03*
X135660000Y-39300000D03*
D24*
X135660000Y-36900000D03*
D23*
X133962944Y-35202944D03*
%TD*%
D25*
%TO.C,JP2*%
X215635000Y-64600000D03*
X215635000Y-63300000D03*
%TD*%
D12*
%TO.C,D23*%
X126137500Y-57255500D03*
X126137500Y-53153500D03*
%TD*%
D25*
%TO.C,JP10*%
X208095000Y-91678250D03*
X208095000Y-90378250D03*
%TD*%
D13*
%TO.C,SW9*%
X177737500Y-110448250D03*
D16*
X167237500Y-106748250D03*
X178237500Y-106748250D03*
D14*
X177957500Y-102548250D03*
D15*
X172737500Y-106748250D03*
D13*
X167737500Y-110448250D03*
X172737500Y-112648250D03*
D14*
X167517500Y-102548250D03*
D17*
X169937500Y-112648250D03*
X180637500Y-110448250D03*
%TD*%
D12*
%TO.C,D28*%
X107087500Y-62018000D03*
X107087500Y-57916000D03*
%TD*%
D23*
%TO.C,DRILL7*%
X220772944Y-146037056D03*
X224167056Y-142642944D03*
X224167056Y-146037056D03*
X224870000Y-144340000D03*
X220070000Y-144340000D03*
D24*
X222470000Y-144340000D03*
D23*
X222470000Y-146740000D03*
X220772944Y-142642944D03*
X222470000Y-141940000D03*
%TD*%
D22*
%TO.C,D4*%
X90620000Y-143687250D03*
X90620000Y-147789250D03*
%TD*%
D13*
%TO.C,SW26*%
X144290000Y-147828250D03*
D16*
X138790000Y-141928250D03*
D13*
X139290000Y-145628250D03*
D14*
X139070000Y-137728250D03*
X149510000Y-137728250D03*
D15*
X144290000Y-141928250D03*
D13*
X149290000Y-145628250D03*
D16*
X149790000Y-141928250D03*
D17*
X141490000Y-147828250D03*
X152190000Y-145628250D03*
%TD*%
D13*
%TO.C,SW12*%
X158687500Y-69967000D03*
X148687500Y-69967000D03*
D16*
X159187500Y-66267000D03*
X148187500Y-66267000D03*
D15*
X153687500Y-66267000D03*
D14*
X148467500Y-62067000D03*
D13*
X153687500Y-72167000D03*
D14*
X158907500Y-62067000D03*
D17*
X150887500Y-72167000D03*
X161587500Y-69967000D03*
%TD*%
D25*
%TO.C,JP4*%
X210560000Y-64600000D03*
X210560000Y-63300000D03*
%TD*%
D26*
%TO.C,FB7*%
X222611000Y-33130000D03*
X220109000Y-33130000D03*
%TD*%
D12*
%TO.C,D40*%
X68987499Y-109642999D03*
X68987499Y-105540999D03*
%TD*%
D15*
%TO.C,SW6*%
X200401353Y-165761895D03*
D13*
X201320592Y-171913724D03*
X196229423Y-169933825D03*
D16*
X196512266Y-161872808D03*
D14*
X199680104Y-159100949D03*
D16*
X204290440Y-169650982D03*
D14*
X207062299Y-166483144D03*
D13*
X194249524Y-164842656D03*
D27*
X194249524Y-167953926D03*
X203371201Y-173964334D03*
%TD*%
D28*
%TO.C,SW5*%
X212187886Y-120006216D03*
D29*
X211187886Y-121738267D03*
%TD*%
D11*
%TO.C,C5*%
X114275000Y-138599250D03*
X114275000Y-136097250D03*
%TD*%
D12*
%TO.C,D39*%
X68987499Y-90592999D03*
X68987499Y-86490999D03*
%TD*%
D13*
%TO.C,SW22*%
X120587500Y-69967000D03*
D14*
X120807500Y-62067000D03*
D15*
X115587500Y-66267000D03*
D16*
X121087500Y-66267000D03*
X110087500Y-66267000D03*
D13*
X110587500Y-69967000D03*
D14*
X110367500Y-62067000D03*
D13*
X115587500Y-72167000D03*
D17*
X112787500Y-72167000D03*
X123487500Y-69967000D03*
%TD*%
D14*
%TO.C,SW25*%
X110367500Y-119217000D03*
D13*
X110587500Y-127117000D03*
D14*
X120807500Y-119217000D03*
D13*
X120587500Y-127117000D03*
D16*
X110087500Y-123417000D03*
D15*
X115587500Y-123417000D03*
D16*
X121087500Y-123417000D03*
D13*
X115587500Y-129317000D03*
D17*
X112787500Y-129317000D03*
X123487500Y-127117000D03*
%TD*%
D13*
%TO.C,SW29*%
X101537500Y-117592000D03*
D14*
X91317500Y-109692000D03*
D16*
X91037500Y-113892000D03*
D13*
X91537500Y-117592000D03*
D14*
X101757500Y-109692000D03*
D16*
X102037500Y-113892000D03*
D13*
X96537500Y-119792000D03*
D15*
X96537500Y-113892000D03*
D17*
X93737500Y-119792000D03*
X104437500Y-117592000D03*
%TD*%
D16*
%TO.C,SW20*%
X140137500Y-118654500D03*
D14*
X129417500Y-114454500D03*
D13*
X139637500Y-122354500D03*
X134637500Y-124554500D03*
X129637500Y-122354500D03*
D16*
X129137500Y-118654500D03*
D15*
X134637500Y-118654500D03*
D14*
X139857500Y-114454500D03*
D17*
X131837500Y-124554500D03*
X142537500Y-122354500D03*
%TD*%
D30*
%TO.C,D27*%
X157719162Y-139029364D03*
X158780838Y-135067136D03*
%TD*%
D14*
%TO.C,SW24*%
X120807500Y-100167000D03*
X110367500Y-100167000D03*
D13*
X115587500Y-110267000D03*
X110587500Y-108067000D03*
D16*
X110087500Y-104367000D03*
D13*
X120587500Y-108067000D03*
D16*
X121087500Y-104367000D03*
D15*
X115587500Y-104367000D03*
D17*
X112787500Y-110267000D03*
X123487500Y-108067000D03*
%TD*%
D25*
%TO.C,JP1*%
X218160000Y-64600000D03*
X218160000Y-63300000D03*
%TD*%
D22*
%TO.C,D5*%
X88480000Y-143687250D03*
X88480000Y-147789250D03*
%TD*%
D12*
%TO.C,D36*%
X88037500Y-128693000D03*
X88037500Y-124591000D03*
%TD*%
D31*
%TO.C,Q1*%
X157460000Y-47860000D03*
X155560000Y-47860000D03*
X156510000Y-50560000D03*
%TD*%
D21*
%TO.C,FB6*%
X156809000Y-32730000D03*
X159311000Y-32730000D03*
%TD*%
D16*
%TO.C,SW13*%
X148187500Y-85317000D03*
D15*
X153687500Y-85317000D03*
D13*
X153687500Y-91217000D03*
X158687500Y-89017000D03*
D16*
X159187500Y-85317000D03*
D14*
X148467500Y-81117000D03*
D13*
X148687500Y-89017000D03*
D14*
X158907500Y-81117000D03*
D17*
X150887500Y-91217000D03*
X161587500Y-89017000D03*
%TD*%
D26*
%TO.C,FB5*%
X130941000Y-38920000D03*
X128439000Y-38920000D03*
%TD*%
D32*
%TO.C,U5*%
X166320000Y-38430000D03*
X166320000Y-39380000D03*
X166320000Y-40330000D03*
X169020000Y-40330000D03*
X169020000Y-38430000D03*
%TD*%
D13*
%TO.C,SW3*%
X196787499Y-110448250D03*
D16*
X186287499Y-106748250D03*
D14*
X186567499Y-102548250D03*
X197007499Y-102548250D03*
D16*
X197287499Y-106748250D03*
D15*
X191787499Y-106748250D03*
D13*
X186787499Y-110448250D03*
X191787499Y-112648250D03*
D17*
X188987499Y-112648250D03*
X199687499Y-110448250D03*
%TD*%
D14*
%TO.C,SW17*%
X129417500Y-57304500D03*
X139857500Y-57304500D03*
D13*
X134637500Y-67404500D03*
D16*
X140137500Y-61504500D03*
D13*
X139637500Y-65204500D03*
D15*
X134637500Y-61504500D03*
D16*
X129137500Y-61504500D03*
D13*
X129637500Y-65204500D03*
D17*
X131837500Y-67404500D03*
X142537500Y-65204500D03*
%TD*%
D33*
%TO.C,Q2*%
X168450000Y-36730000D03*
X168450000Y-34830000D03*
X165750000Y-35780000D03*
%TD*%
D12*
%TO.C,D33*%
X88037500Y-71543000D03*
X88037500Y-67441000D03*
%TD*%
D19*
%TO.C,JP19*%
X222642756Y-123061167D03*
X223292756Y-121935333D03*
%TD*%
D12*
%TO.C,D13*%
X164237500Y-64399250D03*
X164237500Y-60297250D03*
%TD*%
D16*
%TO.C,SW11*%
X188691234Y-133874717D03*
D14*
X200075027Y-135597410D03*
D13*
X187274247Y-137329011D03*
X190504374Y-141734267D03*
X195934501Y-142329011D03*
D16*
X198217514Y-139374717D03*
D14*
X191033721Y-130377410D03*
D15*
X193454374Y-136624717D03*
D34*
X188079503Y-140334267D03*
X198445975Y-143779011D03*
%TD*%
D16*
%TO.C,SW21*%
X170059940Y-146600552D03*
D14*
X170876521Y-142471194D03*
D16*
X159434756Y-143753542D03*
D13*
X158960088Y-147456877D03*
X163220316Y-150876009D03*
X168619347Y-150045068D03*
D15*
X164747348Y-145177047D03*
D14*
X160792255Y-139769123D03*
D35*
X160515723Y-150151316D03*
X171420532Y-150795643D03*
%TD*%
D36*
%TO.C,D9*%
X209975500Y-118847032D03*
X207924500Y-122399468D03*
%TD*%
D20*
%TO.C,C4*%
X67790000Y-131139000D03*
X67790000Y-133641000D03*
%TD*%
D37*
%TO.C,FB9*%
X204554591Y-158354591D03*
X202785409Y-156585409D03*
%TD*%
D11*
%TO.C,FB1*%
X139930000Y-46531000D03*
X139930000Y-44029000D03*
%TD*%
D14*
%TO.C,SW14*%
X158907500Y-100167000D03*
D15*
X153687500Y-104367000D03*
D13*
X148687500Y-108067000D03*
D14*
X148467500Y-100167000D03*
D13*
X153687500Y-110267000D03*
X158687500Y-108067000D03*
D16*
X159187500Y-104367000D03*
X148187500Y-104367000D03*
D17*
X150887500Y-110267000D03*
X161587500Y-108067000D03*
%TD*%
D14*
%TO.C,SW35*%
X72267499Y-128742000D03*
D13*
X82487499Y-136642000D03*
X77487499Y-138842000D03*
D15*
X77487499Y-132942000D03*
D16*
X82987499Y-132942000D03*
X71987499Y-132942000D03*
D13*
X72487499Y-136642000D03*
D14*
X82707499Y-128742000D03*
D17*
X74687499Y-138842000D03*
X85387499Y-136642000D03*
%TD*%
D16*
%TO.C,SW8*%
X167237500Y-87698250D03*
D14*
X177957500Y-83498250D03*
D13*
X177737500Y-91398250D03*
D14*
X167517500Y-83498250D03*
D13*
X172737500Y-93598250D03*
D15*
X172737500Y-87698250D03*
D16*
X178237500Y-87698250D03*
D13*
X167737500Y-91398250D03*
D17*
X169937500Y-93598250D03*
X180637500Y-91398250D03*
%TD*%
D38*
%TO.C,D22*%
X178704500Y-145424468D03*
X180755500Y-141872032D03*
%TD*%
D21*
%TO.C,FB4*%
X73629000Y-60560000D03*
X76131000Y-60560000D03*
%TD*%
D16*
%TO.C,SW28*%
X102037500Y-94842000D03*
D13*
X101537500Y-98542000D03*
X91537500Y-98542000D03*
D14*
X91317500Y-90642000D03*
D16*
X91037500Y-94842000D03*
D14*
X101757500Y-90642000D03*
D13*
X96537500Y-100742000D03*
D15*
X96537500Y-94842000D03*
D17*
X93737500Y-100742000D03*
X104437500Y-98542000D03*
%TD*%
D12*
%TO.C,D29*%
X107087500Y-81068000D03*
X107087500Y-76966000D03*
%TD*%
D11*
%TO.C,R7*%
X149430000Y-46771000D03*
X149430000Y-44269000D03*
%TD*%
D23*
%TO.C,DRILL5*%
X157027056Y-35202944D03*
X155330000Y-39300000D03*
X155330000Y-34500000D03*
X153632944Y-35202944D03*
D24*
X155330000Y-36900000D03*
D23*
X157027056Y-38597056D03*
X152930000Y-36900000D03*
X153632944Y-38597056D03*
X157730000Y-36900000D03*
%TD*%
D25*
%TO.C,JP3*%
X213085000Y-64600000D03*
X213085000Y-63300000D03*
%TD*%
D14*
%TO.C,SW4*%
X213150488Y-145630566D03*
D13*
X214790976Y-158443341D03*
D15*
X213871737Y-152291512D03*
D16*
X209982650Y-148402425D03*
D14*
X220532683Y-153012761D03*
D16*
X217760824Y-156180599D03*
D13*
X207719908Y-151372273D03*
X209699807Y-156463442D03*
D27*
X207719908Y-154483543D03*
X216841585Y-160493951D03*
%TD*%
D14*
%TO.C,SW23*%
X110367500Y-81117000D03*
D13*
X115587500Y-91217000D03*
D14*
X120807500Y-81117000D03*
D13*
X120587500Y-89017000D03*
X110587500Y-89017000D03*
D16*
X121087500Y-85317000D03*
X110087500Y-85317000D03*
D15*
X115587500Y-85317000D03*
D17*
X112787500Y-91217000D03*
X123487500Y-89017000D03*
%TD*%
D15*
%TO.C,SW34*%
X77487499Y-113891999D03*
D14*
X72267499Y-109691999D03*
D16*
X71987499Y-113891999D03*
D13*
X72487499Y-117591999D03*
X82487499Y-117591999D03*
D14*
X82707499Y-109691999D03*
D16*
X82987499Y-113891999D03*
D13*
X77487499Y-119791999D03*
D17*
X74687499Y-119791999D03*
X85387499Y-117591999D03*
%TD*%
D20*
%TO.C,R6*%
X147270000Y-44269000D03*
X147270000Y-46771000D03*
%TD*%
D21*
%TO.C,R9*%
X161279000Y-42230000D03*
X163781000Y-42230000D03*
%TD*%
D38*
%TO.C,D17*%
X188249500Y-128924468D03*
X190300500Y-125372032D03*
%TD*%
D23*
%TO.C,DRILL3*%
X70950000Y-61030000D03*
X66150000Y-61030000D03*
X66852944Y-59332944D03*
D24*
X68550000Y-61030000D03*
D23*
X68550000Y-63430000D03*
X68550000Y-58630000D03*
X70247056Y-62727056D03*
X70247056Y-59332944D03*
X66852944Y-62727056D03*
%TD*%
D39*
%TO.C,BZ1*%
X210400000Y-72130000D03*
X210400000Y-85330000D03*
%TD*%
D40*
%TO.C,H1*%
X213285000Y-97770000D03*
D41*
X213285000Y-107270000D03*
D40*
X213285000Y-116770000D03*
%TD*%
D12*
%TO.C,D30*%
X107087500Y-100118000D03*
X107087500Y-96016000D03*
%TD*%
D19*
%TO.C,JP24*%
X216032756Y-119221167D03*
X216682756Y-118095333D03*
%TD*%
D12*
%TO.C,D38*%
X68987499Y-71543000D03*
X68987499Y-67441000D03*
%TD*%
%TO.C,D31*%
X107087500Y-119168000D03*
X107087500Y-115066000D03*
%TD*%
%TO.C,D15*%
X164237500Y-102499250D03*
X164237500Y-98397250D03*
%TD*%
%TO.C,D8*%
X183287499Y-102499250D03*
X183287499Y-98397250D03*
%TD*%
D14*
%TO.C,SW15*%
X158907500Y-119217000D03*
D16*
X148187500Y-123417000D03*
D13*
X148687500Y-127117000D03*
X153687500Y-129317000D03*
X158687500Y-127117000D03*
D16*
X159187500Y-123417000D03*
D14*
X148467500Y-119217000D03*
D15*
X153687500Y-123417000D03*
D17*
X150887500Y-129317000D03*
X161587500Y-127117000D03*
%TD*%
D42*
%TO.C,JP12*%
X222990000Y-70295000D03*
D43*
X224290000Y-70295000D03*
D44*
X225590000Y-70295000D03*
%TD*%
D45*
%TO.C,DRILL6*%
X226010000Y-33950000D03*
%TD*%
D12*
%TO.C,D7*%
X183287499Y-83449250D03*
X183287499Y-79347250D03*
%TD*%
D15*
%TO.C,SW2*%
X191787499Y-87698250D03*
D14*
X186567499Y-83498250D03*
D16*
X197287499Y-87698250D03*
D13*
X186787499Y-91398250D03*
D16*
X186287499Y-87698250D03*
D13*
X196787499Y-91398250D03*
X191787499Y-93598250D03*
D14*
X197007499Y-83498250D03*
D17*
X188987499Y-93598250D03*
X199687499Y-91398250D03*
%TD*%
D33*
%TO.C,U4*%
X165780000Y-49350000D03*
X165780000Y-48400000D03*
X165780000Y-47450000D03*
X163080000Y-47450000D03*
X163080000Y-48400000D03*
X163080000Y-49350000D03*
%TD*%
D14*
%TO.C,SW31*%
X119892500Y-138267000D03*
D16*
X119612500Y-142467000D03*
D13*
X125112500Y-148367000D03*
D14*
X130332500Y-138267000D03*
D13*
X120112500Y-146167000D03*
X130112500Y-146167000D03*
D15*
X125112500Y-142467000D03*
D16*
X130612500Y-142467000D03*
D17*
X122312500Y-148367000D03*
X133012500Y-146167000D03*
%TD*%
D46*
%TO.C,D11*%
X189696157Y-167066607D03*
X186553843Y-164429893D03*
%TD*%
D14*
%TO.C,SW19*%
X129417500Y-95404500D03*
D15*
X134637500Y-99604500D03*
D16*
X140137500Y-99604500D03*
D13*
X129637500Y-103304500D03*
X139637500Y-103304500D03*
D14*
X139857500Y-95404500D03*
D13*
X134637500Y-105504500D03*
D16*
X129137500Y-99604500D03*
D17*
X131837500Y-105504500D03*
X142537500Y-103304500D03*
%TD*%
D21*
%TO.C,R10*%
X161229000Y-44790000D03*
X163731000Y-44790000D03*
%TD*%
D47*
%TO.C,USB1*%
X142490000Y-38210000D03*
X148270000Y-38210000D03*
D48*
X148605000Y-40155000D03*
X147830000Y-40155000D03*
D49*
X146630000Y-40155000D03*
X145630000Y-40155000D03*
X145130000Y-40155000D03*
D48*
X142155000Y-40155000D03*
X142930000Y-40155000D03*
D49*
X143630000Y-40155000D03*
X144630000Y-40155000D03*
X146130000Y-40155000D03*
D50*
X149700000Y-34560000D03*
D51*
X140530000Y-34560000D03*
D52*
X141060000Y-38740000D03*
D53*
X140530000Y-38740000D03*
D52*
X149700000Y-38740000D03*
D51*
X150230000Y-34560000D03*
D53*
X150230000Y-38740000D03*
D50*
X141060000Y-34560000D03*
D49*
X144130000Y-40155000D03*
X147130000Y-40155000D03*
%TD*%
D16*
%TO.C,SW30*%
X91037500Y-132942000D03*
D13*
X91537500Y-136642000D03*
X96537500Y-138842000D03*
X101537500Y-136642000D03*
D14*
X101757500Y-128742000D03*
X91317500Y-128742000D03*
D15*
X96537500Y-132942000D03*
D16*
X102037500Y-132942000D03*
D17*
X93737500Y-138842000D03*
X104437500Y-136642000D03*
%TD*%
D54*
%TO.C,D10*%
X200649724Y-150473526D03*
X203550276Y-147572974D03*
%TD*%
D12*
%TO.C,D35*%
X88037500Y-109643000D03*
X88037500Y-105541000D03*
%TD*%
D55*
%TO.C,U1*%
X208095000Y-94054250D03*
D56*
X210635000Y-94054250D03*
X213175000Y-94054250D03*
X215715000Y-94054250D03*
X218255000Y-94054250D03*
D57*
X222975000Y-101828250D03*
X222975000Y-112828250D03*
X203375000Y-112828250D03*
X203375000Y-101828250D03*
%TD*%
D23*
%TO.C,DRILL1*%
X68730000Y-144600000D03*
D24*
X71130000Y-144600000D03*
D23*
X69432944Y-142902944D03*
X71130000Y-147000000D03*
X71130000Y-142200000D03*
X73530000Y-144600000D03*
X72827056Y-146297056D03*
X72827056Y-142902944D03*
X69432944Y-146297056D03*
%TD*%
D58*
%TO.C,J1*%
X210575000Y-66635000D03*
X213115000Y-66635000D03*
X215655000Y-66635000D03*
X218195000Y-66635000D03*
%TD*%
D22*
%TO.C,D2*%
X94880000Y-143687250D03*
X94880000Y-147789250D03*
%TD*%
D19*
%TO.C,JP17*%
X218237756Y-120504084D03*
X218887756Y-119378250D03*
%TD*%
D12*
%TO.C,D32*%
X135790000Y-137679250D03*
X135790000Y-133577250D03*
%TD*%
D14*
%TO.C,SW1*%
X186567499Y-64448250D03*
D16*
X197287499Y-68648250D03*
D13*
X191787499Y-74548250D03*
X186787499Y-72348250D03*
D15*
X191787499Y-68648250D03*
D16*
X186287499Y-68648250D03*
D14*
X197007499Y-64448250D03*
D13*
X196787499Y-72348250D03*
D17*
X188987499Y-74548250D03*
X199687499Y-72348250D03*
%TD*%
D13*
%TO.C,SW16*%
X186409501Y-158826794D03*
X180979374Y-158232050D03*
D14*
X181508721Y-146875193D03*
D13*
X177749247Y-153826794D03*
D15*
X183929374Y-153122500D03*
D16*
X188692514Y-155872500D03*
D14*
X190550027Y-152095193D03*
D16*
X179166234Y-150372500D03*
D34*
X178554503Y-156832050D03*
X188920975Y-160276794D03*
%TD*%
D20*
%TO.C,C2*%
X66830000Y-88249000D03*
X66830000Y-90751000D03*
%TD*%
D12*
%TO.C,D24*%
X126137500Y-76305500D03*
X126137500Y-72203500D03*
%TD*%
%TO.C,D37*%
X116612500Y-138218000D03*
X116612500Y-134116000D03*
%TD*%
D16*
%TO.C,SW33*%
X71987499Y-94841999D03*
D14*
X82707499Y-90641999D03*
D13*
X82487499Y-98541999D03*
D15*
X77487499Y-94841999D03*
D16*
X82987499Y-94841999D03*
D13*
X77487499Y-100741999D03*
D14*
X72267499Y-90641999D03*
D13*
X72487499Y-98541999D03*
D17*
X74687499Y-100741999D03*
X85387499Y-98541999D03*
%TD*%
D59*
%TO.C,R3*%
X221800000Y-35170000D03*
X219800000Y-35170000D03*
%TD*%
D14*
%TO.C,SW7*%
X167517500Y-64448250D03*
D13*
X167737500Y-72348250D03*
X172737500Y-74548250D03*
D16*
X178237500Y-68648250D03*
D15*
X172737500Y-68648250D03*
D13*
X177737500Y-72348250D03*
D16*
X167237500Y-68648250D03*
D14*
X177957500Y-64448250D03*
D17*
X169937500Y-74548250D03*
X180637500Y-72348250D03*
%TD*%
D13*
%TO.C,SW27*%
X101537500Y-79492000D03*
D16*
X91037500Y-75792000D03*
D14*
X91317500Y-71592000D03*
D13*
X91537500Y-79492000D03*
D14*
X101757500Y-71592000D03*
D16*
X102037500Y-75792000D03*
D15*
X96537500Y-75792000D03*
D13*
X96537500Y-81692000D03*
D17*
X93737500Y-81692000D03*
X104437500Y-79492000D03*
%TD*%
D12*
%TO.C,D12*%
X152340000Y-53921000D03*
X152340000Y-49819000D03*
%TD*%
D60*
%TO.C,J2*%
X227430000Y-74860000D03*
X220430000Y-74860000D03*
X220430000Y-76610000D03*
X227430000Y-76610000D03*
D61*
X217130000Y-76960000D03*
X217130000Y-74510000D03*
X225630000Y-78710000D03*
X225630000Y-72760000D03*
X222630000Y-78710000D03*
X222630000Y-72760000D03*
X218630000Y-78710000D03*
X218630000Y-72760000D03*
%TD*%
D12*
%TO.C,D41*%
X68987499Y-128693000D03*
X68987499Y-124591000D03*
%TD*%
%TO.C,D18*%
X145187500Y-62018000D03*
X145187500Y-57916000D03*
%TD*%
%TO.C,D19*%
X145187500Y-81068000D03*
X145187500Y-76966000D03*
%TD*%
D22*
%TO.C,D3*%
X92760000Y-143687250D03*
X92760000Y-147789250D03*
%TD*%
D62*
%TO.C,J3*%
X201885000Y-33185000D03*
D63*
X204425000Y-33185000D03*
X206965000Y-33185000D03*
X209505000Y-33185000D03*
X212045000Y-33185000D03*
X214585000Y-33185000D03*
X217125000Y-33185000D03*
%TD*%
D12*
%TO.C,D21*%
X145187500Y-119168000D03*
X145187500Y-115066000D03*
%TD*%
%TO.C,D6*%
X183287499Y-64399250D03*
X183287499Y-60297250D03*
%TD*%
D28*
%TO.C,U3*%
X227175000Y-38161000D03*
X227175000Y-55179000D03*
X224635000Y-38161000D03*
X224635000Y-55179000D03*
X222095000Y-55179000D03*
X222095000Y-38161000D03*
X219555000Y-55179000D03*
X219555000Y-38161000D03*
X217015000Y-55179000D03*
X217015000Y-38161000D03*
X214475000Y-38161000D03*
X214475000Y-55179000D03*
X211935000Y-38161000D03*
X211935000Y-55179000D03*
X209395000Y-55179000D03*
X209395000Y-38161000D03*
X206855000Y-55179000D03*
X206855000Y-38161000D03*
X204315000Y-38161000D03*
X204315000Y-55179000D03*
X201775000Y-55179000D03*
X201775000Y-38161000D03*
X199235000Y-38161000D03*
X199235000Y-55179000D03*
X196695000Y-38161000D03*
X196695000Y-55179000D03*
X194155000Y-55179000D03*
X194155000Y-38161000D03*
X191615000Y-55179000D03*
X191615000Y-38161000D03*
X189075000Y-55179000D03*
X189075000Y-38161000D03*
X186535000Y-38161000D03*
X186535000Y-55179000D03*
X183995000Y-55179000D03*
X183995000Y-38161000D03*
X181455000Y-55179000D03*
X181455000Y-38161000D03*
X178915000Y-38161000D03*
X178915000Y-55179000D03*
X178915000Y-53401000D03*
X178915000Y-39939000D03*
X181455000Y-53401000D03*
X181455000Y-39939000D03*
X183995000Y-39939000D03*
X183995000Y-53401000D03*
X186535000Y-39939000D03*
X186535000Y-53401000D03*
X189075000Y-39939000D03*
X189075000Y-53401000D03*
X191615000Y-39939000D03*
X191615000Y-53401000D03*
X194155000Y-53401000D03*
X194155000Y-39939000D03*
X196695000Y-39939000D03*
X196695000Y-53401000D03*
X199235000Y-39939000D03*
X199235000Y-53401000D03*
X201775000Y-53401000D03*
X201775000Y-39939000D03*
X204315000Y-39939000D03*
X204315000Y-53401000D03*
X206855000Y-53401000D03*
X206855000Y-39939000D03*
X209395000Y-53401000D03*
X209395000Y-39939000D03*
X211935000Y-39939000D03*
X211935000Y-53401000D03*
X214475000Y-53401000D03*
X214475000Y-39939000D03*
X217015000Y-39939000D03*
X217015000Y-53401000D03*
X219555000Y-53401000D03*
X219555000Y-39939000D03*
X222095000Y-53401000D03*
X222095000Y-39939000D03*
X224635000Y-39939000D03*
X224635000Y-53401000D03*
X227175000Y-53401000D03*
X227175000Y-39939000D03*
%TD*%
D20*
%TO.C,C3*%
X66840000Y-107279000D03*
X66840000Y-109781000D03*
%TD*%
D12*
%TO.C,D16*%
X164237500Y-121549250D03*
X164237500Y-117447250D03*
%TD*%
D25*
%TO.C,JP16*%
X215715000Y-91678250D03*
X215715000Y-90378250D03*
%TD*%
D12*
%TO.C,D25*%
X126137500Y-95355500D03*
X126137500Y-91253500D03*
%TD*%
D64*
%TO.C,F1*%
X150110000Y-52270000D03*
X150110000Y-49470000D03*
%TD*%
D25*
%TO.C,JP14*%
X218255000Y-91668250D03*
X218255000Y-90368250D03*
%TD*%
D45*
%TO.C,DRILL8*%
X183960000Y-166610000D03*
%TD*%
%TO.C,DRILL8*%
X197140000Y-153750000D03*
%TD*%
M02*
