M48
; DRILL file {KiCad (5.99.0-11414-g76a6177eb7)} date Mon Dec 13 11:53:25 2021
; FORMAT={-:-/ absolute / metric / decimal}
; #@! TF.CreationDate,2021-12-13T11:53:25+08:00
; #@! TF.GenerationSoftware,Kicad,Pcbnew,(5.99.0-11414-g76a6177eb7)
; #@! TF.FileFunction,MixedPlating,1,2
FMAT,2
METRIC
; #@! TA.AperFunction,Plated,PTH,ViaDrill
T1C0.300
; #@! TA.AperFunction,Plated,PTH,ComponentDrill
T2C0.300
; #@! TA.AperFunction,Plated,PTH,ComponentDrill
T3C0.305
; #@! TA.AperFunction,Plated,PTH,ComponentDrill
T4C0.500
; #@! TA.AperFunction,Plated,PTH,ViaDrill
T5C0.600
; #@! TA.AperFunction,Plated,PTH,ComponentDrill
T6C0.600
; #@! TA.AperFunction,Plated,PTH,ComponentDrill
T7C0.762
; #@! TA.AperFunction,Plated,PTH,ComponentDrill
T8C1.000
; #@! TA.AperFunction,Plated,PTH,ComponentDrill
T9C1.200
; #@! TA.AperFunction,Plated,PTH,ComponentDrill
T10C2.200
; #@! TA.AperFunction,Plated,PTH,ComponentDrill
T11C3.000
; #@! TA.AperFunction,Plated,PTH,ComponentDrill
T12C3.200
; #@! TA.AperFunction,NonPlated,NPTH,ComponentDrill
T13C0.650
; #@! TA.AperFunction,NonPlated,NPTH,ComponentDrill
T14C1.000
; #@! TA.AperFunction,NonPlated,NPTH,ComponentDrill
T15C1.200
; #@! TA.AperFunction,NonPlated,NPTH,ComponentDrill
T16C1.800
; #@! TA.AperFunction,NonPlated,NPTH,ComponentDrill
T17C2.200
; #@! TA.AperFunction,NonPlated,NPTH,ComponentDrill
T18C3.000
; #@! TA.AperFunction,NonPlated,NPTH,ComponentDrill
T19C3.400
; #@! TA.AperFunction,NonPlated,NPTH,ComponentDrill
T20C7.800
%
G90
G05
T1
X73.602Y-134.578
X73.632Y-115.528
X73.64Y-77.52
X73.662Y-96.488
X75.0Y-104.57
X78.983Y-136.818
X79.013Y-117.768
X79.042Y-98.728
X79.39Y-79.7
X83.85Y-66.18
X85.387Y-64.573
X86.85Y-66.15
X88.72Y-139.51
X92.652Y-96.478
X92.722Y-115.548
X92.752Y-134.608
X92.77Y-77.43
X93.0Y-75.6
X93.59Y-141.25
X96.16Y-151.5
X98.0Y-79.67
X98.032Y-98.718
X98.102Y-117.788
X98.132Y-136.848
X99.03Y-126.08
X99.06Y-123.47
X99.46Y-104.77
X99.5Y-106.98
X103.61Y-147.33
X104.438Y-59.517
X105.05Y-139.52
X105.089Y-124.591
X105.23Y-140.54
X105.279Y-105.541
X105.9Y-84.72
X107.8Y-130.86
X111.722Y-86.998
X111.722Y-106.038
X111.762Y-125.058
X111.79Y-67.94
X114.47Y-132.57
X114.67Y-142.02
X114.82Y-141.07
X117.102Y-89.238
X117.102Y-108.278
X117.142Y-127.298
X117.31Y-140.96
X117.4Y-142.0
X117.45Y-70.22
X120.12Y-135.33
X121.312Y-144.158
X121.45Y-133.07
X123.03Y-54.57
X126.692Y-146.398
X130.743Y-120.248
X130.91Y-63.14
X130.933Y-101.298
X130.972Y-82.228
X132.71Y-132.11
X134.35Y-143.65
X136.123Y-122.488
X136.312Y-103.538
X136.352Y-84.468
X136.52Y-65.41
X140.532Y-143.568
X141.98Y-42.42
X142.93Y-42.03
X143.91Y-37.49
X144.7Y-43.43
X145.29Y-44.34
X145.31Y-42.64
X145.912Y-145.808
X146.33Y-67.03
X146.35Y-38.15
X147.08Y-55.26
X147.26Y-42.66
X147.29Y-36.47
X149.49Y-57.22
X149.52Y-41.31
X149.822Y-105.978
X149.892Y-86.968
X149.903Y-125.068
X150.09Y-67.87
X154.17Y-143.37
X155.202Y-108.218
X155.272Y-89.208
X155.282Y-127.308
X155.35Y-70.14
X160.96Y-145.97
X161.6Y-57.15
X165.1Y-149.04
X165.31Y-44.73
X168.882Y-89.328
X168.892Y-127.408
X168.903Y-108.448
X168.91Y-70.28
X169.94Y-55.23
X170.43Y-39.37
X170.8Y-55.07
X172.52Y-52.77
X174.262Y-91.568
X174.272Y-129.648
X174.282Y-110.688
X174.29Y-72.52
X174.5Y-148.68
X174.99Y-46.22
X175.16Y-46.98
X175.34Y-47.72
X175.53Y-48.67
X175.54Y-53.39
X176.04Y-51.42
X177.41Y-45.22
X178.918Y-140.422
X179.55Y-57.44
X179.8Y-152.65
X180.3Y-58.13
X180.57Y-132.93
X180.637Y-59.642
X181.455Y-48.665
X183.12Y-157.29
X187.62Y-79.29
X187.942Y-89.288
X188.052Y-108.338
X188.07Y-70.37
X189.34Y-136.04
X189.79Y-57.29
X191.615Y-49.345
X192.19Y-157.46
X192.53Y-140.56
X193.09Y-154.49
X193.322Y-91.528
X193.433Y-110.578
X193.46Y-72.4
X194.04Y-150.94
X194.155Y-50.755
X194.77Y-69.34
X195.33Y-57.49
X195.42Y-50.07
X196.48Y-164.43
X196.61Y-60.9
X196.695Y-46.135
X197.17Y-146.4
X197.79Y-63.28
X197.94Y-51.45
X197.97Y-79.37
X197.99Y-59.19
X198.03Y-168.84
X198.05Y-60.92
X199.21Y-120.45
X199.235Y-47.005
X199.32Y-67.37
X199.72Y-61.29
X200.11Y-66.89
X200.26Y-59.53
X200.3Y-115.64
X200.47Y-52.09
X200.6Y-56.67
X201.13Y-115.78
X201.2Y-118.29
X201.65Y-119.65
X202.94Y-143.07
X203.0Y-47.75
X203.43Y-135.76
X203.69Y-138.21
X203.87Y-70.25
X203.89Y-69.34
X205.49Y-71.04
X205.78Y-112.99
X205.92Y-60.32
X207.33Y-61.82
X207.5Y-71.91
X209.2Y-61.09
X210.01Y-150.82
X210.36Y-72.01
X210.48Y-85.48
X210.71Y-88.33
X210.72Y-37.49
X211.07Y-36.18
X211.4Y-61.07
X212.05Y-156.32
X212.74Y-34.57
X213.14Y-35.84
X213.15Y-37.51
X213.22Y-43.53
X213.97Y-69.14
X214.475Y-51.625
X215.47Y-60.87
X215.715Y-90.378
X215.79Y-60.08
X215.979Y-119.319
X216.76Y-143.77
X218.238Y-120.504
X218.74Y-34.29
X220.438Y-121.784
X220.73Y-71.09
X221.53Y-66.32
X222.643Y-123.061
X222.99Y-70.305
X223.33Y-151.5
X225.56Y-70.335
X225.66Y-120.06
X226.25Y-121.09
T2
X66.349Y-70.48
X66.449Y-89.57
X66.459Y-108.6
X67.111Y-70.321
X67.211Y-89.411
X67.221Y-108.441
X67.409Y-132.46
X68.171Y-132.301
X68.606Y-70.381
X68.606Y-89.431
X68.606Y-108.481
X68.606Y-127.531
X69.368Y-68.622
X69.368Y-87.672
X69.368Y-106.722
X69.368Y-125.772
X74.791Y-60.179
X74.95Y-60.941
X76.951Y-144.649
X77.11Y-145.411
X87.656Y-70.381
X87.656Y-89.431
X87.656Y-108.481
X87.656Y-127.531
X88.099Y-146.608
X88.418Y-68.622
X88.418Y-87.672
X88.418Y-106.722
X88.418Y-125.772
X88.861Y-144.849
X90.239Y-146.608
X91.001Y-144.849
X92.379Y-146.608
X93.141Y-144.849
X94.499Y-146.608
X95.261Y-144.849
X96.639Y-146.608
X97.401Y-144.849
X106.706Y-60.856
X106.706Y-79.906
X106.706Y-98.956
X106.706Y-118.006
X107.468Y-59.097
X107.468Y-78.147
X107.468Y-97.197
X107.468Y-116.247
X113.894Y-137.437
X114.656Y-137.278
X116.231Y-137.056
X116.993Y-135.297
X125.756Y-56.093
X125.756Y-75.144
X125.756Y-94.194
X125.756Y-113.243
X126.518Y-54.334
X126.518Y-73.385
X126.518Y-92.434
X126.518Y-111.484
X129.62Y-38.539
X129.779Y-39.301
X135.409Y-136.517
X136.171Y-134.758
X139.549Y-45.369
X140.311Y-45.21
X144.806Y-60.856
X144.806Y-79.906
X144.806Y-98.956
X144.806Y-118.006
X145.569Y-59.097
X145.569Y-78.147
X145.569Y-97.197
X145.569Y-116.247
X146.889Y-45.59
X147.651Y-45.431
X149.049Y-45.609
X149.5Y-51.429
X149.811Y-45.45
X150.72Y-50.32
X151.959Y-52.759
X152.721Y-51.0
X155.56Y-46.41
X156.51Y-52.01
X157.46Y-46.41
X157.652Y-137.808
X157.971Y-32.349
X158.13Y-33.111
X158.843Y-136.307
X161.63Y-47.45
X161.63Y-48.4
X161.63Y-49.35
X162.391Y-44.409
X162.441Y-41.849
X162.55Y-45.171
X162.6Y-42.611
X163.856Y-63.237
X163.856Y-82.287
X163.856Y-101.337
X163.856Y-120.387
X164.3Y-35.78
X164.43Y-47.35
X164.43Y-48.5
X164.43Y-49.45
X164.618Y-61.478
X164.618Y-80.528
X164.618Y-99.578
X164.618Y-118.628
X164.87Y-38.43
X164.87Y-39.38
X164.87Y-40.33
X167.23Y-47.45
X167.23Y-48.4
X167.23Y-49.35
X167.67Y-38.33
X167.67Y-40.43
X169.9Y-34.83
X169.9Y-36.73
X170.47Y-38.43
X170.47Y-40.33
X178.956Y-144.228
X180.495Y-143.085
X182.906Y-63.237
X182.906Y-82.287
X182.906Y-101.337
X183.668Y-61.478
X183.668Y-80.528
X183.668Y-99.578
X187.703Y-164.897
X188.501Y-127.728
X188.561Y-166.612
X190.04Y-126.585
X201.202Y-149.382
X202.985Y-148.677
X203.464Y-157.802
X203.89Y-157.151
X208.185Y-121.186
X209.724Y-120.044
X221.29Y-32.749
X221.449Y-33.511
X224.094Y-138.712
X224.856Y-138.553
T3
X74.547Y-90.102
X74.547Y-128.202
X75.077Y-71.132
X75.077Y-109.232
X75.347Y-90.102
X75.347Y-128.202
X75.827Y-71.132
X75.827Y-109.232
X79.647Y-90.102
X79.647Y-128.202
X80.127Y-71.132
X80.127Y-109.232
X80.397Y-90.102
X80.397Y-128.202
X80.927Y-71.132
X80.927Y-109.232
X93.597Y-90.102
X93.597Y-128.202
X94.127Y-71.132
X94.127Y-109.232
X94.397Y-90.102
X94.397Y-128.202
X94.877Y-71.132
X94.877Y-109.232
X98.697Y-90.102
X98.697Y-128.202
X99.177Y-71.132
X99.177Y-109.232
X99.447Y-90.102
X99.447Y-128.202
X99.977Y-71.132
X99.977Y-109.232
X112.647Y-80.577
X112.647Y-118.677
X113.177Y-61.607
X113.177Y-99.707
X113.447Y-80.577
X113.447Y-118.677
X113.927Y-61.607
X113.927Y-99.707
X117.747Y-80.577
X117.747Y-118.677
X118.227Y-61.607
X118.227Y-99.707
X118.497Y-80.577
X118.497Y-118.677
X119.027Y-61.607
X119.027Y-99.707
X122.703Y-137.807
X123.453Y-137.807
X127.752Y-137.807
X128.552Y-137.807
X131.697Y-75.814
X131.697Y-113.914
X132.227Y-56.844
X132.227Y-94.944
X132.498Y-75.814
X132.498Y-113.914
X132.977Y-56.844
X132.977Y-94.944
X136.797Y-75.814
X136.797Y-113.914
X137.278Y-56.844
X137.278Y-94.944
X137.547Y-75.814
X137.547Y-113.914
X138.077Y-56.844
X138.077Y-94.944
X141.88Y-137.268
X142.63Y-137.268
X146.93Y-137.268
X147.73Y-137.268
X150.748Y-80.577
X150.748Y-118.677
X151.278Y-61.607
X151.278Y-99.707
X151.547Y-80.577
X151.547Y-118.677
X152.028Y-61.607
X152.028Y-99.707
X155.847Y-80.577
X155.847Y-118.677
X156.327Y-61.607
X156.327Y-99.707
X156.597Y-80.577
X156.597Y-118.677
X157.127Y-61.607
X157.127Y-99.707
X163.626Y-140.052
X164.35Y-140.246
X168.503Y-141.359
X169.276Y-141.566
X169.797Y-82.958
X169.797Y-121.058
X170.327Y-63.988
X170.327Y-102.088
X170.597Y-82.958
X170.597Y-121.058
X171.077Y-63.988
X171.077Y-102.088
X174.897Y-82.958
X174.897Y-121.058
X175.377Y-63.988
X175.377Y-102.088
X175.647Y-82.958
X175.647Y-121.058
X176.177Y-63.988
X176.177Y-102.088
X184.172Y-147.882
X184.822Y-148.257
X188.546Y-150.407
X188.847Y-82.958
X189.239Y-150.807
X189.377Y-63.988
X189.377Y-102.088
X189.647Y-82.958
X190.127Y-63.988
X190.127Y-102.088
X193.278Y-131.05
X193.947Y-82.958
X193.971Y-131.45
X194.427Y-63.988
X194.427Y-102.088
X194.697Y-82.958
X195.227Y-63.988
X195.227Y-102.088
X197.695Y-133.6
X198.345Y-133.975
X201.674Y-160.331
X202.24Y-160.897
X205.28Y-163.938
X205.811Y-164.468
X215.145Y-146.861
X215.71Y-147.427
X218.751Y-150.467
X219.281Y-150.998
T4
X66.15Y-61.03
X66.853Y-59.333
X66.853Y-62.727
X68.55Y-58.63
X68.55Y-63.43
X68.73Y-144.6
X69.433Y-142.903
X69.433Y-146.297
X70.247Y-59.333
X70.247Y-62.727
X70.95Y-61.03
X71.13Y-142.2
X71.13Y-147.0
X72.827Y-142.903
X72.827Y-146.297
X73.53Y-144.6
X133.26Y-36.9
X133.963Y-35.203
X133.963Y-38.597
X135.66Y-34.5
X135.66Y-39.3
X137.357Y-35.203
X137.357Y-38.597
X138.06Y-36.9
X152.93Y-36.9
X153.633Y-35.203
X153.633Y-38.597
X155.33Y-34.5
X155.33Y-39.3
X157.027Y-35.203
X157.027Y-38.597
X157.73Y-36.9
X220.07Y-144.34
X220.773Y-142.643
X220.773Y-146.037
X222.47Y-141.94
X222.47Y-146.74
X224.167Y-142.643
X224.167Y-146.037
X224.87Y-144.34
T5
X72.23Y-84.68
X73.05Y-103.5
X74.1Y-93.26
X74.16Y-131.04
X81.09Y-92.76
X84.085Y-87.94
X84.135Y-93.97
X84.155Y-126.05
X84.205Y-132.08
X84.29Y-68.91
X84.305Y-106.99
X84.34Y-74.94
X84.355Y-113.02
X88.995Y-94.54
X89.065Y-132.65
X89.2Y-75.51
X89.215Y-113.59
X89.645Y-89.63
X89.715Y-127.74
X89.85Y-70.6
X89.865Y-108.68
X94.02Y-84.7
X94.07Y-88.07
X94.07Y-125.96
X94.15Y-123.13
X94.46Y-104.8
X94.5Y-106.97
X103.55Y-130.33
X106.18Y-130.41
X106.7Y-133.93
X110.83Y-131.8
X120.43Y-131.42
X123.102Y-135.667
X141.27Y-42.12
X143.12Y-48.37
X143.15Y-36.89
X157.705Y-43.915
X161.29Y-35.01
X172.855Y-38.645
X173.065Y-44.515
X180.06Y-148.93
X180.19Y-41.68
X180.19Y-44.34
X180.62Y-34.82
X182.73Y-42.55
X191.26Y-154.52
X206.12Y-91.56
X207.54Y-60.23
X207.54Y-143.67
X209.27Y-87.3
X212.47Y-149.16
X213.49Y-156.71
X214.07Y-61.83
X216.443Y-82.747
X216.9Y-154.02
X217.39Y-36.17
X218.72Y-83.16
X219.96Y-63.82
X222.095Y-45.365
X223.34Y-57.78
X224.635Y-41.305
X225.53Y-56.77
X225.9Y-37.5
X226.085Y-118.125
X227.175Y-42.555
T7
X178.915Y-38.161
X178.915Y-39.939
X178.915Y-53.401
X178.915Y-55.179
X181.455Y-38.161
X181.455Y-39.939
X181.455Y-53.401
X181.455Y-55.179
X183.995Y-38.161
X183.995Y-39.939
X183.995Y-53.401
X183.995Y-55.179
X186.535Y-38.161
X186.535Y-39.939
X186.535Y-53.401
X186.535Y-55.179
X189.075Y-38.161
X189.075Y-39.939
X189.075Y-53.401
X189.075Y-55.179
X191.615Y-38.161
X191.615Y-39.939
X191.615Y-53.401
X191.615Y-55.179
X194.155Y-38.161
X194.155Y-39.939
X194.155Y-53.401
X194.155Y-55.179
X196.695Y-38.161
X196.695Y-39.939
X196.695Y-53.401
X196.695Y-55.179
X199.235Y-38.161
X199.235Y-39.939
X199.235Y-53.401
X199.235Y-55.179
X201.775Y-38.161
X201.775Y-39.939
X201.775Y-53.401
X201.775Y-55.179
X204.315Y-38.161
X204.315Y-39.939
X204.315Y-53.401
X204.315Y-55.179
X206.855Y-38.161
X206.855Y-39.939
X206.855Y-53.401
X206.855Y-55.179
X209.395Y-38.161
X209.395Y-39.939
X209.395Y-53.401
X209.395Y-55.179
X211.188Y-121.738
X211.935Y-38.161
X211.935Y-39.939
X211.935Y-53.401
X211.935Y-55.179
X212.188Y-120.006
X214.475Y-38.161
X214.475Y-39.939
X214.475Y-53.401
X214.475Y-55.179
X217.015Y-38.161
X217.015Y-39.939
X217.015Y-53.401
X217.015Y-55.179
X219.555Y-38.161
X219.555Y-39.939
X219.555Y-53.401
X219.555Y-55.179
X222.095Y-38.161
X222.095Y-39.939
X222.095Y-53.401
X222.095Y-55.179
X222.987Y-128.551
X223.987Y-126.819
X224.635Y-38.161
X224.635Y-39.939
X224.635Y-53.401
X224.635Y-55.179
X227.175Y-38.161
X227.175Y-39.939
X227.175Y-53.401
X227.175Y-55.179
T8
X100.58Y-149.168
X105.28Y-143.568
X105.28Y-153.868
X110.88Y-149.168
X201.885Y-33.185
X204.425Y-33.185
X206.965Y-33.185
X209.505Y-33.185
X210.575Y-66.635
X212.045Y-33.185
X213.115Y-66.635
X213.965Y-122.938
X214.585Y-33.185
X215.655Y-66.635
X216.165Y-124.208
X217.125Y-33.185
X218.195Y-66.635
X218.365Y-125.478
X220.564Y-126.748
T9
X100.58Y-145.468
X100.58Y-151.968
X102.48Y-143.568
X102.48Y-153.868
X108.98Y-143.568
X108.98Y-153.868
X110.88Y-145.468
X110.88Y-151.968
T10
X183.96Y-166.61
X197.14Y-153.75
X226.01Y-33.95
T12
X68.55Y-61.03
X71.13Y-144.6
X135.66Y-36.9
X155.33Y-36.9
X222.47Y-144.34
T13
X142.49Y-38.21
X148.27Y-38.21
T14
X72.267Y-71.592
X72.267Y-90.642
X72.267Y-109.692
X72.267Y-128.742
X82.707Y-71.592
X82.707Y-90.642
X82.707Y-109.692
X82.707Y-128.742
X91.317Y-71.592
X91.317Y-90.642
X91.317Y-109.692
X91.317Y-128.742
X101.757Y-71.592
X101.757Y-90.642
X101.757Y-109.692
X101.757Y-128.742
X110.367Y-62.067
X110.367Y-81.117
X110.367Y-100.167
X110.367Y-119.217
X119.892Y-138.267
X120.807Y-62.067
X120.807Y-81.117
X120.807Y-100.167
X120.807Y-119.217
X129.417Y-57.304
X129.417Y-76.355
X129.417Y-95.404
X129.417Y-114.454
X130.332Y-138.267
X139.07Y-137.728
X139.857Y-57.304
X139.857Y-76.355
X139.857Y-95.404
X139.857Y-114.454
X148.468Y-62.067
X148.468Y-81.117
X148.468Y-100.167
X148.468Y-119.217
X149.51Y-137.728
X158.907Y-62.067
X158.907Y-81.117
X158.907Y-100.167
X158.907Y-119.217
X160.792Y-139.769
X167.517Y-64.448
X167.517Y-83.498
X167.517Y-102.548
X167.517Y-121.598
X170.877Y-142.471
X177.957Y-64.448
X177.957Y-83.498
X177.957Y-102.548
X177.957Y-121.598
X181.509Y-146.875
X186.567Y-64.448
X186.567Y-83.498
X186.567Y-102.548
X190.55Y-152.095
X191.034Y-130.377
X197.007Y-64.448
X197.007Y-83.498
X197.007Y-102.548
X199.68Y-159.101
X200.075Y-135.597
X207.062Y-166.483
X213.15Y-145.631
X220.533Y-153.013
T15
X220.43Y-74.86
X220.43Y-76.61
X227.43Y-74.86
X227.43Y-76.61
T16
X71.987Y-75.792
X71.987Y-94.842
X71.987Y-113.892
X71.987Y-132.942
X82.987Y-75.792
X82.987Y-94.842
X82.987Y-113.892
X82.987Y-132.942
X91.037Y-75.792
X91.037Y-94.842
X91.037Y-113.892
X91.037Y-132.942
X102.037Y-75.792
X102.037Y-94.842
X102.037Y-113.892
X102.037Y-132.942
X110.087Y-66.267
X110.087Y-85.317
X110.087Y-104.367
X110.087Y-123.417
X119.612Y-142.467
X121.087Y-66.267
X121.087Y-85.317
X121.087Y-104.367
X121.087Y-123.417
X129.137Y-61.505
X129.137Y-80.554
X129.137Y-99.605
X129.137Y-118.654
X130.612Y-142.467
X138.79Y-141.928
X140.137Y-61.505
X140.137Y-80.554
X140.137Y-99.605
X140.137Y-118.654
X148.188Y-66.267
X148.188Y-85.317
X148.188Y-104.367
X148.188Y-123.417
X149.79Y-141.928
X159.188Y-66.267
X159.188Y-85.317
X159.188Y-104.367
X159.188Y-123.417
X159.435Y-143.754
X167.237Y-68.648
X167.237Y-87.698
X167.237Y-106.748
X167.237Y-125.798
X170.06Y-146.601
X178.237Y-68.648
X178.237Y-87.698
X178.237Y-106.748
X178.237Y-125.798
X179.166Y-150.373
X186.287Y-68.648
X186.287Y-87.698
X186.287Y-106.748
X188.691Y-133.875
X188.693Y-155.873
X196.512Y-161.873
X197.287Y-68.648
X197.287Y-87.698
X197.287Y-106.748
X198.218Y-139.375
X204.29Y-169.651
X209.983Y-148.402
X217.761Y-156.181
T17
X213.285Y-97.77
X213.285Y-116.77
T18
X72.487Y-79.492
X72.487Y-98.542
X72.487Y-117.592
X72.487Y-136.642
X77.487Y-81.692
X77.487Y-100.742
X77.487Y-119.792
X77.487Y-138.842
X82.487Y-79.492
X82.487Y-98.542
X82.487Y-117.592
X82.487Y-136.642
X91.537Y-79.492
X91.537Y-98.542
X91.537Y-117.592
X91.537Y-136.642
X96.537Y-81.692
X96.537Y-100.742
X96.537Y-119.792
X96.537Y-138.842
X101.537Y-79.492
X101.537Y-98.542
X101.537Y-117.592
X101.537Y-136.642
X110.587Y-69.967
X110.587Y-89.017
X110.587Y-108.067
X110.587Y-127.117
X115.587Y-72.167
X115.587Y-91.217
X115.587Y-110.267
X115.587Y-129.317
X120.112Y-146.167
X120.587Y-69.967
X120.587Y-89.017
X120.587Y-108.067
X120.587Y-127.117
X125.112Y-148.367
X129.637Y-65.204
X129.637Y-84.254
X129.637Y-103.304
X129.637Y-122.354
X130.112Y-146.167
X134.637Y-67.404
X134.637Y-86.454
X134.637Y-105.504
X134.637Y-124.554
X139.29Y-145.628
X139.637Y-65.204
X139.637Y-84.254
X139.637Y-103.304
X139.637Y-122.354
X144.29Y-147.828
X148.688Y-69.967
X148.688Y-89.017
X148.688Y-108.067
X148.688Y-127.117
X149.29Y-145.628
X153.688Y-72.167
X153.688Y-91.217
X153.688Y-110.267
X153.688Y-129.317
X158.688Y-69.967
X158.688Y-89.017
X158.688Y-108.067
X158.688Y-127.117
X158.96Y-147.457
X163.22Y-150.876
X167.737Y-72.348
X167.737Y-91.398
X167.737Y-110.448
X167.737Y-129.498
X168.619Y-150.045
X172.737Y-74.548
X172.737Y-93.598
X172.737Y-112.648
X172.737Y-131.698
X177.737Y-72.348
X177.737Y-91.398
X177.737Y-110.448
X177.737Y-129.498
X177.749Y-153.827
X180.979Y-158.232
X186.41Y-158.827
X186.787Y-72.348
X186.787Y-91.398
X186.787Y-110.448
X187.274Y-137.329
X190.504Y-141.734
X191.787Y-74.548
X191.787Y-93.598
X191.787Y-112.648
X194.25Y-164.843
X195.935Y-142.329
X196.229Y-169.934
X196.787Y-72.348
X196.787Y-91.398
X196.787Y-110.448
X201.321Y-171.914
X207.72Y-151.372
X209.7Y-156.463
X214.791Y-158.443
T19
X77.487Y-75.792
X77.487Y-94.842
X77.487Y-113.892
X77.487Y-132.942
X96.537Y-75.792
X96.537Y-94.842
X96.537Y-113.892
X96.537Y-132.942
X115.587Y-66.267
X115.587Y-85.317
X115.587Y-104.367
X115.587Y-123.417
X125.112Y-142.467
X134.637Y-61.505
X134.637Y-80.554
X134.637Y-99.605
X134.637Y-118.654
X144.29Y-141.928
X153.688Y-66.267
X153.688Y-85.317
X153.688Y-104.367
X153.688Y-123.417
X164.747Y-145.177
X172.737Y-68.648
X172.737Y-87.698
X172.737Y-106.748
X172.737Y-125.798
X183.929Y-153.123
X191.787Y-68.648
X191.787Y-87.698
X191.787Y-106.748
X193.454Y-136.625
X200.401Y-165.762
X213.872Y-152.292
T20
X213.285Y-107.27
T6
G00X141.06Y-34.86
M15
G01X141.06Y-34.26
M16
G05
G00X141.06Y-39.29
M15
G01X141.06Y-38.19
M16
G05
G00X149.7Y-34.86
M15
G01X149.7Y-34.26
M16
G05
G00X149.7Y-39.29
M15
G01X149.7Y-38.19
M16
G05
T8
G00X208.095Y-94.304
M15
G01X208.095Y-93.804
M16
G05
G00X210.635Y-94.304
M15
G01X210.635Y-93.804
M16
G05
G00X213.175Y-94.304
M15
G01X213.175Y-93.804
M16
G05
G00X215.715Y-94.304
M15
G01X215.715Y-93.804
M16
G05
G00X217.38Y-74.51
M15
G01X216.88Y-74.51
M16
G05
G00X217.38Y-76.96
M15
G01X216.88Y-76.96
M16
G05
G00X218.255Y-94.304
M15
G01X218.255Y-93.804
M16
G05
G00X218.88Y-72.76
M15
G01X218.38Y-72.76
M16
G05
G00X218.88Y-78.71
M15
G01X218.38Y-78.71
M16
G05
G00X222.88Y-72.76
M15
G01X222.38Y-72.76
M16
G05
G00X222.88Y-78.71
M15
G01X222.38Y-78.71
M16
G05
G00X225.88Y-72.76
M15
G01X225.38Y-72.76
M16
G05
G00X225.88Y-78.71
M15
G01X225.38Y-78.71
M16
G05
T11
G00X203.375Y-102.078
M15
G01X203.375Y-101.578
M16
G05
G00X203.375Y-113.078
M15
G01X203.375Y-112.578
M16
G05
G00X222.975Y-102.078
M15
G01X222.975Y-101.578
M16
G05
G00X222.975Y-113.078
M15
G01X222.975Y-112.578
M16
G05
T0
M30
