%TF.GenerationSoftware,KiCad,Pcbnew,(5.99.0-11414-g76a6177eb7)*%
%TF.CreationDate,2021-12-13T11:53:38+08:00*%
%TF.ProjectId,Rev2,52657632-2e6b-4696-9361-645f70636258,rev?*%
%TF.SameCoordinates,Original*%
%TF.FileFunction,Paste,Bot*%
%TF.FilePolarity,Positive*%
%FSLAX46Y46*%
G04 Gerber Fmt 4.6, Leading zero omitted, Abs format (unit mm)*
G04 Created by KiCad (PCBNEW (5.99.0-11414-g76a6177eb7)) date 2021-12-13 11:53:38*
%MOMM*%
%LPD*%
G01*
G04 APERTURE LIST*
G04 Aperture macros list*
%AMRoundRect*
0 Rectangle with rounded corners*
0 $1 Rounding radius*
0 $2 $3 $4 $5 $6 $7 $8 $9 X,Y pos of 4 corners*
0 Add a 4 corners polygon primitive as box body*
4,1,4,$2,$3,$4,$5,$6,$7,$8,$9,$2,$3,0*
0 Add four circle primitives for the rounded corners*
1,1,$1+$1,$2,$3*
1,1,$1+$1,$4,$5*
1,1,$1+$1,$6,$7*
1,1,$1+$1,$8,$9*
0 Add four rect primitives between the rounded corners*
20,1,$1+$1,$2,$3,$4,$5,0*
20,1,$1+$1,$4,$5,$6,$7,0*
20,1,$1+$1,$6,$7,$8,$9,0*
20,1,$1+$1,$8,$9,$2,$3,0*%
%AMRotRect*
0 Rectangle, with rotation*
0 The origin of the aperture is its center*
0 $1 length*
0 $2 width*
0 $3 Rotation angle, in degrees counterclockwise*
0 Add horizontal line*
21,1,$1,$2,0,0,$3*%
G04 Aperture macros list end*
%ADD10RoundRect,0.350000X0.350000X-0.500500X0.350000X0.500500X-0.350000X0.500500X-0.350000X-0.500500X0*%
%ADD11RoundRect,0.300000X0.300000X-0.550500X0.300000X0.550500X-0.300000X0.550500X-0.300000X-0.550500X0*%
%ADD12R,1.600000X2.200000*%
%ADD13RoundRect,0.350000X-0.350000X0.500500X-0.350000X-0.500500X0.350000X-0.500500X0.350000X0.500500X0*%
%ADD14RoundRect,0.350000X-0.500500X-0.350000X0.500500X-0.350000X0.500500X0.350000X-0.500500X0.350000X0*%
%ADD15RoundRect,0.300000X-0.300000X0.550500X-0.300000X-0.550500X0.300000X-0.550500X0.300000X0.550500X0*%
%ADD16RoundRect,0.350000X0.500500X0.350000X-0.500500X0.350000X-0.500500X-0.350000X0.500500X-0.350000X0*%
%ADD17RotRect,1.600000X2.200000X135.000000*%
%ADD18RoundRect,0.300000X0.147298X-0.609388X0.432258X0.454096X-0.147298X0.609388X-0.432258X-0.454096X0*%
%ADD19RoundRect,0.123750X-0.123750X0.656250X-0.123750X-0.656250X0.123750X-0.656250X0.123750X0.656250X0*%
%ADD20RoundRect,0.123750X-0.656250X-0.123750X0.656250X-0.123750X0.656250X0.123750X-0.656250X0.123750X0*%
%ADD21RoundRect,0.123750X0.656250X0.123750X-0.656250X0.123750X-0.656250X-0.123750X0.656250X-0.123750X0*%
%ADD22RotRect,1.600000X2.200000X150.000000*%
%ADD23RotRect,1.600000X2.200000X165.000000*%
%ADD24RoundRect,0.300000X0.015442X0.626747X-0.535058X-0.326747X-0.015442X-0.626747X0.535058X0.326747X0*%
%ADD25RoundRect,0.350000X0.601394X-0.106420X-0.106420X0.601394X-0.601394X0.106420X0.106420X-0.601394X0*%
%ADD26RoundRect,0.300000X-0.015442X-0.626747X0.535058X0.326747X0.015442X0.626747X-0.535058X-0.326747X0*%
%ADD27R,2.200000X2.200000*%
%ADD28RoundRect,0.300000X0.614544X-0.124041X-0.228871X0.583668X-0.614544X0.124041X0.228871X-0.583668X0*%
%ADD29R,0.570000X2.450000*%
%ADD30R,0.300000X2.450000*%
%ADD31RoundRect,0.300000X-0.177130X-0.601394X0.601394X0.177130X0.177130X0.601394X-0.601394X-0.177130X0*%
%ADD32RoundRect,0.250000X0.625000X-0.375000X0.625000X0.375000X-0.625000X0.375000X-0.625000X-0.375000X0*%
%ADD33RoundRect,0.250000X0.350000X0.450000X-0.350000X0.450000X-0.350000X-0.450000X0.350000X-0.450000X0*%
G04 APERTURE END LIST*
D10*
%TO.C,FB8*%
X224475000Y-139874250D03*
X224475000Y-137372250D03*
%TD*%
D11*
%TO.C,D26*%
X126137500Y-114405500D03*
X126137500Y-110303500D03*
%TD*%
%TO.C,D34*%
X88037500Y-90593000D03*
X88037500Y-86491000D03*
%TD*%
D12*
%TO.C,SW32*%
X80287499Y-81692000D03*
X69687499Y-79492000D03*
%TD*%
%TO.C,SW10*%
X175537500Y-131698250D03*
X164937500Y-129498250D03*
%TD*%
D11*
%TO.C,D20*%
X145187500Y-100118000D03*
X145187500Y-96016000D03*
%TD*%
D13*
%TO.C,C1*%
X66730000Y-69159000D03*
X66730000Y-71661000D03*
%TD*%
D14*
%TO.C,FB2*%
X75789000Y-145030000D03*
X78291000Y-145030000D03*
%TD*%
D11*
%TO.C,D14*%
X164237500Y-83449250D03*
X164237500Y-79347250D03*
%TD*%
D12*
%TO.C,SW18*%
X137437500Y-86454500D03*
X126837500Y-84254500D03*
%TD*%
D15*
%TO.C,D1*%
X97020000Y-143687250D03*
X97020000Y-147789250D03*
%TD*%
D11*
%TO.C,D23*%
X126137500Y-57255500D03*
X126137500Y-53153500D03*
%TD*%
D12*
%TO.C,SW9*%
X175537500Y-112648250D03*
X164937500Y-110448250D03*
%TD*%
D11*
%TO.C,D28*%
X107087500Y-62018000D03*
X107087500Y-57916000D03*
%TD*%
D15*
%TO.C,D4*%
X90620000Y-143687250D03*
X90620000Y-147789250D03*
%TD*%
D12*
%TO.C,SW26*%
X147090000Y-147828250D03*
X136490000Y-145628250D03*
%TD*%
%TO.C,SW12*%
X156487500Y-72167000D03*
X145887500Y-69967000D03*
%TD*%
D16*
%TO.C,FB7*%
X222611000Y-33130000D03*
X220109000Y-33130000D03*
%TD*%
D11*
%TO.C,D40*%
X68987499Y-109642999D03*
X68987499Y-105540999D03*
%TD*%
D17*
%TO.C,SW6*%
X198209322Y-171913724D03*
X192269625Y-162862757D03*
%TD*%
D10*
%TO.C,C5*%
X114275000Y-138599250D03*
X114275000Y-136097250D03*
%TD*%
D11*
%TO.C,D39*%
X68987499Y-90592999D03*
X68987499Y-86490999D03*
%TD*%
D12*
%TO.C,SW22*%
X118387500Y-72167000D03*
X107787500Y-69967000D03*
%TD*%
%TO.C,SW25*%
X118387500Y-129317000D03*
X107787500Y-127117000D03*
%TD*%
%TO.C,SW29*%
X99337500Y-119792000D03*
X88737500Y-117592000D03*
%TD*%
%TO.C,SW20*%
X137437500Y-124554500D03*
X126837500Y-122354500D03*
%TD*%
D18*
%TO.C,D27*%
X157719162Y-139029364D03*
X158780838Y-135067136D03*
%TD*%
D12*
%TO.C,SW24*%
X118387500Y-110267000D03*
X107787500Y-108067000D03*
%TD*%
D15*
%TO.C,D5*%
X88480000Y-143687250D03*
X88480000Y-147789250D03*
%TD*%
D11*
%TO.C,D36*%
X88037500Y-128693000D03*
X88037500Y-124591000D03*
%TD*%
D19*
%TO.C,Q1*%
X157460000Y-50560000D03*
X155560000Y-50560000D03*
X156510000Y-47860000D03*
%TD*%
D14*
%TO.C,FB6*%
X156809000Y-32730000D03*
X159311000Y-32730000D03*
%TD*%
D12*
%TO.C,SW13*%
X156487500Y-91217000D03*
X145887500Y-89017000D03*
%TD*%
D16*
%TO.C,FB5*%
X130941000Y-38920000D03*
X128439000Y-38920000D03*
%TD*%
D20*
%TO.C,U5*%
X169020000Y-38430000D03*
X169020000Y-39380000D03*
X169020000Y-40330000D03*
X166320000Y-40330000D03*
X166320000Y-38430000D03*
%TD*%
D12*
%TO.C,SW3*%
X194587499Y-112648250D03*
X183987499Y-110448250D03*
%TD*%
%TO.C,SW17*%
X137437500Y-67404500D03*
X126837500Y-65204500D03*
%TD*%
D21*
%TO.C,Q2*%
X165750000Y-36730000D03*
X165750000Y-34830000D03*
X168450000Y-35780000D03*
%TD*%
D11*
%TO.C,D33*%
X88037500Y-71543000D03*
X88037500Y-67441000D03*
%TD*%
%TO.C,D13*%
X164237500Y-64399250D03*
X164237500Y-60297250D03*
%TD*%
D22*
%TO.C,SW11*%
X192929245Y-143134267D03*
X184849376Y-135929011D03*
%TD*%
D23*
%TO.C,SW21*%
X165924908Y-151600703D03*
X156255496Y-146732184D03*
%TD*%
D24*
%TO.C,D9*%
X209975500Y-118847032D03*
X207924500Y-122399468D03*
%TD*%
D13*
%TO.C,C4*%
X67790000Y-131139000D03*
X67790000Y-133641000D03*
%TD*%
D25*
%TO.C,FB9*%
X204554591Y-158354591D03*
X202785409Y-156585409D03*
%TD*%
D10*
%TO.C,FB1*%
X139930000Y-46531000D03*
X139930000Y-44029000D03*
%TD*%
D12*
%TO.C,SW14*%
X156487500Y-110267000D03*
X145887500Y-108067000D03*
%TD*%
%TO.C,SW35*%
X80287499Y-138842000D03*
X69687499Y-136642000D03*
%TD*%
%TO.C,SW8*%
X175537500Y-93598250D03*
X164937500Y-91398250D03*
%TD*%
D26*
%TO.C,D22*%
X178704500Y-145424468D03*
X180755500Y-141872032D03*
%TD*%
D14*
%TO.C,FB4*%
X73629000Y-60560000D03*
X76131000Y-60560000D03*
%TD*%
D12*
%TO.C,SW28*%
X99337500Y-100742000D03*
X88737500Y-98542000D03*
%TD*%
D11*
%TO.C,D29*%
X107087500Y-81068000D03*
X107087500Y-76966000D03*
%TD*%
D10*
%TO.C,R7*%
X149430000Y-46771000D03*
X149430000Y-44269000D03*
%TD*%
D17*
%TO.C,SW4*%
X211679706Y-158443341D03*
X205740009Y-149392374D03*
%TD*%
D12*
%TO.C,SW23*%
X118387500Y-91217000D03*
X107787500Y-89017000D03*
%TD*%
%TO.C,SW34*%
X80287499Y-119791999D03*
X69687499Y-117591999D03*
%TD*%
D13*
%TO.C,R6*%
X147270000Y-44269000D03*
X147270000Y-46771000D03*
%TD*%
D14*
%TO.C,R9*%
X161279000Y-42230000D03*
X163781000Y-42230000D03*
%TD*%
D26*
%TO.C,D17*%
X188249500Y-128924468D03*
X190300500Y-125372032D03*
%TD*%
D27*
%TO.C,BZ1*%
X210400000Y-72130000D03*
X210400000Y-85330000D03*
%TD*%
D11*
%TO.C,D30*%
X107087500Y-100118000D03*
X107087500Y-96016000D03*
%TD*%
%TO.C,D38*%
X68987499Y-71543000D03*
X68987499Y-67441000D03*
%TD*%
%TO.C,D31*%
X107087500Y-119168000D03*
X107087500Y-115066000D03*
%TD*%
%TO.C,D15*%
X164237500Y-102499250D03*
X164237500Y-98397250D03*
%TD*%
%TO.C,D8*%
X183287499Y-102499250D03*
X183287499Y-98397250D03*
%TD*%
D12*
%TO.C,SW15*%
X156487500Y-129317000D03*
X145887500Y-127117000D03*
%TD*%
D11*
%TO.C,D7*%
X183287499Y-83449250D03*
X183287499Y-79347250D03*
%TD*%
D12*
%TO.C,SW2*%
X194587499Y-93598250D03*
X183987499Y-91398250D03*
%TD*%
D21*
%TO.C,U4*%
X163080000Y-49350000D03*
X163080000Y-48400000D03*
X163080000Y-47450000D03*
X165780000Y-47450000D03*
X165780000Y-48400000D03*
X165780000Y-49350000D03*
%TD*%
D12*
%TO.C,SW31*%
X127912500Y-148367000D03*
X117312500Y-146167000D03*
%TD*%
D28*
%TO.C,D11*%
X189696157Y-167066607D03*
X186553843Y-164429893D03*
%TD*%
D12*
%TO.C,SW19*%
X137437500Y-105504500D03*
X126837500Y-103304500D03*
%TD*%
D14*
%TO.C,R10*%
X161229000Y-44790000D03*
X163731000Y-44790000D03*
%TD*%
D29*
%TO.C,USB1*%
X142155000Y-40155000D03*
X142930000Y-40155000D03*
D30*
X144130000Y-40155000D03*
X145130000Y-40155000D03*
X145630000Y-40155000D03*
D29*
X148605000Y-40155000D03*
X147830000Y-40155000D03*
D30*
X147130000Y-40155000D03*
X146130000Y-40155000D03*
X144630000Y-40155000D03*
X146630000Y-40155000D03*
X143630000Y-40155000D03*
%TD*%
D12*
%TO.C,SW30*%
X99337500Y-138842000D03*
X88737500Y-136642000D03*
%TD*%
D31*
%TO.C,D10*%
X200649724Y-150473526D03*
X203550276Y-147572974D03*
%TD*%
D11*
%TO.C,D35*%
X88037500Y-109643000D03*
X88037500Y-105541000D03*
%TD*%
D15*
%TO.C,D2*%
X94880000Y-143687250D03*
X94880000Y-147789250D03*
%TD*%
D11*
%TO.C,D32*%
X135790000Y-137679250D03*
X135790000Y-133577250D03*
%TD*%
D12*
%TO.C,SW1*%
X194587499Y-74548250D03*
X183987499Y-72348250D03*
%TD*%
D22*
%TO.C,SW16*%
X183404245Y-159632050D03*
X175324376Y-152426794D03*
%TD*%
D13*
%TO.C,C2*%
X66830000Y-88249000D03*
X66830000Y-90751000D03*
%TD*%
D11*
%TO.C,D24*%
X126137500Y-76305500D03*
X126137500Y-72203500D03*
%TD*%
%TO.C,D37*%
X116612500Y-138218000D03*
X116612500Y-134116000D03*
%TD*%
D12*
%TO.C,SW33*%
X80287499Y-100741999D03*
X69687499Y-98541999D03*
%TD*%
%TO.C,SW7*%
X175537500Y-74548250D03*
X164937500Y-72348250D03*
%TD*%
%TO.C,SW27*%
X99337500Y-81692000D03*
X88737500Y-79492000D03*
%TD*%
D11*
%TO.C,D12*%
X152340000Y-53921000D03*
X152340000Y-49819000D03*
%TD*%
%TO.C,D41*%
X68987499Y-128693000D03*
X68987499Y-124591000D03*
%TD*%
%TO.C,D18*%
X145187500Y-62018000D03*
X145187500Y-57916000D03*
%TD*%
%TO.C,D19*%
X145187500Y-81068000D03*
X145187500Y-76966000D03*
%TD*%
D15*
%TO.C,D3*%
X92760000Y-143687250D03*
X92760000Y-147789250D03*
%TD*%
D11*
%TO.C,D21*%
X145187500Y-119168000D03*
X145187500Y-115066000D03*
%TD*%
%TO.C,D6*%
X183287499Y-64399250D03*
X183287499Y-60297250D03*
%TD*%
D13*
%TO.C,C3*%
X66840000Y-107279000D03*
X66840000Y-109781000D03*
%TD*%
D11*
%TO.C,D16*%
X164237500Y-121549250D03*
X164237500Y-117447250D03*
%TD*%
%TO.C,D25*%
X126137500Y-95355500D03*
X126137500Y-91253500D03*
%TD*%
D32*
%TO.C,F1*%
X150110000Y-52270000D03*
X150110000Y-49470000D03*
%TD*%
D33*
%TO.C,R4*%
X182620000Y-32845000D03*
X180620000Y-32845000D03*
%TD*%
%TO.C,R8*%
X196100000Y-33700000D03*
X194100000Y-33700000D03*
%TD*%
%TO.C,R5*%
X182620000Y-34820000D03*
X180620000Y-34820000D03*
%TD*%
M02*
